G75*
%MOIN*%
%OFA0B0*%
%FSLAX25Y25*%
%IPPOS*%
%LPD*%
%AMOC8*
5,1,8,0,0,1.08239X$1,22.5*
%
%ADD10C,0.16548*%
%ADD11C,0.12611*%
%ADD12C,0.06800*%
%ADD13C,0.06000*%
%ADD14R,0.10249X0.11824*%
%ADD15R,0.06706X0.05918*%
%ADD16R,0.06312X0.07887*%
%ADD17R,0.07887X0.06312*%
%ADD18R,0.07099X0.10249*%
%ADD19R,0.10249X0.07099*%
%ADD20R,0.05918X0.06706*%
%ADD21R,0.11824X0.10249*%
%ADD22C,0.09800*%
%ADD23R,0.02572X0.07887*%
%ADD24C,0.06000*%
%ADD25C,0.06737*%
%ADD26R,0.03400X0.08800*%
%ADD27C,0.14580*%
%ADD28OC8,0.06400*%
%ADD29C,0.06400*%
%ADD30C,0.11300*%
%ADD31C,0.06312*%
%ADD32C,0.06706*%
D10*
X0017548Y0021485D03*
X0017548Y0308887D03*
X0430934Y0308887D03*
X0430934Y0021485D03*
D11*
X0430934Y0060855D03*
X0017548Y0060855D03*
D12*
X0057942Y0020548D02*
X0057942Y0014548D01*
X0067942Y0014548D02*
X0067942Y0020548D01*
X0077942Y0020548D02*
X0077942Y0014548D01*
X0087942Y0014548D02*
X0087942Y0020548D01*
X0097942Y0020548D02*
X0097942Y0014548D01*
X0107942Y0014548D02*
X0107942Y0020548D01*
X0117942Y0020548D02*
X0117942Y0014548D01*
X0127942Y0014548D02*
X0127942Y0020548D01*
X0137942Y0020548D02*
X0137942Y0014548D01*
X0147942Y0014548D02*
X0147942Y0020548D01*
X0157942Y0020548D02*
X0157942Y0014548D01*
X0167942Y0014548D02*
X0167942Y0020548D01*
X0177942Y0020548D02*
X0177942Y0014548D01*
X0183060Y0087225D02*
X0183060Y0093225D01*
X0163060Y0093225D02*
X0163060Y0087225D01*
X0170060Y0110225D02*
X0176060Y0110225D01*
X0249674Y0093225D02*
X0249674Y0087225D01*
X0269674Y0087225D02*
X0269674Y0093225D01*
X0262674Y0110225D02*
X0256674Y0110225D01*
X0249674Y0134469D02*
X0249674Y0140469D01*
X0256674Y0157469D02*
X0262674Y0157469D01*
X0269674Y0140469D02*
X0269674Y0134469D01*
X0269674Y0181713D02*
X0269674Y0187713D01*
X0262674Y0204713D02*
X0256674Y0204713D01*
X0249674Y0187713D02*
X0249674Y0181713D01*
D13*
X0211093Y0110225D02*
X0205893Y0110225D01*
X0205893Y0100225D02*
X0211093Y0100225D01*
X0211093Y0090225D02*
X0205893Y0090225D01*
X0339751Y0098099D02*
X0344951Y0098099D01*
X0344951Y0108099D02*
X0339751Y0108099D01*
X0339751Y0118099D02*
X0344951Y0118099D01*
X0371247Y0118099D02*
X0376447Y0118099D01*
X0376447Y0108099D02*
X0371247Y0108099D01*
X0371247Y0098099D02*
X0376447Y0098099D01*
X0402743Y0098099D02*
X0407943Y0098099D01*
X0407943Y0108099D02*
X0402743Y0108099D01*
X0402743Y0118099D02*
X0407943Y0118099D01*
D14*
X0327194Y0182902D03*
X0302391Y0182902D03*
X0302391Y0206524D03*
X0327194Y0206524D03*
X0209083Y0253769D03*
X0184280Y0253769D03*
X0122469Y0253769D03*
X0097666Y0253769D03*
X0097666Y0226209D03*
X0122469Y0226209D03*
D15*
X0086446Y0206328D03*
X0086446Y0198847D03*
X0086446Y0166957D03*
X0086446Y0159477D03*
X0098257Y0119713D03*
X0098257Y0112233D03*
X0125816Y0086249D03*
X0125816Y0078769D03*
X0098257Y0058690D03*
X0098257Y0051209D03*
X0045107Y0051209D03*
X0045107Y0058690D03*
X0027391Y0112233D03*
X0027391Y0119713D03*
X0023454Y0135855D03*
X0023454Y0143335D03*
X0023454Y0159477D03*
X0023454Y0166957D03*
X0023454Y0198847D03*
X0023454Y0206328D03*
X0161249Y0139398D03*
X0161249Y0131918D03*
X0200619Y0131918D03*
X0200619Y0139398D03*
X0236052Y0151603D03*
X0236052Y0159083D03*
X0212430Y0179162D03*
X0212430Y0186643D03*
X0196682Y0186643D03*
X0196682Y0179162D03*
X0236052Y0198847D03*
X0236052Y0206328D03*
X0302981Y0163020D03*
X0302981Y0155540D03*
X0322666Y0155540D03*
X0322666Y0163020D03*
X0322666Y0139398D03*
X0322666Y0131918D03*
X0302981Y0131918D03*
X0302981Y0139398D03*
X0302981Y0115776D03*
X0302981Y0108296D03*
X0302981Y0092154D03*
X0302981Y0084674D03*
X0302981Y0064595D03*
X0302981Y0057115D03*
X0236052Y0104359D03*
X0236052Y0111839D03*
X0220304Y0064595D03*
X0220304Y0057115D03*
X0346288Y0131918D03*
X0346288Y0139398D03*
X0365973Y0139398D03*
X0365973Y0131918D03*
X0385658Y0131918D03*
X0385658Y0139398D03*
X0405343Y0139398D03*
X0405343Y0131918D03*
X0405343Y0155540D03*
X0405343Y0163020D03*
X0405343Y0175225D03*
X0405343Y0182706D03*
D16*
X0408099Y0084477D03*
X0394713Y0084477D03*
X0376603Y0084477D03*
X0363217Y0084477D03*
X0345107Y0084477D03*
X0331721Y0084477D03*
D17*
X0125816Y0101406D03*
X0125816Y0114792D03*
D18*
X0159280Y0210461D03*
X0171091Y0210461D03*
X0171091Y0234083D03*
X0159280Y0234083D03*
X0332509Y0064792D03*
X0344320Y0064792D03*
X0364005Y0064792D03*
X0375816Y0064792D03*
X0395501Y0064792D03*
X0407312Y0064792D03*
D19*
X0180934Y0129753D03*
X0180934Y0141564D03*
X0125816Y0062824D03*
X0125816Y0051013D03*
D20*
X0169320Y0076603D03*
X0176800Y0076603D03*
X0192942Y0076603D03*
X0200422Y0076603D03*
X0145304Y0210461D03*
X0137824Y0210461D03*
X0137824Y0234083D03*
X0145304Y0234083D03*
X0145304Y0257706D03*
X0137824Y0257706D03*
X0161446Y0257706D03*
X0168926Y0257706D03*
X0366170Y0047076D03*
X0373650Y0047076D03*
D21*
X0279359Y0048454D03*
X0279359Y0073257D03*
X0243926Y0073257D03*
X0243926Y0048454D03*
X0354162Y0154753D03*
X0354162Y0179556D03*
X0381721Y0179556D03*
X0381721Y0154753D03*
D22*
X0385934Y0243217D03*
X0375934Y0253296D03*
X0385934Y0263217D03*
X0356288Y0263178D03*
X0336564Y0253257D03*
X0326839Y0263217D03*
X0326839Y0243217D03*
X0356288Y0243178D03*
X0375934Y0302517D03*
X0336524Y0302517D03*
D23*
X0180934Y0181328D03*
X0175934Y0181328D03*
X0170934Y0181328D03*
X0165934Y0181328D03*
X0160934Y0181328D03*
X0155934Y0181328D03*
X0150934Y0181328D03*
X0145934Y0181328D03*
X0140934Y0181328D03*
X0135934Y0181328D03*
X0130934Y0181328D03*
X0125934Y0181328D03*
X0125934Y0152981D03*
X0130934Y0152981D03*
X0135934Y0152981D03*
X0140934Y0152981D03*
X0145934Y0152981D03*
X0150934Y0152981D03*
X0155934Y0152981D03*
X0160934Y0152981D03*
X0165934Y0152981D03*
X0170934Y0152981D03*
X0175934Y0152981D03*
X0180934Y0152981D03*
D24*
X0082509Y0093977D03*
X0082509Y0074977D03*
X0060855Y0074977D03*
X0060855Y0093977D03*
D25*
X0037233Y0094320D03*
X0037233Y0074635D03*
X0106131Y0074635D03*
X0106131Y0094320D03*
X0196682Y0212430D03*
X0196682Y0232115D03*
D26*
X0077824Y0143821D03*
X0072824Y0143821D03*
X0067824Y0143821D03*
X0062824Y0143821D03*
X0057824Y0143821D03*
X0052824Y0143821D03*
X0047824Y0143821D03*
X0047824Y0119621D03*
X0052824Y0119621D03*
X0057824Y0119621D03*
X0062824Y0119621D03*
X0067824Y0119621D03*
X0072824Y0119621D03*
X0077824Y0119621D03*
D27*
X0057902Y0303965D03*
X0084477Y0307115D03*
X0111249Y0303965D03*
D28*
X0097863Y0292154D03*
X0097863Y0282312D03*
X0071091Y0282509D03*
X0071091Y0292154D03*
D29*
X0064950Y0205387D02*
X0064950Y0199787D01*
X0054950Y0199787D02*
X0054950Y0205387D01*
X0044950Y0205387D02*
X0044950Y0199787D01*
X0044950Y0185702D02*
X0044950Y0180102D01*
X0054950Y0180102D02*
X0054950Y0185702D01*
X0064950Y0185702D02*
X0064950Y0180102D01*
X0064950Y0166017D02*
X0064950Y0160417D01*
X0054950Y0160417D02*
X0054950Y0166017D01*
X0044950Y0166017D02*
X0044950Y0160417D01*
X0089551Y0140658D02*
X0095151Y0140658D01*
X0095151Y0130658D02*
X0089551Y0130658D01*
X0109236Y0130658D02*
X0114836Y0130658D01*
X0114836Y0140658D02*
X0109236Y0140658D01*
X0085309Y0050107D02*
X0079709Y0050107D01*
X0079709Y0040107D02*
X0085309Y0040107D01*
X0063655Y0040107D02*
X0058055Y0040107D01*
X0058055Y0050107D02*
X0063655Y0050107D01*
D30*
X0193598Y0278046D02*
X0193598Y0288546D01*
X0209148Y0314792D02*
X0219648Y0314792D01*
X0235265Y0288546D02*
X0235265Y0278046D01*
X0264465Y0278046D02*
X0264465Y0288546D01*
X0280015Y0314792D02*
X0290515Y0314792D01*
X0306131Y0288546D02*
X0306131Y0278046D01*
D31*
X0300028Y0314792D03*
X0270501Y0314792D03*
X0229162Y0314792D03*
X0199635Y0314792D03*
D32*
X0214398Y0289202D03*
X0285265Y0289202D03*
M02*
