G75*
%MOIN*%
%OFA0B0*%
%FSLAX25Y25*%
%IPPOS*%
%LPD*%
%AMOC8*
5,1,8,0,0,1.08239X$1,22.5*
%
%ADD10C,0.06000*%
%ADD11C,0.05200*%
%ADD12R,0.09449X0.11024*%
%ADD13R,0.05906X0.05118*%
%ADD14R,0.05512X0.07087*%
%ADD15R,0.07087X0.05512*%
%ADD16R,0.06299X0.09449*%
%ADD17R,0.09449X0.06299*%
%ADD18R,0.05118X0.05906*%
%ADD19R,0.11024X0.09449*%
%ADD20C,0.09000*%
%ADD21R,0.01772X0.07087*%
%ADD22C,0.05200*%
%ADD23C,0.05937*%
%ADD24R,0.02600X0.08000*%
%ADD25C,0.13780*%
%ADD26OC8,0.05600*%
%ADD27C,0.05600*%
%ADD28C,0.10500*%
%ADD29C,0.03937*%
%ADD30C,0.01969*%
%ADD31C,0.03962*%
%ADD32C,0.03150*%
%ADD33C,0.01600*%
%ADD34R,0.03962X0.03962*%
D10*
X0057942Y0014548D02*
X0057942Y0020548D01*
X0067942Y0020548D02*
X0067942Y0014548D01*
X0077942Y0014548D02*
X0077942Y0020548D01*
X0087942Y0020548D02*
X0087942Y0014548D01*
X0097942Y0014548D02*
X0097942Y0020548D01*
X0107942Y0020548D02*
X0107942Y0014548D01*
X0117942Y0014548D02*
X0117942Y0020548D01*
X0127942Y0020548D02*
X0127942Y0014548D01*
X0137942Y0014548D02*
X0137942Y0020548D01*
X0147942Y0020548D02*
X0147942Y0014548D01*
X0157942Y0014548D02*
X0157942Y0020548D01*
X0167942Y0020548D02*
X0167942Y0014548D01*
X0177942Y0014548D02*
X0177942Y0020548D01*
X0183060Y0087225D02*
X0183060Y0093225D01*
X0163060Y0093225D02*
X0163060Y0087225D01*
X0170060Y0110225D02*
X0176060Y0110225D01*
X0249674Y0093225D02*
X0249674Y0087225D01*
X0269674Y0087225D02*
X0269674Y0093225D01*
X0262674Y0110225D02*
X0256674Y0110225D01*
X0249674Y0134469D02*
X0249674Y0140469D01*
X0256674Y0157469D02*
X0262674Y0157469D01*
X0269674Y0140469D02*
X0269674Y0134469D01*
X0269674Y0181713D02*
X0269674Y0187713D01*
X0262674Y0204713D02*
X0256674Y0204713D01*
X0249674Y0187713D02*
X0249674Y0181713D01*
D11*
X0211093Y0110225D02*
X0205893Y0110225D01*
X0205893Y0100225D02*
X0211093Y0100225D01*
X0211093Y0090225D02*
X0205893Y0090225D01*
X0339751Y0098099D02*
X0344951Y0098099D01*
X0344951Y0108099D02*
X0339751Y0108099D01*
X0339751Y0118099D02*
X0344951Y0118099D01*
X0371247Y0118099D02*
X0376447Y0118099D01*
X0376447Y0108099D02*
X0371247Y0108099D01*
X0371247Y0098099D02*
X0376447Y0098099D01*
X0402743Y0098099D02*
X0407943Y0098099D01*
X0407943Y0108099D02*
X0402743Y0108099D01*
X0402743Y0118099D02*
X0407943Y0118099D01*
D12*
X0327194Y0182902D03*
X0302391Y0182902D03*
X0302391Y0206524D03*
X0327194Y0206524D03*
X0209083Y0253769D03*
X0184280Y0253769D03*
X0122469Y0253769D03*
X0097666Y0253769D03*
X0097666Y0226209D03*
X0122469Y0226209D03*
D13*
X0086446Y0206328D03*
X0086446Y0198847D03*
X0086446Y0166957D03*
X0086446Y0159477D03*
X0098257Y0119713D03*
X0098257Y0112233D03*
X0125816Y0086249D03*
X0125816Y0078769D03*
X0098257Y0058690D03*
X0098257Y0051209D03*
X0045107Y0051209D03*
X0045107Y0058690D03*
X0027391Y0112233D03*
X0027391Y0119713D03*
X0023454Y0135855D03*
X0023454Y0143335D03*
X0023454Y0159477D03*
X0023454Y0166957D03*
X0023454Y0198847D03*
X0023454Y0206328D03*
X0161249Y0139398D03*
X0161249Y0131918D03*
X0200619Y0131918D03*
X0200619Y0139398D03*
X0236052Y0151603D03*
X0236052Y0159083D03*
X0212430Y0179162D03*
X0212430Y0186643D03*
X0196682Y0186643D03*
X0196682Y0179162D03*
X0236052Y0198847D03*
X0236052Y0206328D03*
X0302981Y0163020D03*
X0302981Y0155540D03*
X0322666Y0155540D03*
X0322666Y0163020D03*
X0322666Y0139398D03*
X0322666Y0131918D03*
X0302981Y0131918D03*
X0302981Y0139398D03*
X0302981Y0115776D03*
X0302981Y0108296D03*
X0302981Y0092154D03*
X0302981Y0084674D03*
X0302981Y0064595D03*
X0302981Y0057115D03*
X0236052Y0104359D03*
X0236052Y0111839D03*
X0220304Y0064595D03*
X0220304Y0057115D03*
X0346288Y0131918D03*
X0346288Y0139398D03*
X0365973Y0139398D03*
X0365973Y0131918D03*
X0385658Y0131918D03*
X0385658Y0139398D03*
X0405343Y0139398D03*
X0405343Y0131918D03*
X0405343Y0155540D03*
X0405343Y0163020D03*
X0405343Y0175225D03*
X0405343Y0182706D03*
D14*
X0408099Y0084477D03*
X0394713Y0084477D03*
X0376603Y0084477D03*
X0363217Y0084477D03*
X0345107Y0084477D03*
X0331721Y0084477D03*
D15*
X0125816Y0101406D03*
X0125816Y0114792D03*
D16*
X0159280Y0210461D03*
X0171091Y0210461D03*
X0171091Y0234083D03*
X0159280Y0234083D03*
X0332509Y0064792D03*
X0344320Y0064792D03*
X0364005Y0064792D03*
X0375816Y0064792D03*
X0395501Y0064792D03*
X0407312Y0064792D03*
D17*
X0180934Y0129753D03*
X0180934Y0141564D03*
X0125816Y0062824D03*
X0125816Y0051013D03*
D18*
X0169320Y0076603D03*
X0176800Y0076603D03*
X0192942Y0076603D03*
X0200422Y0076603D03*
X0145304Y0210461D03*
X0137824Y0210461D03*
X0137824Y0234083D03*
X0145304Y0234083D03*
X0145304Y0257706D03*
X0137824Y0257706D03*
X0161446Y0257706D03*
X0168926Y0257706D03*
X0366170Y0047076D03*
X0373650Y0047076D03*
D19*
X0279359Y0048454D03*
X0279359Y0073257D03*
X0243926Y0073257D03*
X0243926Y0048454D03*
X0354162Y0154753D03*
X0354162Y0179556D03*
X0381721Y0179556D03*
X0381721Y0154753D03*
D20*
X0385934Y0243217D03*
X0375934Y0253296D03*
X0385934Y0263217D03*
X0356288Y0263178D03*
X0336564Y0253257D03*
X0326839Y0263217D03*
X0326839Y0243217D03*
X0356288Y0243178D03*
X0375934Y0302517D03*
X0336524Y0302517D03*
D21*
X0180934Y0181328D03*
X0175934Y0181328D03*
X0170934Y0181328D03*
X0165934Y0181328D03*
X0160934Y0181328D03*
X0155934Y0181328D03*
X0150934Y0181328D03*
X0145934Y0181328D03*
X0140934Y0181328D03*
X0135934Y0181328D03*
X0130934Y0181328D03*
X0125934Y0181328D03*
X0125934Y0152981D03*
X0130934Y0152981D03*
X0135934Y0152981D03*
X0140934Y0152981D03*
X0145934Y0152981D03*
X0150934Y0152981D03*
X0155934Y0152981D03*
X0160934Y0152981D03*
X0165934Y0152981D03*
X0170934Y0152981D03*
X0175934Y0152981D03*
X0180934Y0152981D03*
D22*
X0082509Y0093977D03*
X0082509Y0074977D03*
X0060855Y0074977D03*
X0060855Y0093977D03*
D23*
X0037233Y0094320D03*
X0037233Y0074635D03*
X0106131Y0074635D03*
X0106131Y0094320D03*
X0196682Y0212430D03*
X0196682Y0232115D03*
D24*
X0077824Y0143821D03*
X0072824Y0143821D03*
X0067824Y0143821D03*
X0062824Y0143821D03*
X0057824Y0143821D03*
X0052824Y0143821D03*
X0047824Y0143821D03*
X0047824Y0119621D03*
X0052824Y0119621D03*
X0057824Y0119621D03*
X0062824Y0119621D03*
X0067824Y0119621D03*
X0072824Y0119621D03*
X0077824Y0119621D03*
D25*
X0057902Y0303965D03*
X0084477Y0307115D03*
X0111249Y0303965D03*
D26*
X0097863Y0292154D03*
X0097863Y0282312D03*
X0071091Y0282509D03*
X0071091Y0292154D03*
D27*
X0064950Y0205387D02*
X0064950Y0199787D01*
X0054950Y0199787D02*
X0054950Y0205387D01*
X0044950Y0205387D02*
X0044950Y0199787D01*
X0044950Y0185702D02*
X0044950Y0180102D01*
X0054950Y0180102D02*
X0054950Y0185702D01*
X0064950Y0185702D02*
X0064950Y0180102D01*
X0064950Y0166017D02*
X0064950Y0160417D01*
X0054950Y0160417D02*
X0054950Y0166017D01*
X0044950Y0166017D02*
X0044950Y0160417D01*
X0089551Y0140658D02*
X0095151Y0140658D01*
X0095151Y0130658D02*
X0089551Y0130658D01*
X0109236Y0130658D02*
X0114836Y0130658D01*
X0114836Y0140658D02*
X0109236Y0140658D01*
X0085309Y0050107D02*
X0079709Y0050107D01*
X0079709Y0040107D02*
X0085309Y0040107D01*
X0063655Y0040107D02*
X0058055Y0040107D01*
X0058055Y0050107D02*
X0063655Y0050107D01*
D28*
X0193598Y0278046D02*
X0193598Y0288546D01*
X0209148Y0314792D02*
X0219648Y0314792D01*
X0235265Y0288546D02*
X0235265Y0278046D01*
X0264465Y0278046D02*
X0264465Y0288546D01*
X0280015Y0314792D02*
X0290515Y0314792D01*
X0306131Y0288546D02*
X0306131Y0278046D01*
D29*
X0031328Y0060855D02*
X0031328Y0013611D01*
X0031330Y0013421D01*
X0031337Y0013231D01*
X0031349Y0013041D01*
X0031365Y0012851D01*
X0031385Y0012662D01*
X0031411Y0012473D01*
X0031440Y0012285D01*
X0031475Y0012098D01*
X0031514Y0011912D01*
X0031557Y0011727D01*
X0031605Y0011542D01*
X0031657Y0011359D01*
X0031713Y0011178D01*
X0031774Y0010998D01*
X0031840Y0010819D01*
X0031909Y0010642D01*
X0031983Y0010466D01*
X0032061Y0010293D01*
X0032144Y0010121D01*
X0032230Y0009952D01*
X0032320Y0009784D01*
X0032415Y0009619D01*
X0032513Y0009456D01*
X0032616Y0009296D01*
X0032722Y0009138D01*
X0032832Y0008983D01*
X0032945Y0008830D01*
X0033063Y0008680D01*
X0033184Y0008534D01*
X0033308Y0008390D01*
X0033436Y0008249D01*
X0033567Y0008111D01*
X0033702Y0007976D01*
X0033840Y0007845D01*
X0033981Y0007717D01*
X0034125Y0007593D01*
X0034271Y0007472D01*
X0034421Y0007354D01*
X0034574Y0007241D01*
X0034729Y0007131D01*
X0034887Y0007025D01*
X0035047Y0006922D01*
X0035210Y0006824D01*
X0035375Y0006729D01*
X0035543Y0006639D01*
X0035712Y0006553D01*
X0035884Y0006470D01*
X0036057Y0006392D01*
X0036233Y0006318D01*
X0036410Y0006249D01*
X0036589Y0006183D01*
X0036769Y0006122D01*
X0036950Y0006066D01*
X0037133Y0006014D01*
X0037318Y0005966D01*
X0037503Y0005923D01*
X0037689Y0005884D01*
X0037876Y0005849D01*
X0038064Y0005820D01*
X0038253Y0005794D01*
X0038442Y0005774D01*
X0038632Y0005758D01*
X0038822Y0005746D01*
X0039012Y0005739D01*
X0039202Y0005737D01*
X0043139Y0005737D01*
X0078572Y0005737D01*
X0077942Y0006367D01*
X0077942Y0017548D01*
X0078572Y0005737D02*
X0117942Y0005737D01*
X0117942Y0017548D01*
X0117942Y0005737D02*
X0157312Y0005737D01*
X0157942Y0006367D01*
X0157942Y0017548D01*
X0157942Y0051013D01*
X0157745Y0051209D01*
X0145501Y0051209D01*
X0145501Y0106131D01*
X0136839Y0114792D01*
X0125816Y0114792D01*
X0169123Y0076603D02*
X0169320Y0076603D01*
X0171091Y0064792D02*
X0157312Y0051013D01*
X0167942Y0045894D02*
X0171091Y0049044D01*
X0167942Y0045894D02*
X0167942Y0017548D01*
X0177942Y0017548D02*
X0177942Y0051957D01*
X0190776Y0064792D01*
X0220107Y0064792D01*
X0220304Y0064595D01*
X0220304Y0073257D01*
X0220304Y0100225D01*
X0220304Y0139398D01*
X0200619Y0139398D01*
X0220304Y0073257D02*
X0243926Y0073257D01*
X0232115Y0056918D02*
X0220501Y0056918D01*
X0220304Y0057115D01*
X0232115Y0056918D02*
X0240580Y0048454D01*
X0243926Y0048454D01*
X0279359Y0048454D01*
X0279359Y0072666D02*
X0281328Y0072666D01*
X0291170Y0072666D01*
X0302981Y0072666D01*
X0314792Y0072666D01*
X0314792Y0108099D01*
X0342351Y0108099D01*
X0373847Y0108099D01*
X0405343Y0108099D01*
X0430934Y0074635D02*
X0436839Y0074635D01*
X0436839Y0186839D01*
X0436839Y0277391D01*
X0436833Y0277867D01*
X0436816Y0278342D01*
X0436787Y0278817D01*
X0436747Y0279291D01*
X0436695Y0279764D01*
X0436632Y0280235D01*
X0436558Y0280705D01*
X0436472Y0281173D01*
X0436375Y0281639D01*
X0436267Y0282102D01*
X0436148Y0282562D01*
X0436017Y0283020D01*
X0435876Y0283474D01*
X0435723Y0283925D01*
X0435560Y0284371D01*
X0435386Y0284814D01*
X0435201Y0285252D01*
X0435006Y0285686D01*
X0434800Y0286115D01*
X0434584Y0286539D01*
X0434358Y0286958D01*
X0434122Y0287371D01*
X0433876Y0287778D01*
X0433620Y0288179D01*
X0433354Y0288573D01*
X0433079Y0288962D01*
X0432795Y0289343D01*
X0432502Y0289717D01*
X0432200Y0290085D01*
X0431888Y0290445D01*
X0431569Y0290797D01*
X0431241Y0291141D01*
X0430904Y0291478D01*
X0430560Y0291806D01*
X0430208Y0292125D01*
X0429848Y0292437D01*
X0429480Y0292739D01*
X0429106Y0293032D01*
X0428725Y0293316D01*
X0428336Y0293591D01*
X0427942Y0293857D01*
X0427541Y0294113D01*
X0427134Y0294359D01*
X0426721Y0294595D01*
X0426302Y0294821D01*
X0425878Y0295037D01*
X0425449Y0295243D01*
X0425015Y0295438D01*
X0424577Y0295623D01*
X0424134Y0295797D01*
X0423688Y0295960D01*
X0423237Y0296113D01*
X0422783Y0296254D01*
X0422325Y0296385D01*
X0421865Y0296504D01*
X0421402Y0296612D01*
X0420936Y0296709D01*
X0420468Y0296795D01*
X0419998Y0296869D01*
X0419527Y0296932D01*
X0419054Y0296984D01*
X0418580Y0297024D01*
X0418105Y0297053D01*
X0417630Y0297070D01*
X0417154Y0297076D01*
X0405343Y0297076D01*
X0324635Y0297076D01*
X0326839Y0296839D01*
X0326839Y0263217D01*
X0324635Y0297076D02*
X0285265Y0297076D01*
X0285265Y0314792D01*
X0285265Y0297076D02*
X0214398Y0297076D01*
X0214398Y0314792D01*
X0214398Y0297076D02*
X0151406Y0297076D01*
X0084477Y0297076D01*
X0031328Y0297076D01*
X0030852Y0297070D01*
X0030377Y0297053D01*
X0029902Y0297024D01*
X0029428Y0296984D01*
X0028955Y0296932D01*
X0028484Y0296869D01*
X0028014Y0296795D01*
X0027546Y0296709D01*
X0027080Y0296612D01*
X0026617Y0296504D01*
X0026157Y0296385D01*
X0025699Y0296254D01*
X0025245Y0296113D01*
X0024794Y0295960D01*
X0024348Y0295797D01*
X0023905Y0295623D01*
X0023467Y0295438D01*
X0023033Y0295243D01*
X0022604Y0295037D01*
X0022180Y0294821D01*
X0021761Y0294595D01*
X0021348Y0294359D01*
X0020941Y0294113D01*
X0020540Y0293857D01*
X0020146Y0293591D01*
X0019757Y0293316D01*
X0019376Y0293032D01*
X0019002Y0292739D01*
X0018634Y0292437D01*
X0018274Y0292125D01*
X0017922Y0291806D01*
X0017578Y0291478D01*
X0017241Y0291141D01*
X0016913Y0290797D01*
X0016594Y0290445D01*
X0016282Y0290085D01*
X0015980Y0289717D01*
X0015687Y0289343D01*
X0015403Y0288962D01*
X0015128Y0288573D01*
X0014862Y0288179D01*
X0014606Y0287778D01*
X0014360Y0287371D01*
X0014124Y0286958D01*
X0013898Y0286539D01*
X0013682Y0286115D01*
X0013476Y0285686D01*
X0013281Y0285252D01*
X0013096Y0284814D01*
X0012922Y0284371D01*
X0012759Y0283925D01*
X0012606Y0283474D01*
X0012465Y0283020D01*
X0012334Y0282562D01*
X0012215Y0282102D01*
X0012107Y0281639D01*
X0012010Y0281173D01*
X0011924Y0280705D01*
X0011850Y0280235D01*
X0011787Y0279764D01*
X0011735Y0279291D01*
X0011695Y0278817D01*
X0011666Y0278342D01*
X0011649Y0277867D01*
X0011643Y0277391D01*
X0011643Y0220304D01*
X0011643Y0074635D01*
X0017548Y0074635D01*
X0017881Y0074631D01*
X0018214Y0074619D01*
X0018546Y0074599D01*
X0018878Y0074571D01*
X0019209Y0074535D01*
X0019539Y0074490D01*
X0019868Y0074438D01*
X0020196Y0074378D01*
X0020522Y0074310D01*
X0020846Y0074235D01*
X0021168Y0074151D01*
X0021488Y0074060D01*
X0021806Y0073961D01*
X0022122Y0073854D01*
X0022434Y0073740D01*
X0022744Y0073618D01*
X0023051Y0073488D01*
X0023355Y0073352D01*
X0023655Y0073208D01*
X0023952Y0073057D01*
X0024245Y0072898D01*
X0024534Y0072733D01*
X0024819Y0072561D01*
X0025100Y0072382D01*
X0025376Y0072196D01*
X0025648Y0072003D01*
X0025915Y0071804D01*
X0026177Y0071599D01*
X0026434Y0071387D01*
X0026686Y0071169D01*
X0026932Y0070946D01*
X0027173Y0070716D01*
X0027409Y0070480D01*
X0027639Y0070239D01*
X0027862Y0069993D01*
X0028080Y0069741D01*
X0028292Y0069484D01*
X0028497Y0069222D01*
X0028696Y0068955D01*
X0028889Y0068683D01*
X0029075Y0068407D01*
X0029254Y0068126D01*
X0029426Y0067841D01*
X0029591Y0067552D01*
X0029750Y0067259D01*
X0029901Y0066962D01*
X0030045Y0066662D01*
X0030181Y0066358D01*
X0030311Y0066051D01*
X0030433Y0065741D01*
X0030547Y0065429D01*
X0030654Y0065113D01*
X0030753Y0064795D01*
X0030844Y0064475D01*
X0030928Y0064153D01*
X0031003Y0063829D01*
X0031071Y0063503D01*
X0031131Y0063175D01*
X0031183Y0062846D01*
X0031228Y0062516D01*
X0031264Y0062185D01*
X0031292Y0061853D01*
X0031312Y0061521D01*
X0031324Y0061188D01*
X0031328Y0060855D01*
X0011643Y0108099D02*
X0011643Y0135658D01*
X0011643Y0182902D01*
X0011643Y0206328D01*
X0011643Y0214398D01*
X0011643Y0220304D01*
X0011643Y0267548D01*
X0145304Y0210461D02*
X0145501Y0210461D01*
X0145501Y0051209D02*
X0123847Y0051209D01*
X0157312Y0005737D02*
X0255737Y0005737D01*
X0409280Y0005737D01*
X0409470Y0005739D01*
X0409660Y0005746D01*
X0409850Y0005758D01*
X0410040Y0005774D01*
X0410229Y0005794D01*
X0410418Y0005820D01*
X0410606Y0005849D01*
X0410793Y0005884D01*
X0410979Y0005923D01*
X0411164Y0005966D01*
X0411349Y0006014D01*
X0411532Y0006066D01*
X0411713Y0006122D01*
X0411893Y0006183D01*
X0412072Y0006249D01*
X0412249Y0006318D01*
X0412425Y0006392D01*
X0412598Y0006470D01*
X0412770Y0006553D01*
X0412939Y0006639D01*
X0413107Y0006729D01*
X0413272Y0006824D01*
X0413435Y0006922D01*
X0413595Y0007025D01*
X0413753Y0007131D01*
X0413908Y0007241D01*
X0414061Y0007354D01*
X0414211Y0007472D01*
X0414357Y0007593D01*
X0414501Y0007717D01*
X0414642Y0007845D01*
X0414780Y0007976D01*
X0414915Y0008111D01*
X0415046Y0008249D01*
X0415174Y0008390D01*
X0415298Y0008534D01*
X0415419Y0008680D01*
X0415537Y0008830D01*
X0415650Y0008983D01*
X0415760Y0009138D01*
X0415866Y0009296D01*
X0415969Y0009456D01*
X0416067Y0009619D01*
X0416162Y0009784D01*
X0416252Y0009952D01*
X0416338Y0010121D01*
X0416421Y0010293D01*
X0416499Y0010466D01*
X0416573Y0010642D01*
X0416642Y0010819D01*
X0416708Y0010998D01*
X0416769Y0011178D01*
X0416825Y0011359D01*
X0416877Y0011542D01*
X0416925Y0011727D01*
X0416968Y0011912D01*
X0417007Y0012098D01*
X0417042Y0012285D01*
X0417071Y0012473D01*
X0417097Y0012662D01*
X0417117Y0012851D01*
X0417133Y0013041D01*
X0417145Y0013231D01*
X0417152Y0013421D01*
X0417154Y0013611D01*
X0417154Y0049044D01*
X0417154Y0060855D01*
X0417158Y0061188D01*
X0417170Y0061521D01*
X0417190Y0061853D01*
X0417218Y0062185D01*
X0417254Y0062516D01*
X0417299Y0062846D01*
X0417351Y0063175D01*
X0417411Y0063503D01*
X0417479Y0063829D01*
X0417554Y0064153D01*
X0417638Y0064475D01*
X0417729Y0064795D01*
X0417828Y0065113D01*
X0417935Y0065429D01*
X0418049Y0065741D01*
X0418171Y0066051D01*
X0418301Y0066358D01*
X0418437Y0066662D01*
X0418581Y0066962D01*
X0418732Y0067259D01*
X0418891Y0067552D01*
X0419056Y0067841D01*
X0419228Y0068126D01*
X0419407Y0068407D01*
X0419593Y0068683D01*
X0419786Y0068955D01*
X0419985Y0069222D01*
X0420190Y0069484D01*
X0420402Y0069741D01*
X0420620Y0069993D01*
X0420843Y0070239D01*
X0421073Y0070480D01*
X0421309Y0070716D01*
X0421550Y0070946D01*
X0421796Y0071169D01*
X0422048Y0071387D01*
X0422305Y0071599D01*
X0422567Y0071804D01*
X0422834Y0072003D01*
X0423106Y0072196D01*
X0423382Y0072382D01*
X0423663Y0072561D01*
X0423948Y0072733D01*
X0424237Y0072898D01*
X0424530Y0073057D01*
X0424827Y0073208D01*
X0425127Y0073352D01*
X0425431Y0073488D01*
X0425738Y0073618D01*
X0426048Y0073740D01*
X0426360Y0073854D01*
X0426676Y0073961D01*
X0426994Y0074060D01*
X0427314Y0074151D01*
X0427636Y0074235D01*
X0427960Y0074310D01*
X0428286Y0074378D01*
X0428614Y0074438D01*
X0428943Y0074490D01*
X0429273Y0074535D01*
X0429604Y0074571D01*
X0429936Y0074599D01*
X0430268Y0074619D01*
X0430601Y0074631D01*
X0430934Y0074635D01*
D30*
X0408099Y0065580D02*
X0408099Y0084477D01*
X0405343Y0087233D01*
X0405343Y0098099D01*
X0405343Y0108099D02*
X0417154Y0119910D01*
X0417154Y0167154D01*
X0409083Y0175225D01*
X0405343Y0175225D01*
X0405540Y0175028D01*
X0405343Y0182706D02*
X0405343Y0243808D01*
X0385934Y0263217D01*
X0375934Y0253296D02*
X0375934Y0212312D01*
X0385934Y0183769D02*
X0385934Y0243217D01*
X0356288Y0243178D02*
X0356288Y0181682D01*
X0354162Y0179556D01*
X0338414Y0171091D02*
X0338414Y0135658D01*
X0342154Y0131918D01*
X0346288Y0131918D01*
X0365973Y0131918D01*
X0373650Y0131918D01*
X0373847Y0131721D01*
X0365973Y0139398D02*
X0365776Y0139595D01*
X0358099Y0139595D01*
X0365973Y0139398D02*
X0385658Y0139398D01*
X0385658Y0131918D02*
X0405343Y0131918D01*
X0409477Y0131918D01*
X0411249Y0133690D01*
X0411249Y0145501D01*
X0405343Y0139398D02*
X0397076Y0139398D01*
X0381721Y0154753D01*
X0395501Y0172863D02*
X0395501Y0184871D01*
X0385934Y0183769D02*
X0381721Y0179556D01*
X0395501Y0172863D02*
X0405343Y0163020D01*
X0405343Y0155540D02*
X0405540Y0155343D01*
X0411249Y0155343D01*
X0405343Y0131918D02*
X0405343Y0118099D01*
X0373847Y0098099D02*
X0373847Y0087233D01*
X0376603Y0084477D01*
X0376603Y0065580D01*
X0375816Y0064792D01*
X0385658Y0064792D02*
X0395501Y0064792D01*
X0407312Y0064792D02*
X0408099Y0065580D01*
X0389595Y0076603D02*
X0389595Y0079359D01*
X0394713Y0084477D01*
X0364005Y0064792D02*
X0354162Y0064792D01*
X0345107Y0065580D02*
X0345107Y0084477D01*
X0342351Y0087233D01*
X0342351Y0098099D01*
X0330540Y0092351D02*
X0330540Y0085658D01*
X0331721Y0084477D01*
X0330540Y0092351D02*
X0326603Y0096288D01*
X0322666Y0096288D01*
X0306918Y0100225D02*
X0302981Y0096288D01*
X0302981Y0092154D01*
X0302784Y0092351D01*
X0299044Y0092351D01*
X0291170Y0084477D01*
X0291170Y0081721D01*
X0279359Y0084477D02*
X0275422Y0080540D01*
X0271485Y0080540D01*
X0264202Y0073257D01*
X0243926Y0073257D01*
X0239989Y0081721D02*
X0226209Y0081721D01*
X0208493Y0090225D02*
X0200422Y0082154D01*
X0200422Y0076603D01*
X0192942Y0076603D02*
X0184871Y0076603D01*
X0183060Y0082863D02*
X0183060Y0090225D01*
X0203060Y0110225D01*
X0208493Y0110225D01*
X0208493Y0100225D02*
X0220304Y0100225D01*
X0228178Y0104162D02*
X0235855Y0104162D01*
X0236052Y0104359D01*
X0236052Y0110225D02*
X0236052Y0111839D01*
X0236052Y0110225D02*
X0259674Y0110225D01*
X0259674Y0127784D02*
X0249989Y0137469D01*
X0249674Y0137469D01*
X0259674Y0127784D02*
X0298847Y0127784D01*
X0302981Y0131918D01*
X0320698Y0131918D01*
X0320698Y0129753D01*
X0324635Y0125816D01*
X0354162Y0125816D01*
X0346288Y0139398D02*
X0346288Y0146879D01*
X0354162Y0154753D01*
X0330540Y0139595D02*
X0330343Y0139398D01*
X0322666Y0139398D01*
X0322666Y0155540D01*
X0322666Y0163020D02*
X0322272Y0163020D01*
X0302391Y0182902D01*
X0291170Y0174831D02*
X0291170Y0198650D01*
X0299044Y0206524D01*
X0302391Y0206524D01*
X0327194Y0206524D02*
X0336564Y0213926D01*
X0336564Y0253257D01*
X0344202Y0227824D02*
X0344202Y0199910D01*
X0327194Y0182902D01*
X0302981Y0163020D02*
X0291170Y0174831D01*
X0291367Y0167154D02*
X0291367Y0163020D01*
X0299044Y0155343D01*
X0302784Y0155343D01*
X0302981Y0155540D01*
X0291367Y0167154D02*
X0224241Y0167154D01*
X0212430Y0155343D01*
X0212430Y0147469D01*
X0200619Y0131918D02*
X0200619Y0129753D01*
X0214398Y0121879D02*
X0165186Y0121879D01*
X0161249Y0129753D02*
X0161249Y0131918D01*
X0161249Y0139398D02*
X0165934Y0144083D01*
X0165934Y0152981D01*
X0170934Y0152981D02*
X0170934Y0141406D01*
X0169123Y0139595D01*
X0155934Y0152981D02*
X0155934Y0160658D01*
X0153375Y0163217D01*
X0117942Y0163217D01*
X0114005Y0167154D01*
X0102194Y0167154D01*
X0094320Y0175028D01*
X0062824Y0175028D01*
X0054950Y0182902D01*
X0058887Y0190776D02*
X0153375Y0190776D01*
X0155934Y0188217D01*
X0155934Y0181328D01*
X0160934Y0181328D02*
X0160934Y0190461D01*
X0161249Y0190776D01*
X0165186Y0194713D02*
X0173060Y0194713D01*
X0175934Y0191839D01*
X0175934Y0181328D01*
X0180934Y0181328D02*
X0180934Y0178965D01*
X0184871Y0175028D01*
X0192548Y0175028D01*
X0196682Y0179162D01*
X0212430Y0179162D01*
X0216367Y0171091D02*
X0228178Y0171091D01*
X0236052Y0178965D01*
X0236052Y0198847D01*
X0236052Y0206328D02*
X0258060Y0206328D01*
X0259674Y0204713D01*
X0224241Y0186839D02*
X0196682Y0186839D01*
X0196682Y0198650D01*
X0171091Y0198650D01*
X0171091Y0210461D01*
X0171091Y0234083D01*
X0173060Y0232115D01*
X0178965Y0232115D01*
X0184871Y0238020D02*
X0184871Y0210461D01*
X0186839Y0202587D02*
X0180934Y0202587D01*
X0186839Y0202587D02*
X0196682Y0212430D01*
X0184871Y0238020D02*
X0176997Y0245894D01*
X0157115Y0245894D01*
X0145304Y0257706D01*
X0137824Y0257706D02*
X0133887Y0253769D01*
X0122469Y0253769D01*
X0097863Y0253769D02*
X0097863Y0282312D01*
X0097863Y0292154D02*
X0084477Y0292154D01*
X0084477Y0297076D01*
X0084477Y0292154D02*
X0071091Y0292154D01*
X0071091Y0282509D02*
X0073060Y0282509D01*
X0084477Y0271091D01*
X0084477Y0236052D01*
X0094320Y0226209D01*
X0097666Y0226209D01*
X0080540Y0214398D02*
X0011643Y0214398D01*
X0011643Y0206328D02*
X0023454Y0206328D01*
X0023454Y0198847D02*
X0041209Y0198847D01*
X0044950Y0202587D01*
X0054950Y0202587D02*
X0054950Y0194713D01*
X0058887Y0190776D01*
X0068690Y0198847D02*
X0086446Y0198847D01*
X0086446Y0206328D02*
X0118139Y0206328D01*
X0121879Y0202587D01*
X0121879Y0198650D01*
X0145501Y0198650D01*
X0145304Y0198847D01*
X0145304Y0210461D01*
X0137824Y0210461D02*
X0137627Y0210265D01*
X0137627Y0202587D01*
X0137824Y0210461D02*
X0137627Y0210658D01*
X0137627Y0222272D01*
X0141564Y0226209D01*
X0149438Y0226209D01*
X0157312Y0234083D01*
X0159280Y0234083D01*
X0153375Y0241957D02*
X0153178Y0241957D01*
X0145304Y0234083D01*
X0137824Y0234083D02*
X0129950Y0226209D01*
X0122469Y0226209D01*
X0145501Y0198650D02*
X0157312Y0198650D01*
X0161249Y0198650D02*
X0165186Y0194713D01*
X0161249Y0198650D02*
X0161249Y0208493D01*
X0159280Y0210461D01*
X0165934Y0181328D02*
X0165934Y0171839D01*
X0165186Y0171091D01*
X0170934Y0173217D02*
X0173060Y0171091D01*
X0170934Y0173217D02*
X0170934Y0181328D01*
X0150934Y0181328D02*
X0150934Y0167627D01*
X0151406Y0167154D01*
X0149438Y0159280D02*
X0150934Y0157784D01*
X0150934Y0152981D01*
X0140934Y0152981D02*
X0140934Y0138257D01*
X0141564Y0137627D01*
X0135934Y0137902D02*
X0135934Y0152981D01*
X0130934Y0152981D02*
X0130934Y0138808D01*
X0129753Y0137627D01*
X0135658Y0137627D02*
X0135934Y0137902D01*
X0125816Y0129753D02*
X0125816Y0151406D01*
X0062824Y0151406D01*
X0052824Y0151406D01*
X0052824Y0143821D01*
X0047824Y0143821D02*
X0035265Y0143821D01*
X0023939Y0143821D01*
X0023454Y0143335D01*
X0023454Y0135855D02*
X0023454Y0133690D01*
X0029359Y0127784D01*
X0027391Y0121879D02*
X0027391Y0119713D01*
X0019517Y0114005D01*
X0019517Y0108099D01*
X0033296Y0094320D01*
X0037233Y0094320D01*
X0047076Y0094320D02*
X0047824Y0095068D01*
X0047824Y0119621D01*
X0052824Y0119621D02*
X0052981Y0119464D01*
X0052824Y0119621D02*
X0057824Y0119621D01*
X0057824Y0114910D01*
X0054950Y0112036D01*
X0054950Y0080883D01*
X0060855Y0074977D01*
X0045107Y0059229D01*
X0045107Y0058690D01*
X0047076Y0052981D02*
X0096288Y0052981D01*
X0098257Y0051013D01*
X0098257Y0051209D02*
X0104359Y0051209D01*
X0106131Y0052981D01*
X0106131Y0074635D01*
X0114005Y0082509D01*
X0114005Y0112036D01*
X0116761Y0114792D01*
X0125816Y0114792D01*
X0125816Y0101406D02*
X0125816Y0086249D01*
X0125816Y0078769D02*
X0134674Y0078769D01*
X0137627Y0081721D01*
X0125816Y0078769D02*
X0125816Y0062824D01*
X0123847Y0051209D02*
X0124044Y0051013D01*
X0125816Y0051013D01*
X0147942Y0035737D02*
X0147942Y0017548D01*
X0147942Y0035737D02*
X0151406Y0039202D01*
X0157312Y0051013D02*
X0157942Y0051643D01*
X0157942Y0065225D01*
X0169320Y0076603D01*
X0169320Y0090225D01*
X0163060Y0090225D01*
X0176800Y0076603D02*
X0183060Y0082863D01*
X0234083Y0121879D02*
X0234083Y0149635D01*
X0236052Y0151603D01*
X0236052Y0157469D02*
X0236052Y0159083D01*
X0236052Y0157469D02*
X0259674Y0157469D01*
X0295107Y0135658D02*
X0298847Y0139398D01*
X0302981Y0139398D01*
X0320698Y0131918D02*
X0322666Y0131918D01*
X0302981Y0115776D02*
X0298847Y0119910D01*
X0295107Y0119910D01*
X0302981Y0108296D02*
X0307115Y0108296D01*
X0310855Y0113217D01*
X0302981Y0108296D02*
X0279359Y0084674D01*
X0279359Y0084477D01*
X0302981Y0084674D02*
X0302981Y0072666D01*
X0302981Y0064595D01*
X0302981Y0057115D02*
X0294320Y0048454D01*
X0279359Y0048454D01*
X0322666Y0064792D02*
X0332509Y0064792D01*
X0344320Y0064792D02*
X0345107Y0065580D01*
X0358099Y0047076D02*
X0366170Y0047076D01*
X0373650Y0047076D02*
X0387627Y0047076D01*
X0358099Y0047076D02*
X0340383Y0029359D01*
X0340383Y0015580D01*
X0354162Y0084477D02*
X0363217Y0084477D01*
X0278572Y0253769D02*
X0209083Y0253769D01*
X0184280Y0253769D02*
X0172863Y0253769D01*
X0168926Y0257706D01*
X0161446Y0257706D02*
X0157509Y0261643D01*
X0153375Y0261643D01*
X0097863Y0253769D02*
X0097666Y0253769D01*
X0080540Y0214398D02*
X0086446Y0208493D01*
X0068690Y0198847D02*
X0064950Y0202587D01*
X0044950Y0182902D02*
X0011643Y0182902D01*
X0023454Y0166957D02*
X0044950Y0166957D01*
X0044950Y0163217D01*
X0035265Y0151406D02*
X0035265Y0143821D01*
X0027391Y0151406D02*
X0023454Y0155343D01*
X0023454Y0159477D01*
X0011839Y0135855D02*
X0011643Y0135658D01*
X0011643Y0135855D01*
X0023454Y0125816D02*
X0027391Y0121879D01*
X0027391Y0119910D02*
X0027391Y0119713D01*
X0027391Y0112233D02*
X0039202Y0112233D01*
X0056918Y0118716D02*
X0057824Y0119621D01*
X0062824Y0119621D02*
X0062824Y0125816D01*
X0056918Y0131721D01*
X0035265Y0131721D01*
X0033296Y0133690D01*
X0062824Y0143821D02*
X0062824Y0151406D01*
X0072824Y0143821D02*
X0072824Y0119621D01*
X0072666Y0119464D01*
X0072666Y0114005D01*
X0074438Y0112233D01*
X0090383Y0112233D01*
X0090383Y0082851D01*
X0082509Y0074977D01*
X0082509Y0074438D01*
X0098257Y0058690D01*
X0106131Y0094320D02*
X0106131Y0114005D01*
X0098257Y0119713D01*
X0098257Y0121879D01*
X0102194Y0125816D01*
X0098454Y0119910D02*
X0098257Y0119713D01*
X0098257Y0112233D02*
X0090383Y0112233D01*
X0086446Y0117942D02*
X0084766Y0119621D01*
X0077824Y0119621D01*
X0067824Y0119621D02*
X0067824Y0108662D01*
X0082509Y0093977D01*
X0089477Y0130658D02*
X0092351Y0130658D01*
X0089477Y0130658D02*
X0084477Y0135658D01*
X0084477Y0141564D01*
X0082220Y0143821D01*
X0077824Y0143821D01*
X0090580Y0155343D02*
X0092351Y0155343D01*
X0090580Y0155343D02*
X0086446Y0159477D01*
X0086446Y0166957D02*
X0064950Y0166957D01*
X0064950Y0163217D01*
X0121879Y0186839D02*
X0125934Y0182784D01*
X0125934Y0181328D01*
X0145934Y0181328D02*
X0145934Y0173493D01*
X0145501Y0173060D01*
X0125934Y0152981D02*
X0125816Y0152981D01*
X0125816Y0151406D01*
X0037233Y0074635D02*
X0037233Y0051013D01*
X0044910Y0051013D01*
X0045107Y0051209D01*
X0045107Y0051013D02*
X0047076Y0052981D01*
X0278572Y0253769D02*
X0306131Y0283296D01*
D31*
X0344202Y0227824D03*
X0375934Y0212312D03*
X0395501Y0184871D03*
X0411249Y0155343D03*
X0411249Y0145501D03*
X0373847Y0131721D03*
X0358099Y0139595D03*
X0354162Y0125816D03*
X0330540Y0139595D03*
X0338414Y0171091D03*
X0295107Y0135658D03*
X0295107Y0119910D03*
X0310855Y0113217D03*
X0306918Y0100225D03*
X0322666Y0096288D03*
X0354162Y0084477D03*
X0354162Y0064792D03*
X0322666Y0064792D03*
X0291170Y0081721D03*
X0239989Y0081721D03*
X0226209Y0081721D03*
X0228178Y0104162D03*
X0241957Y0119910D03*
X0234083Y0121879D03*
X0214398Y0121879D03*
X0212430Y0147469D03*
X0216367Y0171091D03*
X0224241Y0186839D03*
X0184871Y0210461D03*
X0180934Y0202587D03*
X0171091Y0198650D03*
X0161249Y0190776D03*
X0157312Y0198650D03*
X0137627Y0202587D03*
X0121879Y0198650D03*
X0121879Y0186839D03*
X0145501Y0173060D03*
X0149438Y0159280D03*
X0165186Y0171091D03*
X0173060Y0171091D03*
X0169123Y0139595D03*
X0165186Y0121879D03*
X0141564Y0137627D03*
X0135658Y0137627D03*
X0129753Y0137627D03*
X0102194Y0125816D03*
X0086446Y0117942D03*
X0114005Y0112036D03*
X0137627Y0081721D03*
X0184871Y0076603D03*
X0151406Y0039202D03*
X0054950Y0112036D03*
X0039202Y0112233D03*
X0029359Y0127784D03*
X0023454Y0125816D03*
X0033296Y0133690D03*
X0035265Y0151406D03*
X0027391Y0151406D03*
X0092351Y0155343D03*
X0047076Y0094320D03*
X0178965Y0232115D03*
X0153375Y0241957D03*
X0153375Y0261643D03*
X0389595Y0076603D03*
X0385658Y0064792D03*
X0387627Y0047076D03*
X0340383Y0015580D03*
D32*
X0200619Y0129753D02*
X0180934Y0129753D01*
X0161249Y0129753D01*
X0125816Y0129753D01*
X0125816Y0114792D01*
X0180934Y0141564D02*
X0180934Y0152981D01*
X0180934Y0163217D01*
X0161249Y0163217D01*
X0157312Y0167154D01*
X0151406Y0167154D01*
X0137627Y0167154D01*
X0180934Y0141564D02*
X0198454Y0141564D01*
X0200619Y0139398D01*
D33*
X0241957Y0119910D02*
X0295107Y0119910D01*
X0281328Y0073257D02*
X0281328Y0072666D01*
X0281328Y0073257D02*
X0279359Y0073257D01*
X0224241Y0186839D02*
X0212430Y0186839D01*
X0212430Y0186643D01*
X0196682Y0186643D02*
X0196682Y0186839D01*
D34*
X0137627Y0167154D03*
X0171091Y0064792D03*
X0171091Y0049044D03*
X0232115Y0056918D03*
X0291170Y0072666D03*
X0255737Y0005737D03*
X0417154Y0049044D03*
X0436839Y0186839D03*
X0405343Y0297076D03*
X0151406Y0297076D03*
X0011643Y0220304D03*
X0043139Y0005737D03*
M02*
