%
M48
M72
T01C0.02362
T02C0.03200
T03C0.03543
T04C0.03600
T05C0.03937
T06C0.04000
T07C0.05512
T08C0.05906
T09C0.07000
T10C0.09055
T11C0.11811
T12C0.15748
%
T01
X43139Y5737
X137627Y81721
X171091Y64792
X184871Y76603
X171091Y49044
X151406Y39202
X226209Y81721
X239989Y81721
X228178Y104162
X241957Y119910
X234083Y121879
X214398Y121879
X212430Y147469
X216367Y171091
X224241Y186839
X184871Y210461
X180934Y202587
X171091Y198650
X161249Y190776
X157312Y198650
X137627Y202587
X121879Y198650
X121879Y186839
X137627Y167154
X145501Y173060
X149438Y159280
X165186Y171091
X173060Y171091
X169123Y139595
X165186Y121879
X141564Y137627
X135658Y137627
X129753Y137627
X102194Y125816
X86446Y117942
X114005Y112036
X92351Y155343
X54950Y112036
X39202Y112233
X29359Y127784
X23454Y125816
X33296Y133690
X35265Y151406
X27391Y151406
X47076Y94320
X11643Y220304
X151406Y297076
X153375Y261643
X153375Y241957
X178965Y232115
X295107Y135658
X295107Y119910
X310855Y113217
X306918Y100225
X322666Y96288
X354162Y84477
X354162Y64792
X322666Y64792
X291170Y72666
X291170Y81721
X232115Y56918
X255737Y5737
X340383Y15580
X387627Y47076
X385658Y64792
X389595Y76603
X417154Y49044
X354162Y125816
X358099Y139595
X373847Y131721
X411249Y145501
X411249Y155343
X395501Y184871
X375934Y212312
X344202Y227824
X338414Y171091
X330540Y139595
X436839Y186839
X405343Y297076
T02
X405343Y118099
X405343Y108099
X405343Y98099
X373847Y98099
X373847Y108099
X373847Y118099
X342351Y118099
X342351Y108099
X342351Y98099
X208493Y100225
X208493Y90225
X208493Y110225
X82509Y93977
X82509Y74977
X60855Y74977
X60855Y93977
T03
X71091Y282509
X71091Y292154
X97863Y292154
X97863Y282312
T04
X64950Y202587
X54950Y202587
X44950Y202587
X44950Y182902
X54950Y182902
X64950Y182902
X64950Y163217
X54950Y163217
X44950Y163217
X92351Y140658
X92351Y130658
X112036Y130658
X112036Y140658
X82509Y50107
X82509Y40107
X60855Y40107
X60855Y50107
T05
X37233Y74635
X37233Y94320
X106131Y94320
X106131Y74635
X196682Y212430
X196682Y232115
T06
X249674Y184713
X269674Y184713
X259674Y204713
X259674Y157469
X249674Y137469
X269674Y137469
X259674Y110225
X249674Y90225
X269674Y90225
X183060Y90225
X163060Y90225
X173060Y110225
X177942Y17548
X167942Y17548
X157942Y17548
X147942Y17548
X137942Y17548
X127942Y17548
X117942Y17548
X107942Y17548
X97942Y17548
X87942Y17548
X77942Y17548
X67942Y17548
X57942Y17548
T07
X326839Y243217
X336564Y253257
X326839Y263217
X356288Y263178
X375934Y253296
X385934Y263217
X385934Y243217
X356288Y243178
X375934Y302517
X336524Y302517
X300028Y314792
X270501Y314792
X229162Y314792
X199635Y314792
T08
X214398Y289202
X285265Y289202
T09
X264465Y283296
X235265Y283296
X214398Y314792
X193598Y283296
X285265Y314792
X306131Y283296
T10
X111249Y303965
X84477Y307115
X57902Y303965
T11
X17548Y60855
X430934Y60855
T12
X17548Y21485
X17548Y308887
X430934Y308887
X430934Y21485
M30
