G75*
%MOIN*%
%OFA0B0*%
%FSLAX25Y25*%
%IPPOS*%
%LPD*%
%AMOC8*
5,1,8,0,0,1.08239X$1,22.5*
%
%ADD10C,0.00600*%
%ADD11C,0.00900*%
%ADD12R,0.01181X0.00591*%
%ADD13R,0.02362X0.00591*%
%ADD14R,0.02953X0.00591*%
%ADD15R,0.01772X0.00591*%
%ADD16R,0.06496X0.00591*%
%ADD17R,0.07677X0.00591*%
%ADD18R,0.04134X0.00591*%
%ADD19R,0.09449X0.00591*%
%ADD20R,0.14764X0.00591*%
%ADD21R,0.03543X0.00591*%
%ADD22R,0.15945X0.00591*%
%ADD23R,0.08858X0.00591*%
%ADD24R,0.05906X0.00591*%
%ADD25R,0.00591X0.00591*%
%ADD26R,0.04724X0.00591*%
%ADD27R,0.10039X0.00591*%
%ADD28R,0.07087X0.00591*%
%ADD29R,0.14173X0.00591*%
%ADD30R,0.05315X0.00591*%
%ADD31R,0.08268X0.00591*%
%ADD32R,0.10630X0.00591*%
%ADD33R,0.15354X0.00591*%
%ADD34R,0.11220X0.00591*%
%ADD35R,0.11811X0.00591*%
%ADD36R,0.16535X0.00591*%
%ADD37R,0.13583X0.00591*%
%ADD38R,0.33071X0.00591*%
%ADD39R,0.32480X0.00591*%
%ADD40R,0.30709X0.00591*%
%ADD41R,0.24803X0.00591*%
%ADD42R,0.18307X0.00591*%
%ADD43R,0.18898X0.00591*%
%ADD44R,0.25394X0.00591*%
%ADD45R,0.12402X0.00591*%
%ADD46R,0.40748X0.00591*%
%ADD47R,0.22441X0.00591*%
%ADD48R,0.20669X0.00591*%
%ADD49R,0.20079X0.00591*%
%ADD50R,0.17126X0.00591*%
%ADD51R,0.12992X0.00591*%
%ADD52R,0.37205X0.00591*%
%ADD53R,0.53150X0.00591*%
%ADD54R,0.62008X0.00591*%
%ADD55R,0.28346X0.00591*%
%ADD56R,0.31890X0.00591*%
%ADD57R,0.23031X0.00591*%
%ADD58R,0.17717X0.00591*%
%ADD59R,0.21260X0.00591*%
%ADD60R,0.19488X0.00591*%
%ADD61R,0.23622X0.00591*%
%ADD62R,0.21850X0.00591*%
%ADD63R,0.24213X0.00591*%
%ADD64C,0.00300*%
%ADD65C,0.01181*%
%ADD66C,0.01000*%
%ADD67C,0.00000*%
%ADD68C,0.00500*%
%ADD69C,0.00400*%
%ADD70R,0.05709X0.02953*%
D10*
X0244054Y0229691D02*
X0244054Y0234545D01*
X0245268Y0235758D01*
X0247694Y0235758D01*
X0248908Y0234545D01*
X0248908Y0233331D01*
X0247694Y0232118D01*
X0244054Y0232118D01*
X0244054Y0229691D02*
X0245268Y0228478D01*
X0247694Y0228478D01*
X0248908Y0229691D01*
X0251305Y0228478D02*
X0256158Y0228478D01*
X0253731Y0228478D02*
X0253731Y0235758D01*
X0256158Y0233331D01*
X0258555Y0234545D02*
X0263408Y0229691D01*
X0262195Y0228478D01*
X0259768Y0228478D01*
X0258555Y0229691D01*
X0258555Y0234545D01*
X0259768Y0235758D01*
X0262195Y0235758D01*
X0263408Y0234545D01*
X0263408Y0229691D01*
X0265805Y0228478D02*
X0270659Y0228478D01*
X0265805Y0233331D01*
X0265805Y0234545D01*
X0267019Y0235758D01*
X0269445Y0235758D01*
X0270659Y0234545D01*
D11*
X0235602Y0182462D02*
X0230142Y0182462D01*
X0228322Y0180642D01*
X0228322Y0177002D01*
X0230142Y0175181D01*
X0235602Y0175181D01*
X0235602Y0171541D02*
X0235602Y0182462D01*
X0231962Y0175181D02*
X0228322Y0171541D01*
X0224727Y0173361D02*
X0222906Y0171541D01*
X0217446Y0171541D01*
X0217446Y0178822D01*
X0213851Y0177002D02*
X0212031Y0175181D01*
X0208391Y0175181D01*
X0206571Y0173361D01*
X0208391Y0171541D01*
X0213851Y0171541D01*
X0213851Y0177002D02*
X0212031Y0178822D01*
X0206571Y0178822D01*
X0202976Y0177002D02*
X0201156Y0178822D01*
X0195695Y0178822D01*
X0192100Y0178822D02*
X0190280Y0178822D01*
X0190280Y0171541D01*
X0192100Y0171541D02*
X0188460Y0171541D01*
X0184850Y0173361D02*
X0183030Y0175181D01*
X0177570Y0175181D01*
X0177570Y0177002D02*
X0177570Y0171541D01*
X0183030Y0171541D01*
X0184850Y0173361D01*
X0183030Y0178822D02*
X0179390Y0178822D01*
X0177570Y0177002D01*
X0173975Y0178822D02*
X0168514Y0178822D01*
X0166694Y0177002D01*
X0166694Y0171541D01*
X0173975Y0171541D02*
X0173975Y0178822D01*
X0190280Y0182462D02*
X0190280Y0184282D01*
X0197516Y0175181D02*
X0195695Y0173361D01*
X0197516Y0171541D01*
X0202976Y0171541D01*
X0201156Y0175181D02*
X0202976Y0177002D01*
X0201156Y0175181D02*
X0197516Y0175181D01*
X0192093Y0164597D02*
X0192093Y0162777D01*
X0192093Y0159137D02*
X0192093Y0151856D01*
X0193913Y0151856D02*
X0190273Y0151856D01*
X0186663Y0153676D02*
X0186663Y0157316D01*
X0184842Y0159137D01*
X0179382Y0159137D01*
X0175787Y0157316D02*
X0173967Y0159137D01*
X0170327Y0159137D01*
X0168507Y0157316D01*
X0168507Y0155496D01*
X0175787Y0155496D01*
X0175787Y0153676D02*
X0175787Y0157316D01*
X0175787Y0153676D02*
X0173967Y0151856D01*
X0170327Y0151856D01*
X0179382Y0151856D02*
X0184842Y0151856D01*
X0186663Y0153676D01*
X0192093Y0159137D02*
X0193913Y0159137D01*
X0197508Y0159137D02*
X0201148Y0151856D01*
X0204788Y0159137D01*
X0208391Y0159137D02*
X0210211Y0159137D01*
X0213851Y0155496D01*
X0217446Y0155496D02*
X0224727Y0155496D01*
X0224727Y0153676D02*
X0224727Y0157316D01*
X0222906Y0159137D01*
X0219266Y0159137D01*
X0217446Y0157316D01*
X0217446Y0155496D01*
X0219266Y0151856D02*
X0222906Y0151856D01*
X0224727Y0153676D01*
X0228322Y0153676D02*
X0230142Y0151856D01*
X0233782Y0151856D01*
X0235602Y0153676D01*
X0233782Y0157316D02*
X0230142Y0157316D01*
X0228322Y0155496D01*
X0228322Y0153676D01*
X0233782Y0157316D02*
X0235602Y0159137D01*
X0235602Y0160957D01*
X0233782Y0162777D01*
X0230142Y0162777D01*
X0228322Y0160957D01*
X0213851Y0159137D02*
X0213851Y0151856D01*
X0224727Y0173361D02*
X0224727Y0178822D01*
X0154036Y0160957D02*
X0154036Y0153676D01*
X0152216Y0151856D01*
X0148576Y0151856D01*
X0146756Y0153676D01*
X0143161Y0151856D02*
X0143161Y0159137D01*
X0139521Y0159137D02*
X0137701Y0159137D01*
X0139521Y0159137D02*
X0143161Y0155496D01*
X0146756Y0160957D02*
X0148576Y0162777D01*
X0152216Y0162777D01*
X0154036Y0160957D01*
X0152224Y0171541D02*
X0146763Y0171541D01*
X0144943Y0173361D01*
X0144943Y0175181D01*
X0146763Y0177002D01*
X0152224Y0177002D01*
X0152224Y0182462D02*
X0146763Y0182462D01*
X0144943Y0180642D01*
X0144943Y0178822D01*
X0146763Y0177002D01*
X0141348Y0177002D02*
X0141348Y0173361D01*
X0139528Y0171541D01*
X0135888Y0171541D01*
X0134068Y0175181D02*
X0141348Y0175181D01*
X0141348Y0177002D02*
X0139528Y0178822D01*
X0135888Y0178822D01*
X0134068Y0177002D01*
X0134068Y0175181D01*
X0130473Y0173361D02*
X0128653Y0175181D01*
X0123193Y0175181D01*
X0123193Y0177002D02*
X0123193Y0171541D01*
X0128653Y0171541D01*
X0130473Y0173361D01*
X0128653Y0178822D02*
X0125013Y0178822D01*
X0123193Y0177002D01*
X0119597Y0178822D02*
X0119597Y0171541D01*
X0119597Y0175181D02*
X0115957Y0178822D01*
X0114137Y0178822D01*
X0115942Y0159137D02*
X0115942Y0153676D01*
X0117762Y0151856D01*
X0119582Y0153676D01*
X0121402Y0151856D01*
X0123223Y0153676D01*
X0123223Y0159137D01*
X0126818Y0157316D02*
X0126818Y0155496D01*
X0134098Y0155496D01*
X0134098Y0153676D02*
X0134098Y0157316D01*
X0132278Y0159137D01*
X0128638Y0159137D01*
X0126818Y0157316D01*
X0128638Y0151856D02*
X0132278Y0151856D01*
X0134098Y0153676D01*
X0152224Y0171541D02*
X0152224Y0182462D01*
D12*
X0279064Y0148454D03*
X0279654Y0149044D03*
X0280245Y0151997D03*
X0281426Y0156721D03*
X0288513Y0147272D03*
X0295599Y0141367D03*
X0304457Y0141957D03*
X0305048Y0141367D03*
X0305048Y0140776D03*
X0305048Y0140186D03*
X0305639Y0139595D03*
X0305639Y0139005D03*
X0305639Y0137824D03*
X0305639Y0137233D03*
X0305639Y0136643D03*
X0308591Y0139595D03*
X0308591Y0140186D03*
X0308001Y0149044D03*
X0312725Y0149044D03*
X0315087Y0154950D03*
X0313906Y0156131D03*
X0310954Y0158493D03*
X0306229Y0163808D03*
X0304457Y0164989D03*
X0303867Y0165580D03*
X0302686Y0167351D03*
X0302095Y0166761D03*
X0304457Y0179162D03*
X0300324Y0188611D03*
X0300324Y0189202D03*
X0297371Y0189792D03*
X0297371Y0190383D03*
X0297961Y0191564D03*
X0297961Y0192154D03*
X0297961Y0192745D03*
X0301505Y0193335D03*
X0308001Y0195698D03*
X0312725Y0200422D03*
X0312725Y0201603D03*
X0313316Y0202194D03*
X0315087Y0203375D03*
X0314497Y0200422D03*
X0316269Y0198650D03*
X0319221Y0189202D03*
X0332213Y0201013D03*
X0336938Y0195698D03*
X0340481Y0200422D03*
X0344615Y0197469D03*
X0344615Y0196879D03*
X0313316Y0212233D03*
X0302095Y0205737D03*
X0301505Y0206328D03*
X0299143Y0204556D03*
X0299143Y0203965D03*
X0299143Y0203375D03*
X0299143Y0202784D03*
X0299143Y0202194D03*
X0299143Y0201603D03*
X0299143Y0201013D03*
X0299143Y0200422D03*
X0295599Y0202194D03*
X0295599Y0202784D03*
X0295599Y0203375D03*
X0296190Y0206328D03*
X0294418Y0196879D03*
X0294418Y0196288D03*
X0293828Y0193335D03*
X0293828Y0192745D03*
X0320402Y0165580D03*
X0331032Y0153178D03*
X0330442Y0152587D03*
X0331032Y0151997D03*
X0322174Y0149044D03*
X0321583Y0148454D03*
X0322765Y0142548D03*
X0322174Y0141957D03*
X0322174Y0141367D03*
X0321583Y0140776D03*
X0319221Y0140776D03*
X0319221Y0140186D03*
X0315087Y0128965D03*
X0315087Y0128375D03*
X0310363Y0127194D03*
X0310363Y0120698D03*
X0308001Y0115973D03*
X0320402Y0117745D03*
X0328080Y0127194D03*
X0335757Y0128375D03*
X0339300Y0124241D03*
X0348749Y0135461D03*
X0354654Y0140186D03*
X0361150Y0146091D03*
X0346977Y0144320D03*
X0347568Y0151406D03*
X0349339Y0167351D03*
X0335166Y0139005D03*
X0303276Y0149044D03*
X0302686Y0150225D03*
X0302095Y0151406D03*
X0302095Y0151997D03*
X0302095Y0153178D03*
X0302095Y0153769D03*
D13*
X0303276Y0156131D03*
X0303867Y0147863D03*
X0293237Y0143139D03*
X0279654Y0149635D03*
X0279654Y0150816D03*
X0281426Y0154359D03*
X0281426Y0156131D03*
X0280835Y0158493D03*
X0280835Y0159083D03*
X0282017Y0162036D03*
X0284379Y0167942D03*
X0284379Y0169123D03*
X0284969Y0170894D03*
X0285560Y0172666D03*
X0286150Y0173847D03*
X0285560Y0174438D03*
X0285560Y0175619D03*
X0286150Y0177391D03*
X0286150Y0177981D03*
X0285560Y0178572D03*
X0284379Y0179753D03*
X0283788Y0180934D03*
X0283198Y0182115D03*
X0283198Y0182706D03*
X0283198Y0186249D03*
X0283198Y0186839D03*
X0283788Y0188611D03*
X0283788Y0189202D03*
X0287331Y0186839D03*
X0293237Y0186249D03*
X0302095Y0186249D03*
X0298552Y0195698D03*
X0298552Y0196288D03*
X0295009Y0199241D03*
X0296780Y0208690D03*
X0297371Y0210461D03*
X0297961Y0211052D03*
X0301505Y0206918D03*
X0313316Y0199831D03*
X0313316Y0198650D03*
X0312725Y0195698D03*
X0308001Y0196879D03*
X0315678Y0201013D03*
X0316269Y0201603D03*
X0314497Y0202784D03*
X0318631Y0208690D03*
X0315678Y0211643D03*
X0325127Y0208690D03*
X0331032Y0208099D03*
X0336938Y0202194D03*
X0344024Y0202194D03*
X0344024Y0201603D03*
X0344615Y0199831D03*
X0344615Y0199241D03*
X0344615Y0198650D03*
X0344024Y0195107D03*
X0344024Y0194517D03*
X0344024Y0193926D03*
X0339891Y0194517D03*
X0339891Y0195107D03*
X0339891Y0195698D03*
X0339891Y0196288D03*
X0344024Y0203965D03*
X0344024Y0204556D03*
X0344024Y0205146D03*
X0323355Y0201013D03*
X0318631Y0194517D03*
X0320402Y0186249D03*
X0323946Y0179162D03*
X0301505Y0166170D03*
X0319221Y0150225D03*
X0318631Y0149044D03*
X0325127Y0148454D03*
X0317450Y0141957D03*
X0316859Y0141367D03*
X0316269Y0140776D03*
X0309182Y0137824D03*
X0308591Y0138414D03*
X0308591Y0139005D03*
X0307410Y0134871D03*
X0308001Y0134280D03*
X0315087Y0129556D03*
X0316859Y0117745D03*
X0308001Y0116564D03*
X0304457Y0122469D03*
X0296780Y0127194D03*
X0296780Y0127784D03*
X0332804Y0123650D03*
X0352883Y0132509D03*
X0359969Y0147863D03*
X0360560Y0150816D03*
X0359969Y0151997D03*
X0360560Y0156721D03*
X0359969Y0157902D03*
X0361150Y0160265D03*
X0360560Y0160855D03*
X0359969Y0163808D03*
X0359379Y0164398D03*
X0359969Y0167942D03*
X0359379Y0168532D03*
X0358198Y0169123D03*
X0358198Y0169713D03*
X0358198Y0170304D03*
X0358788Y0172076D03*
X0358198Y0173257D03*
X0357017Y0173847D03*
X0356426Y0174438D03*
X0354654Y0175619D03*
X0354064Y0176209D03*
X0354654Y0179162D03*
X0355245Y0180343D03*
X0355245Y0180934D03*
X0355835Y0181524D03*
X0356426Y0182115D03*
X0357017Y0182706D03*
X0357017Y0183296D03*
X0350520Y0186249D03*
X0350520Y0169713D03*
X0351702Y0167942D03*
X0351702Y0167351D03*
D14*
X0351406Y0168532D03*
X0351997Y0164989D03*
X0359083Y0164989D03*
X0359083Y0165580D03*
X0359674Y0166170D03*
X0360265Y0166761D03*
X0360265Y0167351D03*
X0358493Y0170894D03*
X0358493Y0171485D03*
X0358493Y0172666D03*
X0355540Y0175028D03*
X0353178Y0176800D03*
X0353178Y0177391D03*
X0353769Y0177981D03*
X0354359Y0178572D03*
X0354950Y0179753D03*
X0356721Y0183887D03*
X0356131Y0184477D03*
X0356131Y0185068D03*
X0356131Y0185658D03*
X0355540Y0186249D03*
X0355540Y0186839D03*
X0354950Y0187430D03*
X0354359Y0188611D03*
X0353769Y0189202D03*
X0353178Y0190383D03*
X0349635Y0183296D03*
X0349635Y0182706D03*
X0349635Y0182115D03*
X0349635Y0181524D03*
X0349044Y0180934D03*
X0349044Y0180343D03*
X0360265Y0163217D03*
X0360265Y0162627D03*
X0360265Y0162036D03*
X0360265Y0161446D03*
X0360855Y0155540D03*
X0360265Y0154950D03*
X0360265Y0154359D03*
X0360265Y0153769D03*
X0360265Y0150225D03*
X0360855Y0145501D03*
X0360855Y0143729D03*
X0360855Y0143139D03*
X0358493Y0137824D03*
X0354359Y0136643D03*
X0336643Y0140186D03*
X0335461Y0138414D03*
X0330737Y0147272D03*
X0325422Y0149044D03*
X0319517Y0151406D03*
X0319517Y0151997D03*
X0319517Y0152587D03*
X0318926Y0148454D03*
X0315973Y0140186D03*
X0319517Y0139005D03*
X0319517Y0138414D03*
X0318926Y0137824D03*
X0318335Y0137233D03*
X0320107Y0139595D03*
X0311839Y0139595D03*
X0311839Y0140186D03*
X0311839Y0141957D03*
X0309477Y0137233D03*
X0310068Y0129556D03*
X0314792Y0130146D03*
X0319517Y0130146D03*
X0326603Y0123650D03*
X0320698Y0118335D03*
X0314202Y0121288D03*
X0308296Y0117154D03*
X0306524Y0119517D03*
X0305343Y0121288D03*
X0304162Y0123060D03*
X0303572Y0123650D03*
X0301209Y0127194D03*
X0298257Y0124241D03*
X0296485Y0128375D03*
X0285265Y0136052D03*
X0281721Y0140776D03*
X0281131Y0141367D03*
X0280540Y0143139D03*
X0279950Y0144320D03*
X0279359Y0145501D03*
X0278769Y0146682D03*
X0278769Y0147272D03*
X0279950Y0150225D03*
X0281131Y0154950D03*
X0281131Y0155540D03*
X0284674Y0167351D03*
X0295894Y0156721D03*
X0296485Y0157312D03*
X0303572Y0156721D03*
X0304162Y0157312D03*
X0305343Y0147272D03*
X0292942Y0143729D03*
X0292351Y0144320D03*
X0291761Y0146682D03*
X0291761Y0147272D03*
X0288217Y0182115D03*
X0283493Y0187430D03*
X0284083Y0189792D03*
X0284674Y0190383D03*
X0301800Y0192745D03*
X0302391Y0191564D03*
X0318926Y0195107D03*
X0324241Y0192745D03*
X0324241Y0192154D03*
X0320698Y0186839D03*
X0323650Y0200422D03*
X0327194Y0200422D03*
X0327784Y0201013D03*
X0321879Y0209871D03*
X0318335Y0211052D03*
X0313020Y0205737D03*
X0298257Y0211643D03*
X0343139Y0206328D03*
X0343729Y0205737D03*
X0336052Y0127784D03*
D15*
X0339005Y0124831D03*
X0336052Y0139595D03*
X0324831Y0147863D03*
X0318926Y0149635D03*
X0314202Y0155540D03*
X0311839Y0157312D03*
X0302391Y0155540D03*
X0302391Y0154950D03*
X0302391Y0154359D03*
X0302391Y0152587D03*
X0302391Y0150816D03*
X0302981Y0149635D03*
X0303572Y0148454D03*
X0294713Y0141957D03*
X0294123Y0142548D03*
X0305934Y0136052D03*
X0306524Y0135461D03*
X0309477Y0130737D03*
X0310068Y0128965D03*
X0310068Y0128375D03*
X0310068Y0127784D03*
X0314202Y0121879D03*
X0318926Y0121288D03*
X0317154Y0117154D03*
X0311249Y0117154D03*
X0319517Y0129556D03*
X0331328Y0151406D03*
X0334280Y0160855D03*
X0326603Y0167351D03*
X0324831Y0186249D03*
X0324831Y0186839D03*
X0324831Y0189792D03*
X0331918Y0202784D03*
X0327194Y0207509D03*
X0315973Y0202194D03*
X0305343Y0212233D03*
X0297076Y0209871D03*
X0297076Y0209280D03*
X0296485Y0208099D03*
X0296485Y0207509D03*
X0296485Y0206918D03*
X0295894Y0205737D03*
X0295894Y0205146D03*
X0295894Y0204556D03*
X0295894Y0203965D03*
X0295304Y0201603D03*
X0295304Y0201013D03*
X0295304Y0200422D03*
X0295304Y0199831D03*
X0294713Y0198650D03*
X0294713Y0198060D03*
X0294713Y0197469D03*
X0294123Y0195698D03*
X0294123Y0195107D03*
X0294123Y0194517D03*
X0294123Y0193926D03*
X0293532Y0191564D03*
X0297666Y0190973D03*
X0298257Y0193335D03*
X0298257Y0193926D03*
X0298257Y0194517D03*
X0298257Y0195107D03*
X0298847Y0196879D03*
X0298847Y0197469D03*
X0298847Y0198060D03*
X0299438Y0198650D03*
X0299438Y0199241D03*
X0299438Y0199831D03*
X0300619Y0189792D03*
X0294123Y0185658D03*
X0294123Y0181524D03*
X0293532Y0180934D03*
X0291761Y0179753D03*
X0288217Y0181524D03*
X0284674Y0179162D03*
X0284083Y0180343D03*
X0283493Y0181524D03*
X0282902Y0183296D03*
X0282902Y0183887D03*
X0282902Y0184477D03*
X0282902Y0185068D03*
X0282902Y0185658D03*
X0283493Y0188020D03*
X0285855Y0176800D03*
X0285855Y0176209D03*
X0285265Y0175028D03*
X0285855Y0173257D03*
X0285265Y0172076D03*
X0285265Y0171485D03*
X0284674Y0170304D03*
X0284674Y0169713D03*
X0284083Y0168532D03*
X0284674Y0166761D03*
X0284674Y0166170D03*
X0284083Y0165580D03*
X0283493Y0164989D03*
X0282902Y0164398D03*
X0282902Y0163808D03*
X0282312Y0163217D03*
X0282312Y0162627D03*
X0281721Y0161446D03*
X0281721Y0160855D03*
X0281131Y0160265D03*
X0281131Y0159674D03*
X0281721Y0153769D03*
X0281131Y0153178D03*
X0280540Y0152587D03*
X0279950Y0151406D03*
X0279359Y0147863D03*
X0296485Y0181524D03*
X0344910Y0190383D03*
X0344320Y0195698D03*
X0344320Y0196288D03*
X0344910Y0198060D03*
X0344320Y0200422D03*
X0344320Y0201013D03*
X0344320Y0202784D03*
X0344320Y0203375D03*
X0349044Y0179753D03*
X0359674Y0157312D03*
X0360265Y0151406D03*
X0360265Y0147272D03*
X0354950Y0139595D03*
X0358493Y0137233D03*
D16*
X0351997Y0147272D03*
X0339005Y0143139D03*
X0341367Y0138414D03*
X0324241Y0150225D03*
X0315973Y0144320D03*
X0289989Y0150816D03*
X0289989Y0151406D03*
X0289989Y0158493D03*
X0289989Y0159083D03*
X0288808Y0184477D03*
X0290580Y0189792D03*
X0301800Y0185068D03*
X0301800Y0184477D03*
X0308296Y0187430D03*
X0323060Y0190383D03*
X0331918Y0194517D03*
X0331918Y0195107D03*
X0333099Y0197469D03*
X0321879Y0202784D03*
X0340776Y0208099D03*
X0309477Y0117745D03*
D17*
X0309477Y0118335D03*
X0309477Y0118926D03*
X0300619Y0124831D03*
X0292942Y0130737D03*
X0289989Y0151997D03*
X0289989Y0156721D03*
X0291170Y0189202D03*
X0304753Y0195107D03*
X0305934Y0198060D03*
X0305343Y0203965D03*
X0321288Y0203375D03*
X0321288Y0207509D03*
X0337233Y0209280D03*
X0346682Y0193335D03*
X0337824Y0183296D03*
X0352587Y0146682D03*
X0352587Y0146091D03*
X0352587Y0144910D03*
X0352587Y0144320D03*
X0351406Y0134871D03*
X0339005Y0143729D03*
D18*
X0337233Y0140776D03*
X0330146Y0144910D03*
X0330146Y0145501D03*
X0324241Y0138414D03*
X0323650Y0137233D03*
X0313611Y0138414D03*
X0311839Y0141367D03*
X0307115Y0146091D03*
X0306524Y0146682D03*
X0313020Y0134280D03*
X0314202Y0120698D03*
X0316564Y0118335D03*
X0295894Y0128965D03*
X0286446Y0134280D03*
X0284083Y0137824D03*
X0282312Y0140186D03*
X0290580Y0147863D03*
X0297076Y0158493D03*
X0305343Y0157902D03*
X0326603Y0166761D03*
X0314792Y0186839D03*
X0307706Y0192745D03*
X0312430Y0195107D03*
X0314202Y0199241D03*
X0312430Y0206328D03*
X0302391Y0208099D03*
X0301800Y0207509D03*
X0300028Y0213414D03*
X0324241Y0193335D03*
X0339595Y0197469D03*
X0337233Y0202784D03*
X0342548Y0206918D03*
X0350816Y0192154D03*
X0350225Y0170304D03*
X0351997Y0169123D03*
X0351406Y0166761D03*
X0352587Y0163808D03*
X0353769Y0153178D03*
X0360265Y0149044D03*
X0361446Y0144910D03*
X0361446Y0144320D03*
X0360265Y0141957D03*
X0360265Y0141367D03*
X0359674Y0140776D03*
X0359083Y0140186D03*
X0359083Y0139595D03*
X0346682Y0141957D03*
X0298257Y0177981D03*
X0301800Y0185658D03*
X0287627Y0186249D03*
D19*
X0294418Y0169123D03*
X0294418Y0168532D03*
X0290875Y0162036D03*
X0290875Y0153178D03*
X0313906Y0165580D03*
X0313906Y0166170D03*
X0322765Y0150816D03*
X0333394Y0158493D03*
X0344024Y0156131D03*
X0344024Y0155540D03*
X0339891Y0145501D03*
X0349930Y0143139D03*
X0350520Y0143729D03*
X0337528Y0126603D03*
X0330442Y0124241D03*
X0318631Y0118926D03*
X0329261Y0176800D03*
X0345206Y0189202D03*
X0347568Y0192745D03*
X0331623Y0211052D03*
X0329851Y0211643D03*
X0323355Y0198650D03*
X0322174Y0196288D03*
X0322174Y0195698D03*
X0312135Y0186249D03*
X0310363Y0207509D03*
X0308001Y0211052D03*
D20*
X0337233Y0182115D03*
X0339595Y0179753D03*
X0328375Y0174438D03*
X0336643Y0167942D03*
X0347272Y0158493D03*
X0340776Y0153178D03*
X0340776Y0152587D03*
X0340776Y0151997D03*
X0314202Y0169123D03*
X0313611Y0177981D03*
X0294713Y0164398D03*
X0315383Y0133099D03*
X0316564Y0119517D03*
X0334280Y0126013D03*
D21*
X0329261Y0126603D03*
X0325717Y0123060D03*
X0322174Y0134871D03*
X0322174Y0135461D03*
X0322765Y0136052D03*
X0323355Y0136643D03*
X0323946Y0137824D03*
X0315678Y0139595D03*
X0311544Y0140776D03*
X0308591Y0144910D03*
X0312135Y0156721D03*
X0310954Y0163808D03*
X0310954Y0164398D03*
X0302686Y0162036D03*
X0302095Y0161446D03*
X0296780Y0157902D03*
X0291465Y0146091D03*
X0292056Y0144910D03*
X0284379Y0137233D03*
X0284969Y0136643D03*
X0285560Y0135461D03*
X0286150Y0134871D03*
X0280835Y0141957D03*
X0280835Y0142548D03*
X0280245Y0143729D03*
X0279654Y0144910D03*
X0279064Y0146091D03*
X0281426Y0157312D03*
X0281426Y0157902D03*
X0293828Y0180343D03*
X0288513Y0182706D03*
X0285560Y0190973D03*
X0302095Y0192154D03*
X0303276Y0190973D03*
X0310363Y0190973D03*
X0319221Y0192154D03*
X0319221Y0192745D03*
X0319221Y0193335D03*
X0323355Y0201603D03*
X0327489Y0201603D03*
X0328670Y0202784D03*
X0331032Y0207509D03*
X0324536Y0209280D03*
X0320402Y0210461D03*
X0308591Y0212233D03*
X0299143Y0212824D03*
X0298552Y0212233D03*
X0329851Y0184477D03*
X0339300Y0193926D03*
X0339891Y0196879D03*
X0351702Y0191564D03*
X0352292Y0190973D03*
X0353473Y0189792D03*
X0354654Y0188020D03*
X0350520Y0185658D03*
X0349930Y0183887D03*
X0351702Y0165580D03*
X0352292Y0164398D03*
X0359969Y0158493D03*
X0361150Y0159674D03*
X0360560Y0156131D03*
X0359969Y0153178D03*
X0359969Y0152587D03*
X0360560Y0149635D03*
X0359969Y0148454D03*
X0360560Y0142548D03*
X0354654Y0137824D03*
X0354654Y0137233D03*
X0354064Y0136052D03*
X0353473Y0135461D03*
X0346387Y0141367D03*
X0345796Y0140776D03*
X0336347Y0136643D03*
X0330442Y0146091D03*
X0330442Y0146682D03*
X0310363Y0130146D03*
X0303276Y0124241D03*
X0305048Y0121879D03*
X0305639Y0120698D03*
X0306229Y0120107D03*
D22*
X0317154Y0120107D03*
X0337824Y0147863D03*
X0337824Y0148454D03*
X0337824Y0149635D03*
X0341367Y0154359D03*
X0347863Y0157902D03*
X0347272Y0159083D03*
X0347272Y0160265D03*
X0337233Y0167351D03*
X0310068Y0189792D03*
X0298847Y0175028D03*
X0308296Y0209280D03*
D23*
X0306524Y0201603D03*
X0306524Y0201013D03*
X0306524Y0200422D03*
X0306524Y0199831D03*
X0321879Y0193926D03*
X0323650Y0199241D03*
X0332509Y0193926D03*
X0332509Y0189792D03*
X0331918Y0189202D03*
X0321879Y0184477D03*
X0321288Y0185068D03*
X0304162Y0183296D03*
X0298257Y0177391D03*
X0291761Y0188020D03*
X0291170Y0188611D03*
X0289989Y0192154D03*
X0324241Y0212824D03*
X0344320Y0157312D03*
X0344320Y0156721D03*
X0339595Y0144910D03*
X0350225Y0133690D03*
X0349635Y0133099D03*
X0338414Y0127194D03*
X0321879Y0120698D03*
X0316564Y0144910D03*
X0290580Y0152587D03*
D24*
X0290284Y0150225D03*
X0287922Y0133690D03*
X0293828Y0130146D03*
X0313906Y0139005D03*
X0319221Y0147863D03*
X0338709Y0142548D03*
X0338709Y0141957D03*
X0346977Y0132509D03*
X0344024Y0130146D03*
X0343434Y0129556D03*
X0323946Y0121288D03*
X0352883Y0156721D03*
X0352883Y0157312D03*
X0341072Y0186249D03*
X0345206Y0189792D03*
X0332213Y0195698D03*
X0332213Y0196288D03*
X0332213Y0196879D03*
X0312725Y0183296D03*
X0294418Y0186839D03*
X0293828Y0187430D03*
X0288513Y0185068D03*
D25*
X0288217Y0180934D03*
X0288217Y0180343D03*
X0289989Y0177981D03*
X0289989Y0177391D03*
X0289398Y0176800D03*
X0290580Y0178572D03*
X0291170Y0179162D03*
X0295304Y0177981D03*
X0294713Y0182115D03*
X0293532Y0185068D03*
X0291170Y0190383D03*
X0298257Y0189202D03*
X0308296Y0196288D03*
X0313611Y0196288D03*
X0315383Y0199831D03*
X0312430Y0201013D03*
X0313611Y0205146D03*
X0317745Y0209280D03*
X0302391Y0211052D03*
X0298847Y0205146D03*
X0315973Y0192154D03*
X0318926Y0190383D03*
X0315973Y0182706D03*
X0313020Y0182706D03*
X0311249Y0182706D03*
X0311249Y0185068D03*
X0301209Y0177981D03*
X0304753Y0170304D03*
X0306524Y0166170D03*
X0307115Y0165580D03*
X0307115Y0164989D03*
X0306524Y0164398D03*
X0313611Y0157902D03*
X0312430Y0156131D03*
X0311249Y0151997D03*
X0311249Y0151406D03*
X0311839Y0150816D03*
X0311839Y0150225D03*
X0312430Y0149635D03*
X0314202Y0147272D03*
X0313611Y0143729D03*
X0307706Y0147272D03*
X0307115Y0149635D03*
X0306524Y0150225D03*
X0306524Y0150816D03*
X0305934Y0151406D03*
X0305934Y0151997D03*
X0297666Y0140186D03*
X0296485Y0140776D03*
X0288808Y0144910D03*
X0287627Y0146682D03*
X0305343Y0138414D03*
X0310068Y0134280D03*
X0313020Y0137824D03*
X0314792Y0137824D03*
X0319517Y0134871D03*
X0321288Y0140186D03*
X0320107Y0141957D03*
X0323060Y0143139D03*
X0334871Y0136052D03*
X0339005Y0136643D03*
X0331918Y0126603D03*
X0318926Y0121879D03*
X0314202Y0122469D03*
X0349044Y0147863D03*
X0349044Y0148454D03*
X0354359Y0140776D03*
X0360855Y0146682D03*
X0356131Y0159083D03*
X0332509Y0160855D03*
X0328965Y0157902D03*
X0323650Y0164989D03*
X0322469Y0165580D03*
X0321879Y0166170D03*
X0320698Y0166170D03*
X0325422Y0170304D03*
X0327784Y0170304D03*
X0326013Y0177391D03*
X0323650Y0178572D03*
X0329556Y0177981D03*
X0330737Y0180343D03*
X0328965Y0183887D03*
X0335461Y0183887D03*
X0337824Y0200422D03*
X0340776Y0201013D03*
D26*
X0333394Y0200422D03*
X0341662Y0207509D03*
X0323946Y0194517D03*
X0322765Y0183887D03*
X0317450Y0182115D03*
X0308591Y0186839D03*
X0303867Y0195698D03*
X0303867Y0196288D03*
X0303867Y0196879D03*
X0306229Y0206328D03*
X0319812Y0208099D03*
X0330442Y0185068D03*
X0329851Y0177391D03*
X0339300Y0183887D03*
X0339891Y0184477D03*
X0349339Y0184477D03*
X0349339Y0185068D03*
X0349339Y0171485D03*
X0349930Y0170894D03*
X0351702Y0166170D03*
X0352883Y0163217D03*
X0353473Y0154950D03*
X0353473Y0154359D03*
X0353473Y0153769D03*
X0353473Y0152587D03*
X0353473Y0151997D03*
X0353473Y0151406D03*
X0353473Y0150816D03*
X0360560Y0159083D03*
X0345206Y0140186D03*
X0344024Y0139595D03*
X0338119Y0141367D03*
X0329851Y0144320D03*
X0329261Y0143729D03*
X0328670Y0143139D03*
X0328080Y0142548D03*
X0328080Y0141957D03*
X0327489Y0141367D03*
X0326898Y0140776D03*
X0326308Y0140186D03*
X0325717Y0139595D03*
X0325127Y0139005D03*
X0320993Y0134280D03*
X0325127Y0122469D03*
X0324536Y0121879D03*
X0341072Y0127784D03*
X0307410Y0145501D03*
X0291465Y0145501D03*
X0290284Y0148454D03*
X0290284Y0149044D03*
X0282607Y0139595D03*
X0283198Y0139005D03*
X0283788Y0138414D03*
X0297961Y0159083D03*
X0298552Y0159674D03*
X0299143Y0160265D03*
X0300324Y0160855D03*
X0288513Y0183296D03*
X0289694Y0192745D03*
D27*
X0307115Y0180343D03*
X0294713Y0169713D03*
X0294123Y0167942D03*
X0291761Y0162627D03*
X0291170Y0153769D03*
X0317745Y0145501D03*
X0320107Y0147272D03*
X0323060Y0154359D03*
X0339595Y0146091D03*
X0330737Y0124831D03*
X0316564Y0130737D03*
X0316564Y0131328D03*
X0337233Y0182706D03*
X0333099Y0190383D03*
X0321288Y0191564D03*
X0322469Y0196879D03*
X0322469Y0197469D03*
X0322469Y0198060D03*
X0310658Y0208099D03*
X0333099Y0210461D03*
D28*
X0339300Y0208690D03*
X0325127Y0199831D03*
X0331032Y0187430D03*
X0331032Y0186839D03*
X0305639Y0197469D03*
X0305048Y0204556D03*
X0305048Y0205146D03*
X0306820Y0211643D03*
X0302095Y0214005D03*
X0302686Y0183887D03*
X0319221Y0163808D03*
X0334576Y0157312D03*
X0334576Y0156721D03*
X0335166Y0156131D03*
X0348749Y0142548D03*
X0352292Y0145501D03*
X0357017Y0139005D03*
X0357017Y0138414D03*
X0338709Y0137233D03*
X0300324Y0125422D03*
X0299733Y0126013D03*
X0299733Y0126603D03*
X0288513Y0133099D03*
X0289694Y0157312D03*
X0289694Y0157902D03*
X0290284Y0159674D03*
D29*
X0295599Y0165580D03*
X0298552Y0175619D03*
X0308001Y0190383D03*
X0328670Y0175028D03*
X0339300Y0180343D03*
X0333394Y0125422D03*
D30*
X0341957Y0128375D03*
X0342548Y0128965D03*
X0344910Y0130737D03*
X0345501Y0131328D03*
X0346091Y0131918D03*
X0343139Y0139005D03*
X0352587Y0147863D03*
X0352587Y0148454D03*
X0353178Y0149044D03*
X0353178Y0149635D03*
X0353769Y0150225D03*
X0353178Y0155540D03*
X0353178Y0156131D03*
X0353178Y0162627D03*
X0335461Y0155540D03*
X0325422Y0152587D03*
X0325422Y0151997D03*
X0325422Y0151406D03*
X0324241Y0149635D03*
X0318926Y0164398D03*
X0306524Y0158493D03*
X0302391Y0162627D03*
X0289989Y0149635D03*
X0294713Y0129556D03*
X0288808Y0183887D03*
X0288217Y0185658D03*
X0287036Y0191564D03*
X0305934Y0205737D03*
X0313611Y0192745D03*
X0324241Y0195107D03*
X0330737Y0186249D03*
X0330737Y0185658D03*
X0340186Y0185068D03*
X0340776Y0185658D03*
D31*
X0331623Y0188611D03*
X0331032Y0188020D03*
X0322174Y0190973D03*
X0306229Y0198650D03*
X0306229Y0199241D03*
X0306229Y0202194D03*
X0306229Y0202784D03*
X0305639Y0203375D03*
X0306229Y0216367D03*
X0323355Y0213414D03*
X0336347Y0209871D03*
X0333985Y0157902D03*
X0339300Y0144320D03*
X0339300Y0137824D03*
X0351111Y0134280D03*
X0313906Y0136052D03*
X0291465Y0131328D03*
X0290284Y0131918D03*
X0289694Y0132509D03*
X0289694Y0160265D03*
X0289694Y0160855D03*
X0290284Y0161446D03*
D32*
X0291465Y0156131D03*
X0291465Y0154950D03*
X0291465Y0154359D03*
X0294418Y0170304D03*
X0313316Y0173847D03*
X0313316Y0174438D03*
X0313316Y0175028D03*
X0313906Y0166761D03*
X0320993Y0157312D03*
X0321583Y0156721D03*
X0322765Y0155540D03*
X0323355Y0153769D03*
X0323355Y0153178D03*
X0313906Y0136643D03*
X0316859Y0132509D03*
X0316859Y0131918D03*
X0345206Y0188611D03*
X0333394Y0190973D03*
X0335757Y0199241D03*
X0335757Y0199831D03*
X0324536Y0202194D03*
X0327489Y0212233D03*
X0309182Y0206918D03*
X0310363Y0193335D03*
D33*
X0310363Y0189202D03*
X0303276Y0182115D03*
X0313906Y0178572D03*
X0320993Y0180343D03*
X0336938Y0169713D03*
X0341662Y0179162D03*
X0346977Y0160855D03*
X0315087Y0133690D03*
X0295009Y0163808D03*
X0333985Y0203375D03*
X0308591Y0209871D03*
X0308001Y0208690D03*
D34*
X0308887Y0194517D03*
X0298257Y0176800D03*
X0294713Y0170894D03*
X0293532Y0167351D03*
X0294123Y0166761D03*
X0294123Y0166170D03*
X0291761Y0155540D03*
X0318335Y0146091D03*
X0323060Y0154950D03*
X0322469Y0156131D03*
X0339595Y0146682D03*
X0313611Y0175619D03*
X0341957Y0177391D03*
X0342548Y0176800D03*
X0336052Y0198650D03*
D35*
X0335757Y0198060D03*
X0333985Y0191564D03*
X0345206Y0188020D03*
X0343434Y0176209D03*
X0329261Y0176209D03*
X0320402Y0157902D03*
X0318631Y0146682D03*
X0339300Y0147272D03*
X0306229Y0180934D03*
X0304457Y0182706D03*
X0309182Y0193926D03*
D36*
X0313906Y0179162D03*
X0341072Y0154950D03*
X0341072Y0153769D03*
X0338119Y0150816D03*
X0338119Y0150225D03*
X0338119Y0149044D03*
X0347568Y0159674D03*
D37*
X0339595Y0151406D03*
X0320107Y0158493D03*
X0314202Y0168532D03*
X0313611Y0177391D03*
X0328965Y0175619D03*
X0341957Y0178572D03*
X0343729Y0174438D03*
X0334280Y0192154D03*
X0334280Y0192745D03*
X0294713Y0164989D03*
D38*
X0320993Y0159083D03*
D39*
X0320698Y0159674D03*
D40*
X0320993Y0160265D03*
X0335757Y0173847D03*
X0329851Y0181524D03*
D41*
X0319812Y0162036D03*
X0319221Y0161446D03*
X0318631Y0160855D03*
D42*
X0314792Y0170304D03*
X0336052Y0164989D03*
X0347272Y0161446D03*
D43*
X0346977Y0162036D03*
X0296190Y0163217D03*
X0326898Y0206328D03*
X0310363Y0215776D03*
D44*
X0320698Y0162627D03*
D45*
X0315383Y0164989D03*
X0314202Y0167351D03*
X0314202Y0167942D03*
X0313611Y0176209D03*
X0305343Y0181524D03*
X0341957Y0177981D03*
X0343729Y0175619D03*
X0343729Y0175028D03*
X0343729Y0162627D03*
X0344910Y0187430D03*
D46*
X0328965Y0163217D03*
D47*
X0336938Y0163808D03*
D48*
X0337233Y0164398D03*
X0336052Y0166170D03*
X0327784Y0205737D03*
X0310068Y0215186D03*
D49*
X0335166Y0165580D03*
D50*
X0337824Y0166761D03*
X0314792Y0169713D03*
X0298847Y0173847D03*
X0298847Y0174438D03*
X0326013Y0206918D03*
X0317745Y0214005D03*
D51*
X0308001Y0210461D03*
X0318631Y0187430D03*
X0313316Y0176800D03*
X0298552Y0176209D03*
X0335166Y0170304D03*
X0335757Y0169123D03*
X0335757Y0168532D03*
X0345206Y0186839D03*
X0334576Y0193335D03*
D52*
X0322469Y0170894D03*
D53*
X0315678Y0171485D03*
D54*
X0320698Y0172076D03*
X0320698Y0172666D03*
D55*
X0303867Y0173257D03*
D56*
X0329851Y0180934D03*
X0335166Y0173257D03*
D57*
X0314792Y0179753D03*
D58*
X0316859Y0185658D03*
D59*
X0315087Y0188020D03*
D60*
X0313611Y0188611D03*
D61*
X0329261Y0203965D03*
X0329261Y0204556D03*
D62*
X0328375Y0205146D03*
D63*
X0311249Y0214595D03*
D64*
X0113858Y0119288D02*
X0113251Y0119895D01*
X0112644Y0119895D01*
X0112038Y0119288D01*
X0111431Y0119895D01*
X0110824Y0119895D01*
X0110218Y0119288D01*
X0110218Y0118075D01*
X0110824Y0117468D01*
X0110824Y0116270D02*
X0110218Y0115663D01*
X0110218Y0114450D01*
X0110824Y0113843D01*
X0110824Y0112644D02*
X0110218Y0112038D01*
X0110218Y0110824D01*
X0110824Y0110218D01*
X0113251Y0110218D01*
X0113858Y0110824D01*
X0113858Y0112038D01*
X0113251Y0112644D01*
X0113251Y0113843D02*
X0113858Y0114450D01*
X0113858Y0115663D01*
X0113251Y0116270D01*
X0112644Y0116270D01*
X0112038Y0115663D01*
X0111431Y0116270D01*
X0110824Y0116270D01*
X0112038Y0115663D02*
X0112038Y0115056D01*
X0113251Y0117468D02*
X0113858Y0118075D01*
X0113858Y0119288D01*
X0112038Y0119288D02*
X0112038Y0118681D01*
X0102047Y0120372D02*
X0102047Y0122799D01*
X0100227Y0121585D02*
X0100227Y0120372D01*
X0100227Y0119174D02*
X0099013Y0119174D01*
X0098407Y0118567D01*
X0098407Y0116747D01*
X0097193Y0116747D02*
X0100833Y0116747D01*
X0100833Y0118567D01*
X0100227Y0119174D01*
X0098407Y0120372D02*
X0102047Y0120372D01*
X0102047Y0115549D02*
X0101440Y0115549D01*
X0099013Y0113122D01*
X0098407Y0113122D01*
X0098407Y0111317D02*
X0102047Y0111317D01*
X0100227Y0109497D01*
X0100227Y0111923D01*
X0102047Y0113122D02*
X0102047Y0115549D01*
X0076453Y0114761D02*
X0075846Y0114155D01*
X0074633Y0114155D01*
X0074026Y0114761D01*
X0074026Y0117188D01*
X0074633Y0117795D01*
X0075846Y0117795D01*
X0076453Y0117188D01*
X0076453Y0114761D01*
X0072828Y0114155D02*
X0072828Y0117795D01*
X0071008Y0117795D01*
X0070401Y0117188D01*
X0070401Y0115975D01*
X0071008Y0115368D01*
X0072828Y0115368D01*
X0069203Y0117795D02*
X0066776Y0117795D01*
X0065578Y0117795D02*
X0064364Y0117795D01*
X0064971Y0117795D02*
X0064971Y0114155D01*
X0065578Y0114155D02*
X0064364Y0114155D01*
X0063161Y0114761D02*
X0062554Y0114155D01*
X0061341Y0114155D01*
X0060734Y0114761D01*
X0060734Y0117188D01*
X0061341Y0117795D01*
X0062554Y0117795D01*
X0063161Y0117188D01*
X0063161Y0114761D01*
X0059536Y0114155D02*
X0059536Y0117795D01*
X0057109Y0114155D01*
X0057109Y0117795D01*
X0055911Y0116581D02*
X0054697Y0117795D01*
X0053484Y0116581D01*
X0053484Y0114155D01*
X0052286Y0114155D02*
X0049859Y0114155D01*
X0052286Y0114155D02*
X0052286Y0117795D01*
X0053484Y0115975D02*
X0055911Y0115975D01*
X0055911Y0116581D02*
X0055911Y0114155D01*
X0067990Y0114155D02*
X0067990Y0117795D01*
X0027244Y0117631D02*
X0027244Y0116418D01*
X0026637Y0115811D01*
X0026637Y0114613D02*
X0027244Y0114006D01*
X0027244Y0112793D01*
X0026637Y0112186D01*
X0024210Y0112186D01*
X0023604Y0112793D01*
X0023604Y0114006D01*
X0024210Y0114613D01*
X0024210Y0115811D02*
X0023604Y0116418D01*
X0023604Y0117631D01*
X0024210Y0118238D01*
X0024817Y0118238D01*
X0025424Y0117631D01*
X0025424Y0117025D01*
X0025424Y0117631D02*
X0026030Y0118238D01*
X0026637Y0118238D01*
X0027244Y0117631D01*
X0026637Y0119436D02*
X0027244Y0120043D01*
X0027244Y0121257D01*
X0026637Y0121863D01*
X0026030Y0121863D01*
X0023604Y0119436D01*
X0023604Y0121863D01*
X0015433Y0122799D02*
X0015433Y0120372D01*
X0011793Y0120372D01*
X0012399Y0119174D02*
X0011793Y0118567D01*
X0011793Y0116747D01*
X0010579Y0116747D02*
X0014219Y0116747D01*
X0014219Y0118567D01*
X0013613Y0119174D01*
X0012399Y0119174D01*
X0013613Y0120372D02*
X0013613Y0121585D01*
X0014826Y0115549D02*
X0012399Y0113122D01*
X0011793Y0113122D01*
X0011793Y0111317D02*
X0015433Y0111317D01*
X0013613Y0109497D01*
X0013613Y0111923D01*
X0015433Y0113122D02*
X0015433Y0115549D01*
X0014826Y0115549D01*
D65*
X0029359Y0115973D02*
X0031328Y0114005D01*
X0031328Y0115973D01*
X0031328Y0117942D01*
X0029359Y0115973D01*
X0031328Y0115973D01*
X0047076Y0115973D01*
X0078572Y0115973D02*
X0096288Y0115973D01*
X0094320Y0114005D01*
X0094320Y0117942D01*
X0096288Y0115973D01*
D66*
X0001800Y0001800D02*
X0446682Y0001800D01*
X0446682Y0328572D01*
X0001800Y0328572D01*
X0001800Y0001800D01*
D67*
X0009674Y0021485D02*
X0009676Y0021678D01*
X0009683Y0021871D01*
X0009695Y0022064D01*
X0009712Y0022257D01*
X0009733Y0022449D01*
X0009759Y0022640D01*
X0009790Y0022831D01*
X0009825Y0023021D01*
X0009865Y0023210D01*
X0009910Y0023398D01*
X0009959Y0023585D01*
X0010013Y0023771D01*
X0010071Y0023955D01*
X0010134Y0024138D01*
X0010202Y0024319D01*
X0010273Y0024498D01*
X0010350Y0024676D01*
X0010430Y0024852D01*
X0010515Y0025025D01*
X0010604Y0025197D01*
X0010697Y0025366D01*
X0010794Y0025533D01*
X0010896Y0025698D01*
X0011001Y0025860D01*
X0011110Y0026019D01*
X0011224Y0026176D01*
X0011341Y0026329D01*
X0011461Y0026480D01*
X0011586Y0026628D01*
X0011714Y0026773D01*
X0011845Y0026914D01*
X0011980Y0027053D01*
X0012119Y0027188D01*
X0012260Y0027319D01*
X0012405Y0027447D01*
X0012553Y0027572D01*
X0012704Y0027692D01*
X0012857Y0027809D01*
X0013014Y0027923D01*
X0013173Y0028032D01*
X0013335Y0028137D01*
X0013500Y0028239D01*
X0013667Y0028336D01*
X0013836Y0028429D01*
X0014008Y0028518D01*
X0014181Y0028603D01*
X0014357Y0028683D01*
X0014535Y0028760D01*
X0014714Y0028831D01*
X0014895Y0028899D01*
X0015078Y0028962D01*
X0015262Y0029020D01*
X0015448Y0029074D01*
X0015635Y0029123D01*
X0015823Y0029168D01*
X0016012Y0029208D01*
X0016202Y0029243D01*
X0016393Y0029274D01*
X0016584Y0029300D01*
X0016776Y0029321D01*
X0016969Y0029338D01*
X0017162Y0029350D01*
X0017355Y0029357D01*
X0017548Y0029359D01*
X0017741Y0029357D01*
X0017934Y0029350D01*
X0018127Y0029338D01*
X0018320Y0029321D01*
X0018512Y0029300D01*
X0018703Y0029274D01*
X0018894Y0029243D01*
X0019084Y0029208D01*
X0019273Y0029168D01*
X0019461Y0029123D01*
X0019648Y0029074D01*
X0019834Y0029020D01*
X0020018Y0028962D01*
X0020201Y0028899D01*
X0020382Y0028831D01*
X0020561Y0028760D01*
X0020739Y0028683D01*
X0020915Y0028603D01*
X0021088Y0028518D01*
X0021260Y0028429D01*
X0021429Y0028336D01*
X0021596Y0028239D01*
X0021761Y0028137D01*
X0021923Y0028032D01*
X0022082Y0027923D01*
X0022239Y0027809D01*
X0022392Y0027692D01*
X0022543Y0027572D01*
X0022691Y0027447D01*
X0022836Y0027319D01*
X0022977Y0027188D01*
X0023116Y0027053D01*
X0023251Y0026914D01*
X0023382Y0026773D01*
X0023510Y0026628D01*
X0023635Y0026480D01*
X0023755Y0026329D01*
X0023872Y0026176D01*
X0023986Y0026019D01*
X0024095Y0025860D01*
X0024200Y0025698D01*
X0024302Y0025533D01*
X0024399Y0025366D01*
X0024492Y0025197D01*
X0024581Y0025025D01*
X0024666Y0024852D01*
X0024746Y0024676D01*
X0024823Y0024498D01*
X0024894Y0024319D01*
X0024962Y0024138D01*
X0025025Y0023955D01*
X0025083Y0023771D01*
X0025137Y0023585D01*
X0025186Y0023398D01*
X0025231Y0023210D01*
X0025271Y0023021D01*
X0025306Y0022831D01*
X0025337Y0022640D01*
X0025363Y0022449D01*
X0025384Y0022257D01*
X0025401Y0022064D01*
X0025413Y0021871D01*
X0025420Y0021678D01*
X0025422Y0021485D01*
X0025420Y0021292D01*
X0025413Y0021099D01*
X0025401Y0020906D01*
X0025384Y0020713D01*
X0025363Y0020521D01*
X0025337Y0020330D01*
X0025306Y0020139D01*
X0025271Y0019949D01*
X0025231Y0019760D01*
X0025186Y0019572D01*
X0025137Y0019385D01*
X0025083Y0019199D01*
X0025025Y0019015D01*
X0024962Y0018832D01*
X0024894Y0018651D01*
X0024823Y0018472D01*
X0024746Y0018294D01*
X0024666Y0018118D01*
X0024581Y0017945D01*
X0024492Y0017773D01*
X0024399Y0017604D01*
X0024302Y0017437D01*
X0024200Y0017272D01*
X0024095Y0017110D01*
X0023986Y0016951D01*
X0023872Y0016794D01*
X0023755Y0016641D01*
X0023635Y0016490D01*
X0023510Y0016342D01*
X0023382Y0016197D01*
X0023251Y0016056D01*
X0023116Y0015917D01*
X0022977Y0015782D01*
X0022836Y0015651D01*
X0022691Y0015523D01*
X0022543Y0015398D01*
X0022392Y0015278D01*
X0022239Y0015161D01*
X0022082Y0015047D01*
X0021923Y0014938D01*
X0021761Y0014833D01*
X0021596Y0014731D01*
X0021429Y0014634D01*
X0021260Y0014541D01*
X0021088Y0014452D01*
X0020915Y0014367D01*
X0020739Y0014287D01*
X0020561Y0014210D01*
X0020382Y0014139D01*
X0020201Y0014071D01*
X0020018Y0014008D01*
X0019834Y0013950D01*
X0019648Y0013896D01*
X0019461Y0013847D01*
X0019273Y0013802D01*
X0019084Y0013762D01*
X0018894Y0013727D01*
X0018703Y0013696D01*
X0018512Y0013670D01*
X0018320Y0013649D01*
X0018127Y0013632D01*
X0017934Y0013620D01*
X0017741Y0013613D01*
X0017548Y0013611D01*
X0017355Y0013613D01*
X0017162Y0013620D01*
X0016969Y0013632D01*
X0016776Y0013649D01*
X0016584Y0013670D01*
X0016393Y0013696D01*
X0016202Y0013727D01*
X0016012Y0013762D01*
X0015823Y0013802D01*
X0015635Y0013847D01*
X0015448Y0013896D01*
X0015262Y0013950D01*
X0015078Y0014008D01*
X0014895Y0014071D01*
X0014714Y0014139D01*
X0014535Y0014210D01*
X0014357Y0014287D01*
X0014181Y0014367D01*
X0014008Y0014452D01*
X0013836Y0014541D01*
X0013667Y0014634D01*
X0013500Y0014731D01*
X0013335Y0014833D01*
X0013173Y0014938D01*
X0013014Y0015047D01*
X0012857Y0015161D01*
X0012704Y0015278D01*
X0012553Y0015398D01*
X0012405Y0015523D01*
X0012260Y0015651D01*
X0012119Y0015782D01*
X0011980Y0015917D01*
X0011845Y0016056D01*
X0011714Y0016197D01*
X0011586Y0016342D01*
X0011461Y0016490D01*
X0011341Y0016641D01*
X0011224Y0016794D01*
X0011110Y0016951D01*
X0011001Y0017110D01*
X0010896Y0017272D01*
X0010794Y0017437D01*
X0010697Y0017604D01*
X0010604Y0017773D01*
X0010515Y0017945D01*
X0010430Y0018118D01*
X0010350Y0018294D01*
X0010273Y0018472D01*
X0010202Y0018651D01*
X0010134Y0018832D01*
X0010071Y0019015D01*
X0010013Y0019199D01*
X0009959Y0019385D01*
X0009910Y0019572D01*
X0009865Y0019760D01*
X0009825Y0019949D01*
X0009790Y0020139D01*
X0009759Y0020330D01*
X0009733Y0020521D01*
X0009712Y0020713D01*
X0009695Y0020906D01*
X0009683Y0021099D01*
X0009676Y0021292D01*
X0009674Y0021485D01*
X0011642Y0060855D02*
X0011644Y0061008D01*
X0011650Y0061162D01*
X0011660Y0061315D01*
X0011674Y0061467D01*
X0011692Y0061620D01*
X0011714Y0061771D01*
X0011739Y0061922D01*
X0011769Y0062073D01*
X0011803Y0062223D01*
X0011840Y0062371D01*
X0011881Y0062519D01*
X0011926Y0062665D01*
X0011975Y0062811D01*
X0012028Y0062955D01*
X0012084Y0063097D01*
X0012144Y0063238D01*
X0012208Y0063378D01*
X0012275Y0063516D01*
X0012346Y0063652D01*
X0012421Y0063786D01*
X0012498Y0063918D01*
X0012580Y0064048D01*
X0012664Y0064176D01*
X0012752Y0064302D01*
X0012843Y0064425D01*
X0012937Y0064546D01*
X0013035Y0064664D01*
X0013135Y0064780D01*
X0013239Y0064893D01*
X0013345Y0065004D01*
X0013454Y0065112D01*
X0013566Y0065217D01*
X0013680Y0065318D01*
X0013798Y0065417D01*
X0013917Y0065513D01*
X0014039Y0065606D01*
X0014164Y0065695D01*
X0014291Y0065782D01*
X0014420Y0065864D01*
X0014551Y0065944D01*
X0014684Y0066020D01*
X0014819Y0066093D01*
X0014956Y0066162D01*
X0015095Y0066227D01*
X0015235Y0066289D01*
X0015377Y0066347D01*
X0015520Y0066402D01*
X0015665Y0066453D01*
X0015811Y0066500D01*
X0015958Y0066543D01*
X0016106Y0066582D01*
X0016255Y0066618D01*
X0016405Y0066649D01*
X0016556Y0066677D01*
X0016707Y0066701D01*
X0016860Y0066721D01*
X0017012Y0066737D01*
X0017165Y0066749D01*
X0017318Y0066757D01*
X0017471Y0066761D01*
X0017625Y0066761D01*
X0017778Y0066757D01*
X0017931Y0066749D01*
X0018084Y0066737D01*
X0018236Y0066721D01*
X0018389Y0066701D01*
X0018540Y0066677D01*
X0018691Y0066649D01*
X0018841Y0066618D01*
X0018990Y0066582D01*
X0019138Y0066543D01*
X0019285Y0066500D01*
X0019431Y0066453D01*
X0019576Y0066402D01*
X0019719Y0066347D01*
X0019861Y0066289D01*
X0020001Y0066227D01*
X0020140Y0066162D01*
X0020277Y0066093D01*
X0020412Y0066020D01*
X0020545Y0065944D01*
X0020676Y0065864D01*
X0020805Y0065782D01*
X0020932Y0065695D01*
X0021057Y0065606D01*
X0021179Y0065513D01*
X0021298Y0065417D01*
X0021416Y0065318D01*
X0021530Y0065217D01*
X0021642Y0065112D01*
X0021751Y0065004D01*
X0021857Y0064893D01*
X0021961Y0064780D01*
X0022061Y0064664D01*
X0022159Y0064546D01*
X0022253Y0064425D01*
X0022344Y0064302D01*
X0022432Y0064176D01*
X0022516Y0064048D01*
X0022598Y0063918D01*
X0022675Y0063786D01*
X0022750Y0063652D01*
X0022821Y0063516D01*
X0022888Y0063378D01*
X0022952Y0063238D01*
X0023012Y0063097D01*
X0023068Y0062955D01*
X0023121Y0062811D01*
X0023170Y0062665D01*
X0023215Y0062519D01*
X0023256Y0062371D01*
X0023293Y0062223D01*
X0023327Y0062073D01*
X0023357Y0061922D01*
X0023382Y0061771D01*
X0023404Y0061620D01*
X0023422Y0061467D01*
X0023436Y0061315D01*
X0023446Y0061162D01*
X0023452Y0061008D01*
X0023454Y0060855D01*
X0023452Y0060702D01*
X0023446Y0060548D01*
X0023436Y0060395D01*
X0023422Y0060243D01*
X0023404Y0060090D01*
X0023382Y0059939D01*
X0023357Y0059788D01*
X0023327Y0059637D01*
X0023293Y0059487D01*
X0023256Y0059339D01*
X0023215Y0059191D01*
X0023170Y0059045D01*
X0023121Y0058899D01*
X0023068Y0058755D01*
X0023012Y0058613D01*
X0022952Y0058472D01*
X0022888Y0058332D01*
X0022821Y0058194D01*
X0022750Y0058058D01*
X0022675Y0057924D01*
X0022598Y0057792D01*
X0022516Y0057662D01*
X0022432Y0057534D01*
X0022344Y0057408D01*
X0022253Y0057285D01*
X0022159Y0057164D01*
X0022061Y0057046D01*
X0021961Y0056930D01*
X0021857Y0056817D01*
X0021751Y0056706D01*
X0021642Y0056598D01*
X0021530Y0056493D01*
X0021416Y0056392D01*
X0021298Y0056293D01*
X0021179Y0056197D01*
X0021057Y0056104D01*
X0020932Y0056015D01*
X0020805Y0055928D01*
X0020676Y0055846D01*
X0020545Y0055766D01*
X0020412Y0055690D01*
X0020277Y0055617D01*
X0020140Y0055548D01*
X0020001Y0055483D01*
X0019861Y0055421D01*
X0019719Y0055363D01*
X0019576Y0055308D01*
X0019431Y0055257D01*
X0019285Y0055210D01*
X0019138Y0055167D01*
X0018990Y0055128D01*
X0018841Y0055092D01*
X0018691Y0055061D01*
X0018540Y0055033D01*
X0018389Y0055009D01*
X0018236Y0054989D01*
X0018084Y0054973D01*
X0017931Y0054961D01*
X0017778Y0054953D01*
X0017625Y0054949D01*
X0017471Y0054949D01*
X0017318Y0054953D01*
X0017165Y0054961D01*
X0017012Y0054973D01*
X0016860Y0054989D01*
X0016707Y0055009D01*
X0016556Y0055033D01*
X0016405Y0055061D01*
X0016255Y0055092D01*
X0016106Y0055128D01*
X0015958Y0055167D01*
X0015811Y0055210D01*
X0015665Y0055257D01*
X0015520Y0055308D01*
X0015377Y0055363D01*
X0015235Y0055421D01*
X0015095Y0055483D01*
X0014956Y0055548D01*
X0014819Y0055617D01*
X0014684Y0055690D01*
X0014551Y0055766D01*
X0014420Y0055846D01*
X0014291Y0055928D01*
X0014164Y0056015D01*
X0014039Y0056104D01*
X0013917Y0056197D01*
X0013798Y0056293D01*
X0013680Y0056392D01*
X0013566Y0056493D01*
X0013454Y0056598D01*
X0013345Y0056706D01*
X0013239Y0056817D01*
X0013135Y0056930D01*
X0013035Y0057046D01*
X0012937Y0057164D01*
X0012843Y0057285D01*
X0012752Y0057408D01*
X0012664Y0057534D01*
X0012580Y0057662D01*
X0012498Y0057792D01*
X0012421Y0057924D01*
X0012346Y0058058D01*
X0012275Y0058194D01*
X0012208Y0058332D01*
X0012144Y0058472D01*
X0012084Y0058613D01*
X0012028Y0058755D01*
X0011975Y0058899D01*
X0011926Y0059045D01*
X0011881Y0059191D01*
X0011840Y0059339D01*
X0011803Y0059487D01*
X0011769Y0059637D01*
X0011739Y0059788D01*
X0011714Y0059939D01*
X0011692Y0060090D01*
X0011674Y0060243D01*
X0011660Y0060395D01*
X0011650Y0060548D01*
X0011644Y0060702D01*
X0011642Y0060855D01*
X0211445Y0289202D02*
X0211447Y0289310D01*
X0211453Y0289419D01*
X0211463Y0289527D01*
X0211477Y0289634D01*
X0211495Y0289741D01*
X0211516Y0289848D01*
X0211542Y0289953D01*
X0211572Y0290058D01*
X0211605Y0290161D01*
X0211642Y0290263D01*
X0211683Y0290363D01*
X0211727Y0290462D01*
X0211776Y0290560D01*
X0211827Y0290655D01*
X0211882Y0290748D01*
X0211941Y0290840D01*
X0212003Y0290929D01*
X0212068Y0291016D01*
X0212136Y0291100D01*
X0212207Y0291182D01*
X0212281Y0291261D01*
X0212358Y0291337D01*
X0212438Y0291411D01*
X0212521Y0291481D01*
X0212606Y0291549D01*
X0212693Y0291613D01*
X0212783Y0291674D01*
X0212875Y0291732D01*
X0212969Y0291786D01*
X0213065Y0291837D01*
X0213162Y0291884D01*
X0213262Y0291928D01*
X0213363Y0291968D01*
X0213465Y0292004D01*
X0213568Y0292036D01*
X0213673Y0292065D01*
X0213779Y0292089D01*
X0213885Y0292110D01*
X0213992Y0292127D01*
X0214100Y0292140D01*
X0214208Y0292149D01*
X0214317Y0292154D01*
X0214425Y0292155D01*
X0214534Y0292152D01*
X0214642Y0292145D01*
X0214750Y0292134D01*
X0214857Y0292119D01*
X0214964Y0292100D01*
X0215070Y0292077D01*
X0215175Y0292051D01*
X0215280Y0292020D01*
X0215382Y0291986D01*
X0215484Y0291948D01*
X0215584Y0291906D01*
X0215683Y0291861D01*
X0215780Y0291812D01*
X0215874Y0291759D01*
X0215967Y0291703D01*
X0216058Y0291644D01*
X0216147Y0291581D01*
X0216233Y0291516D01*
X0216317Y0291447D01*
X0216398Y0291375D01*
X0216476Y0291300D01*
X0216552Y0291222D01*
X0216625Y0291141D01*
X0216695Y0291058D01*
X0216761Y0290973D01*
X0216825Y0290885D01*
X0216885Y0290794D01*
X0216942Y0290702D01*
X0216995Y0290607D01*
X0217045Y0290511D01*
X0217091Y0290413D01*
X0217134Y0290313D01*
X0217173Y0290212D01*
X0217208Y0290109D01*
X0217240Y0290006D01*
X0217267Y0289901D01*
X0217291Y0289795D01*
X0217311Y0289688D01*
X0217327Y0289581D01*
X0217339Y0289473D01*
X0217347Y0289365D01*
X0217351Y0289256D01*
X0217351Y0289148D01*
X0217347Y0289039D01*
X0217339Y0288931D01*
X0217327Y0288823D01*
X0217311Y0288716D01*
X0217291Y0288609D01*
X0217267Y0288503D01*
X0217240Y0288398D01*
X0217208Y0288295D01*
X0217173Y0288192D01*
X0217134Y0288091D01*
X0217091Y0287991D01*
X0217045Y0287893D01*
X0216995Y0287797D01*
X0216942Y0287702D01*
X0216885Y0287610D01*
X0216825Y0287519D01*
X0216761Y0287431D01*
X0216695Y0287346D01*
X0216625Y0287263D01*
X0216552Y0287182D01*
X0216476Y0287104D01*
X0216398Y0287029D01*
X0216317Y0286957D01*
X0216233Y0286888D01*
X0216147Y0286823D01*
X0216058Y0286760D01*
X0215967Y0286701D01*
X0215875Y0286645D01*
X0215780Y0286592D01*
X0215683Y0286543D01*
X0215584Y0286498D01*
X0215484Y0286456D01*
X0215382Y0286418D01*
X0215280Y0286384D01*
X0215175Y0286353D01*
X0215070Y0286327D01*
X0214964Y0286304D01*
X0214857Y0286285D01*
X0214750Y0286270D01*
X0214642Y0286259D01*
X0214534Y0286252D01*
X0214425Y0286249D01*
X0214317Y0286250D01*
X0214208Y0286255D01*
X0214100Y0286264D01*
X0213992Y0286277D01*
X0213885Y0286294D01*
X0213779Y0286315D01*
X0213673Y0286339D01*
X0213568Y0286368D01*
X0213465Y0286400D01*
X0213363Y0286436D01*
X0213262Y0286476D01*
X0213162Y0286520D01*
X0213065Y0286567D01*
X0212969Y0286618D01*
X0212875Y0286672D01*
X0212783Y0286730D01*
X0212693Y0286791D01*
X0212606Y0286855D01*
X0212521Y0286923D01*
X0212438Y0286993D01*
X0212358Y0287067D01*
X0212281Y0287143D01*
X0212207Y0287222D01*
X0212136Y0287304D01*
X0212068Y0287388D01*
X0212003Y0287475D01*
X0211941Y0287564D01*
X0211882Y0287656D01*
X0211827Y0287749D01*
X0211776Y0287844D01*
X0211727Y0287942D01*
X0211683Y0288041D01*
X0211642Y0288141D01*
X0211605Y0288243D01*
X0211572Y0288346D01*
X0211542Y0288451D01*
X0211516Y0288556D01*
X0211495Y0288663D01*
X0211477Y0288770D01*
X0211463Y0288877D01*
X0211453Y0288985D01*
X0211447Y0289094D01*
X0211445Y0289202D01*
X0196879Y0314792D02*
X0196881Y0314897D01*
X0196887Y0315002D01*
X0196897Y0315106D01*
X0196911Y0315210D01*
X0196929Y0315314D01*
X0196951Y0315416D01*
X0196976Y0315518D01*
X0197006Y0315619D01*
X0197039Y0315718D01*
X0197076Y0315816D01*
X0197117Y0315913D01*
X0197162Y0316008D01*
X0197210Y0316101D01*
X0197261Y0316193D01*
X0197317Y0316282D01*
X0197375Y0316369D01*
X0197437Y0316454D01*
X0197501Y0316537D01*
X0197569Y0316617D01*
X0197640Y0316694D01*
X0197714Y0316768D01*
X0197791Y0316840D01*
X0197870Y0316909D01*
X0197952Y0316974D01*
X0198036Y0317037D01*
X0198123Y0317096D01*
X0198212Y0317152D01*
X0198303Y0317205D01*
X0198396Y0317254D01*
X0198490Y0317299D01*
X0198586Y0317341D01*
X0198684Y0317379D01*
X0198783Y0317413D01*
X0198884Y0317444D01*
X0198985Y0317470D01*
X0199088Y0317493D01*
X0199191Y0317512D01*
X0199295Y0317527D01*
X0199399Y0317538D01*
X0199504Y0317545D01*
X0199609Y0317548D01*
X0199714Y0317547D01*
X0199819Y0317542D01*
X0199923Y0317533D01*
X0200027Y0317520D01*
X0200131Y0317503D01*
X0200234Y0317482D01*
X0200336Y0317457D01*
X0200437Y0317429D01*
X0200536Y0317396D01*
X0200635Y0317360D01*
X0200732Y0317320D01*
X0200827Y0317277D01*
X0200921Y0317229D01*
X0201013Y0317179D01*
X0201103Y0317125D01*
X0201191Y0317067D01*
X0201276Y0317006D01*
X0201359Y0316942D01*
X0201440Y0316875D01*
X0201518Y0316805D01*
X0201593Y0316731D01*
X0201665Y0316656D01*
X0201735Y0316577D01*
X0201801Y0316496D01*
X0201865Y0316412D01*
X0201925Y0316326D01*
X0201981Y0316238D01*
X0202035Y0316147D01*
X0202085Y0316055D01*
X0202131Y0315961D01*
X0202174Y0315865D01*
X0202213Y0315767D01*
X0202248Y0315669D01*
X0202279Y0315568D01*
X0202307Y0315467D01*
X0202331Y0315365D01*
X0202351Y0315262D01*
X0202367Y0315158D01*
X0202379Y0315054D01*
X0202387Y0314949D01*
X0202391Y0314844D01*
X0202391Y0314740D01*
X0202387Y0314635D01*
X0202379Y0314530D01*
X0202367Y0314426D01*
X0202351Y0314322D01*
X0202331Y0314219D01*
X0202307Y0314117D01*
X0202279Y0314016D01*
X0202248Y0313915D01*
X0202213Y0313817D01*
X0202174Y0313719D01*
X0202131Y0313623D01*
X0202085Y0313529D01*
X0202035Y0313437D01*
X0201981Y0313346D01*
X0201925Y0313258D01*
X0201865Y0313172D01*
X0201801Y0313088D01*
X0201735Y0313007D01*
X0201665Y0312928D01*
X0201593Y0312853D01*
X0201518Y0312779D01*
X0201440Y0312709D01*
X0201359Y0312642D01*
X0201276Y0312578D01*
X0201191Y0312517D01*
X0201103Y0312459D01*
X0201013Y0312405D01*
X0200921Y0312355D01*
X0200827Y0312307D01*
X0200732Y0312264D01*
X0200635Y0312224D01*
X0200536Y0312188D01*
X0200437Y0312155D01*
X0200336Y0312127D01*
X0200234Y0312102D01*
X0200131Y0312081D01*
X0200027Y0312064D01*
X0199923Y0312051D01*
X0199819Y0312042D01*
X0199714Y0312037D01*
X0199609Y0312036D01*
X0199504Y0312039D01*
X0199399Y0312046D01*
X0199295Y0312057D01*
X0199191Y0312072D01*
X0199088Y0312091D01*
X0198985Y0312114D01*
X0198884Y0312140D01*
X0198783Y0312171D01*
X0198684Y0312205D01*
X0198586Y0312243D01*
X0198490Y0312285D01*
X0198396Y0312330D01*
X0198303Y0312379D01*
X0198212Y0312432D01*
X0198123Y0312488D01*
X0198036Y0312547D01*
X0197952Y0312610D01*
X0197870Y0312675D01*
X0197791Y0312744D01*
X0197714Y0312816D01*
X0197640Y0312890D01*
X0197569Y0312967D01*
X0197501Y0313047D01*
X0197437Y0313130D01*
X0197375Y0313215D01*
X0197317Y0313302D01*
X0197261Y0313391D01*
X0197210Y0313483D01*
X0197162Y0313576D01*
X0197117Y0313671D01*
X0197076Y0313768D01*
X0197039Y0313866D01*
X0197006Y0313965D01*
X0196976Y0314066D01*
X0196951Y0314168D01*
X0196929Y0314270D01*
X0196911Y0314374D01*
X0196897Y0314478D01*
X0196887Y0314582D01*
X0196881Y0314687D01*
X0196879Y0314792D01*
X0226406Y0314792D02*
X0226408Y0314897D01*
X0226414Y0315002D01*
X0226424Y0315106D01*
X0226438Y0315210D01*
X0226456Y0315314D01*
X0226478Y0315416D01*
X0226503Y0315518D01*
X0226533Y0315619D01*
X0226566Y0315718D01*
X0226603Y0315816D01*
X0226644Y0315913D01*
X0226689Y0316008D01*
X0226737Y0316101D01*
X0226788Y0316193D01*
X0226844Y0316282D01*
X0226902Y0316369D01*
X0226964Y0316454D01*
X0227028Y0316537D01*
X0227096Y0316617D01*
X0227167Y0316694D01*
X0227241Y0316768D01*
X0227318Y0316840D01*
X0227397Y0316909D01*
X0227479Y0316974D01*
X0227563Y0317037D01*
X0227650Y0317096D01*
X0227739Y0317152D01*
X0227830Y0317205D01*
X0227923Y0317254D01*
X0228017Y0317299D01*
X0228113Y0317341D01*
X0228211Y0317379D01*
X0228310Y0317413D01*
X0228411Y0317444D01*
X0228512Y0317470D01*
X0228615Y0317493D01*
X0228718Y0317512D01*
X0228822Y0317527D01*
X0228926Y0317538D01*
X0229031Y0317545D01*
X0229136Y0317548D01*
X0229241Y0317547D01*
X0229346Y0317542D01*
X0229450Y0317533D01*
X0229554Y0317520D01*
X0229658Y0317503D01*
X0229761Y0317482D01*
X0229863Y0317457D01*
X0229964Y0317429D01*
X0230063Y0317396D01*
X0230162Y0317360D01*
X0230259Y0317320D01*
X0230354Y0317277D01*
X0230448Y0317229D01*
X0230540Y0317179D01*
X0230630Y0317125D01*
X0230718Y0317067D01*
X0230803Y0317006D01*
X0230886Y0316942D01*
X0230967Y0316875D01*
X0231045Y0316805D01*
X0231120Y0316731D01*
X0231192Y0316656D01*
X0231262Y0316577D01*
X0231328Y0316496D01*
X0231392Y0316412D01*
X0231452Y0316326D01*
X0231508Y0316238D01*
X0231562Y0316147D01*
X0231612Y0316055D01*
X0231658Y0315961D01*
X0231701Y0315865D01*
X0231740Y0315767D01*
X0231775Y0315669D01*
X0231806Y0315568D01*
X0231834Y0315467D01*
X0231858Y0315365D01*
X0231878Y0315262D01*
X0231894Y0315158D01*
X0231906Y0315054D01*
X0231914Y0314949D01*
X0231918Y0314844D01*
X0231918Y0314740D01*
X0231914Y0314635D01*
X0231906Y0314530D01*
X0231894Y0314426D01*
X0231878Y0314322D01*
X0231858Y0314219D01*
X0231834Y0314117D01*
X0231806Y0314016D01*
X0231775Y0313915D01*
X0231740Y0313817D01*
X0231701Y0313719D01*
X0231658Y0313623D01*
X0231612Y0313529D01*
X0231562Y0313437D01*
X0231508Y0313346D01*
X0231452Y0313258D01*
X0231392Y0313172D01*
X0231328Y0313088D01*
X0231262Y0313007D01*
X0231192Y0312928D01*
X0231120Y0312853D01*
X0231045Y0312779D01*
X0230967Y0312709D01*
X0230886Y0312642D01*
X0230803Y0312578D01*
X0230718Y0312517D01*
X0230630Y0312459D01*
X0230540Y0312405D01*
X0230448Y0312355D01*
X0230354Y0312307D01*
X0230259Y0312264D01*
X0230162Y0312224D01*
X0230063Y0312188D01*
X0229964Y0312155D01*
X0229863Y0312127D01*
X0229761Y0312102D01*
X0229658Y0312081D01*
X0229554Y0312064D01*
X0229450Y0312051D01*
X0229346Y0312042D01*
X0229241Y0312037D01*
X0229136Y0312036D01*
X0229031Y0312039D01*
X0228926Y0312046D01*
X0228822Y0312057D01*
X0228718Y0312072D01*
X0228615Y0312091D01*
X0228512Y0312114D01*
X0228411Y0312140D01*
X0228310Y0312171D01*
X0228211Y0312205D01*
X0228113Y0312243D01*
X0228017Y0312285D01*
X0227923Y0312330D01*
X0227830Y0312379D01*
X0227739Y0312432D01*
X0227650Y0312488D01*
X0227563Y0312547D01*
X0227479Y0312610D01*
X0227397Y0312675D01*
X0227318Y0312744D01*
X0227241Y0312816D01*
X0227167Y0312890D01*
X0227096Y0312967D01*
X0227028Y0313047D01*
X0226964Y0313130D01*
X0226902Y0313215D01*
X0226844Y0313302D01*
X0226788Y0313391D01*
X0226737Y0313483D01*
X0226689Y0313576D01*
X0226644Y0313671D01*
X0226603Y0313768D01*
X0226566Y0313866D01*
X0226533Y0313965D01*
X0226503Y0314066D01*
X0226478Y0314168D01*
X0226456Y0314270D01*
X0226438Y0314374D01*
X0226424Y0314478D01*
X0226414Y0314582D01*
X0226408Y0314687D01*
X0226406Y0314792D01*
X0267745Y0314792D02*
X0267747Y0314897D01*
X0267753Y0315002D01*
X0267763Y0315106D01*
X0267777Y0315210D01*
X0267795Y0315314D01*
X0267817Y0315416D01*
X0267842Y0315518D01*
X0267872Y0315619D01*
X0267905Y0315718D01*
X0267942Y0315816D01*
X0267983Y0315913D01*
X0268028Y0316008D01*
X0268076Y0316101D01*
X0268127Y0316193D01*
X0268183Y0316282D01*
X0268241Y0316369D01*
X0268303Y0316454D01*
X0268367Y0316537D01*
X0268435Y0316617D01*
X0268506Y0316694D01*
X0268580Y0316768D01*
X0268657Y0316840D01*
X0268736Y0316909D01*
X0268818Y0316974D01*
X0268902Y0317037D01*
X0268989Y0317096D01*
X0269078Y0317152D01*
X0269169Y0317205D01*
X0269262Y0317254D01*
X0269356Y0317299D01*
X0269452Y0317341D01*
X0269550Y0317379D01*
X0269649Y0317413D01*
X0269750Y0317444D01*
X0269851Y0317470D01*
X0269954Y0317493D01*
X0270057Y0317512D01*
X0270161Y0317527D01*
X0270265Y0317538D01*
X0270370Y0317545D01*
X0270475Y0317548D01*
X0270580Y0317547D01*
X0270685Y0317542D01*
X0270789Y0317533D01*
X0270893Y0317520D01*
X0270997Y0317503D01*
X0271100Y0317482D01*
X0271202Y0317457D01*
X0271303Y0317429D01*
X0271402Y0317396D01*
X0271501Y0317360D01*
X0271598Y0317320D01*
X0271693Y0317277D01*
X0271787Y0317229D01*
X0271879Y0317179D01*
X0271969Y0317125D01*
X0272057Y0317067D01*
X0272142Y0317006D01*
X0272225Y0316942D01*
X0272306Y0316875D01*
X0272384Y0316805D01*
X0272459Y0316731D01*
X0272531Y0316656D01*
X0272601Y0316577D01*
X0272667Y0316496D01*
X0272731Y0316412D01*
X0272791Y0316326D01*
X0272847Y0316238D01*
X0272901Y0316147D01*
X0272951Y0316055D01*
X0272997Y0315961D01*
X0273040Y0315865D01*
X0273079Y0315767D01*
X0273114Y0315669D01*
X0273145Y0315568D01*
X0273173Y0315467D01*
X0273197Y0315365D01*
X0273217Y0315262D01*
X0273233Y0315158D01*
X0273245Y0315054D01*
X0273253Y0314949D01*
X0273257Y0314844D01*
X0273257Y0314740D01*
X0273253Y0314635D01*
X0273245Y0314530D01*
X0273233Y0314426D01*
X0273217Y0314322D01*
X0273197Y0314219D01*
X0273173Y0314117D01*
X0273145Y0314016D01*
X0273114Y0313915D01*
X0273079Y0313817D01*
X0273040Y0313719D01*
X0272997Y0313623D01*
X0272951Y0313529D01*
X0272901Y0313437D01*
X0272847Y0313346D01*
X0272791Y0313258D01*
X0272731Y0313172D01*
X0272667Y0313088D01*
X0272601Y0313007D01*
X0272531Y0312928D01*
X0272459Y0312853D01*
X0272384Y0312779D01*
X0272306Y0312709D01*
X0272225Y0312642D01*
X0272142Y0312578D01*
X0272057Y0312517D01*
X0271969Y0312459D01*
X0271879Y0312405D01*
X0271787Y0312355D01*
X0271693Y0312307D01*
X0271598Y0312264D01*
X0271501Y0312224D01*
X0271402Y0312188D01*
X0271303Y0312155D01*
X0271202Y0312127D01*
X0271100Y0312102D01*
X0270997Y0312081D01*
X0270893Y0312064D01*
X0270789Y0312051D01*
X0270685Y0312042D01*
X0270580Y0312037D01*
X0270475Y0312036D01*
X0270370Y0312039D01*
X0270265Y0312046D01*
X0270161Y0312057D01*
X0270057Y0312072D01*
X0269954Y0312091D01*
X0269851Y0312114D01*
X0269750Y0312140D01*
X0269649Y0312171D01*
X0269550Y0312205D01*
X0269452Y0312243D01*
X0269356Y0312285D01*
X0269262Y0312330D01*
X0269169Y0312379D01*
X0269078Y0312432D01*
X0268989Y0312488D01*
X0268902Y0312547D01*
X0268818Y0312610D01*
X0268736Y0312675D01*
X0268657Y0312744D01*
X0268580Y0312816D01*
X0268506Y0312890D01*
X0268435Y0312967D01*
X0268367Y0313047D01*
X0268303Y0313130D01*
X0268241Y0313215D01*
X0268183Y0313302D01*
X0268127Y0313391D01*
X0268076Y0313483D01*
X0268028Y0313576D01*
X0267983Y0313671D01*
X0267942Y0313768D01*
X0267905Y0313866D01*
X0267872Y0313965D01*
X0267842Y0314066D01*
X0267817Y0314168D01*
X0267795Y0314270D01*
X0267777Y0314374D01*
X0267763Y0314478D01*
X0267753Y0314582D01*
X0267747Y0314687D01*
X0267745Y0314792D01*
X0282312Y0289202D02*
X0282314Y0289310D01*
X0282320Y0289419D01*
X0282330Y0289527D01*
X0282344Y0289634D01*
X0282362Y0289741D01*
X0282383Y0289848D01*
X0282409Y0289953D01*
X0282439Y0290058D01*
X0282472Y0290161D01*
X0282509Y0290263D01*
X0282550Y0290363D01*
X0282594Y0290462D01*
X0282643Y0290560D01*
X0282694Y0290655D01*
X0282749Y0290748D01*
X0282808Y0290840D01*
X0282870Y0290929D01*
X0282935Y0291016D01*
X0283003Y0291100D01*
X0283074Y0291182D01*
X0283148Y0291261D01*
X0283225Y0291337D01*
X0283305Y0291411D01*
X0283388Y0291481D01*
X0283473Y0291549D01*
X0283560Y0291613D01*
X0283650Y0291674D01*
X0283742Y0291732D01*
X0283836Y0291786D01*
X0283932Y0291837D01*
X0284029Y0291884D01*
X0284129Y0291928D01*
X0284230Y0291968D01*
X0284332Y0292004D01*
X0284435Y0292036D01*
X0284540Y0292065D01*
X0284646Y0292089D01*
X0284752Y0292110D01*
X0284859Y0292127D01*
X0284967Y0292140D01*
X0285075Y0292149D01*
X0285184Y0292154D01*
X0285292Y0292155D01*
X0285401Y0292152D01*
X0285509Y0292145D01*
X0285617Y0292134D01*
X0285724Y0292119D01*
X0285831Y0292100D01*
X0285937Y0292077D01*
X0286042Y0292051D01*
X0286147Y0292020D01*
X0286249Y0291986D01*
X0286351Y0291948D01*
X0286451Y0291906D01*
X0286550Y0291861D01*
X0286647Y0291812D01*
X0286741Y0291759D01*
X0286834Y0291703D01*
X0286925Y0291644D01*
X0287014Y0291581D01*
X0287100Y0291516D01*
X0287184Y0291447D01*
X0287265Y0291375D01*
X0287343Y0291300D01*
X0287419Y0291222D01*
X0287492Y0291141D01*
X0287562Y0291058D01*
X0287628Y0290973D01*
X0287692Y0290885D01*
X0287752Y0290794D01*
X0287809Y0290702D01*
X0287862Y0290607D01*
X0287912Y0290511D01*
X0287958Y0290413D01*
X0288001Y0290313D01*
X0288040Y0290212D01*
X0288075Y0290109D01*
X0288107Y0290006D01*
X0288134Y0289901D01*
X0288158Y0289795D01*
X0288178Y0289688D01*
X0288194Y0289581D01*
X0288206Y0289473D01*
X0288214Y0289365D01*
X0288218Y0289256D01*
X0288218Y0289148D01*
X0288214Y0289039D01*
X0288206Y0288931D01*
X0288194Y0288823D01*
X0288178Y0288716D01*
X0288158Y0288609D01*
X0288134Y0288503D01*
X0288107Y0288398D01*
X0288075Y0288295D01*
X0288040Y0288192D01*
X0288001Y0288091D01*
X0287958Y0287991D01*
X0287912Y0287893D01*
X0287862Y0287797D01*
X0287809Y0287702D01*
X0287752Y0287610D01*
X0287692Y0287519D01*
X0287628Y0287431D01*
X0287562Y0287346D01*
X0287492Y0287263D01*
X0287419Y0287182D01*
X0287343Y0287104D01*
X0287265Y0287029D01*
X0287184Y0286957D01*
X0287100Y0286888D01*
X0287014Y0286823D01*
X0286925Y0286760D01*
X0286834Y0286701D01*
X0286742Y0286645D01*
X0286647Y0286592D01*
X0286550Y0286543D01*
X0286451Y0286498D01*
X0286351Y0286456D01*
X0286249Y0286418D01*
X0286147Y0286384D01*
X0286042Y0286353D01*
X0285937Y0286327D01*
X0285831Y0286304D01*
X0285724Y0286285D01*
X0285617Y0286270D01*
X0285509Y0286259D01*
X0285401Y0286252D01*
X0285292Y0286249D01*
X0285184Y0286250D01*
X0285075Y0286255D01*
X0284967Y0286264D01*
X0284859Y0286277D01*
X0284752Y0286294D01*
X0284646Y0286315D01*
X0284540Y0286339D01*
X0284435Y0286368D01*
X0284332Y0286400D01*
X0284230Y0286436D01*
X0284129Y0286476D01*
X0284029Y0286520D01*
X0283932Y0286567D01*
X0283836Y0286618D01*
X0283742Y0286672D01*
X0283650Y0286730D01*
X0283560Y0286791D01*
X0283473Y0286855D01*
X0283388Y0286923D01*
X0283305Y0286993D01*
X0283225Y0287067D01*
X0283148Y0287143D01*
X0283074Y0287222D01*
X0283003Y0287304D01*
X0282935Y0287388D01*
X0282870Y0287475D01*
X0282808Y0287564D01*
X0282749Y0287656D01*
X0282694Y0287749D01*
X0282643Y0287844D01*
X0282594Y0287942D01*
X0282550Y0288041D01*
X0282509Y0288141D01*
X0282472Y0288243D01*
X0282439Y0288346D01*
X0282409Y0288451D01*
X0282383Y0288556D01*
X0282362Y0288663D01*
X0282344Y0288770D01*
X0282330Y0288877D01*
X0282320Y0288985D01*
X0282314Y0289094D01*
X0282312Y0289202D01*
X0297272Y0314792D02*
X0297274Y0314897D01*
X0297280Y0315002D01*
X0297290Y0315106D01*
X0297304Y0315210D01*
X0297322Y0315314D01*
X0297344Y0315416D01*
X0297369Y0315518D01*
X0297399Y0315619D01*
X0297432Y0315718D01*
X0297469Y0315816D01*
X0297510Y0315913D01*
X0297555Y0316008D01*
X0297603Y0316101D01*
X0297654Y0316193D01*
X0297710Y0316282D01*
X0297768Y0316369D01*
X0297830Y0316454D01*
X0297894Y0316537D01*
X0297962Y0316617D01*
X0298033Y0316694D01*
X0298107Y0316768D01*
X0298184Y0316840D01*
X0298263Y0316909D01*
X0298345Y0316974D01*
X0298429Y0317037D01*
X0298516Y0317096D01*
X0298605Y0317152D01*
X0298696Y0317205D01*
X0298789Y0317254D01*
X0298883Y0317299D01*
X0298979Y0317341D01*
X0299077Y0317379D01*
X0299176Y0317413D01*
X0299277Y0317444D01*
X0299378Y0317470D01*
X0299481Y0317493D01*
X0299584Y0317512D01*
X0299688Y0317527D01*
X0299792Y0317538D01*
X0299897Y0317545D01*
X0300002Y0317548D01*
X0300107Y0317547D01*
X0300212Y0317542D01*
X0300316Y0317533D01*
X0300420Y0317520D01*
X0300524Y0317503D01*
X0300627Y0317482D01*
X0300729Y0317457D01*
X0300830Y0317429D01*
X0300929Y0317396D01*
X0301028Y0317360D01*
X0301125Y0317320D01*
X0301220Y0317277D01*
X0301314Y0317229D01*
X0301406Y0317179D01*
X0301496Y0317125D01*
X0301584Y0317067D01*
X0301669Y0317006D01*
X0301752Y0316942D01*
X0301833Y0316875D01*
X0301911Y0316805D01*
X0301986Y0316731D01*
X0302058Y0316656D01*
X0302128Y0316577D01*
X0302194Y0316496D01*
X0302258Y0316412D01*
X0302318Y0316326D01*
X0302374Y0316238D01*
X0302428Y0316147D01*
X0302478Y0316055D01*
X0302524Y0315961D01*
X0302567Y0315865D01*
X0302606Y0315767D01*
X0302641Y0315669D01*
X0302672Y0315568D01*
X0302700Y0315467D01*
X0302724Y0315365D01*
X0302744Y0315262D01*
X0302760Y0315158D01*
X0302772Y0315054D01*
X0302780Y0314949D01*
X0302784Y0314844D01*
X0302784Y0314740D01*
X0302780Y0314635D01*
X0302772Y0314530D01*
X0302760Y0314426D01*
X0302744Y0314322D01*
X0302724Y0314219D01*
X0302700Y0314117D01*
X0302672Y0314016D01*
X0302641Y0313915D01*
X0302606Y0313817D01*
X0302567Y0313719D01*
X0302524Y0313623D01*
X0302478Y0313529D01*
X0302428Y0313437D01*
X0302374Y0313346D01*
X0302318Y0313258D01*
X0302258Y0313172D01*
X0302194Y0313088D01*
X0302128Y0313007D01*
X0302058Y0312928D01*
X0301986Y0312853D01*
X0301911Y0312779D01*
X0301833Y0312709D01*
X0301752Y0312642D01*
X0301669Y0312578D01*
X0301584Y0312517D01*
X0301496Y0312459D01*
X0301406Y0312405D01*
X0301314Y0312355D01*
X0301220Y0312307D01*
X0301125Y0312264D01*
X0301028Y0312224D01*
X0300929Y0312188D01*
X0300830Y0312155D01*
X0300729Y0312127D01*
X0300627Y0312102D01*
X0300524Y0312081D01*
X0300420Y0312064D01*
X0300316Y0312051D01*
X0300212Y0312042D01*
X0300107Y0312037D01*
X0300002Y0312036D01*
X0299897Y0312039D01*
X0299792Y0312046D01*
X0299688Y0312057D01*
X0299584Y0312072D01*
X0299481Y0312091D01*
X0299378Y0312114D01*
X0299277Y0312140D01*
X0299176Y0312171D01*
X0299077Y0312205D01*
X0298979Y0312243D01*
X0298883Y0312285D01*
X0298789Y0312330D01*
X0298696Y0312379D01*
X0298605Y0312432D01*
X0298516Y0312488D01*
X0298429Y0312547D01*
X0298345Y0312610D01*
X0298263Y0312675D01*
X0298184Y0312744D01*
X0298107Y0312816D01*
X0298033Y0312890D01*
X0297962Y0312967D01*
X0297894Y0313047D01*
X0297830Y0313130D01*
X0297768Y0313215D01*
X0297710Y0313302D01*
X0297654Y0313391D01*
X0297603Y0313483D01*
X0297555Y0313576D01*
X0297510Y0313671D01*
X0297469Y0313768D01*
X0297432Y0313866D01*
X0297399Y0313965D01*
X0297369Y0314066D01*
X0297344Y0314168D01*
X0297322Y0314270D01*
X0297304Y0314374D01*
X0297290Y0314478D01*
X0297280Y0314582D01*
X0297274Y0314687D01*
X0297272Y0314792D01*
X0423060Y0308887D02*
X0423062Y0309080D01*
X0423069Y0309273D01*
X0423081Y0309466D01*
X0423098Y0309659D01*
X0423119Y0309851D01*
X0423145Y0310042D01*
X0423176Y0310233D01*
X0423211Y0310423D01*
X0423251Y0310612D01*
X0423296Y0310800D01*
X0423345Y0310987D01*
X0423399Y0311173D01*
X0423457Y0311357D01*
X0423520Y0311540D01*
X0423588Y0311721D01*
X0423659Y0311900D01*
X0423736Y0312078D01*
X0423816Y0312254D01*
X0423901Y0312427D01*
X0423990Y0312599D01*
X0424083Y0312768D01*
X0424180Y0312935D01*
X0424282Y0313100D01*
X0424387Y0313262D01*
X0424496Y0313421D01*
X0424610Y0313578D01*
X0424727Y0313731D01*
X0424847Y0313882D01*
X0424972Y0314030D01*
X0425100Y0314175D01*
X0425231Y0314316D01*
X0425366Y0314455D01*
X0425505Y0314590D01*
X0425646Y0314721D01*
X0425791Y0314849D01*
X0425939Y0314974D01*
X0426090Y0315094D01*
X0426243Y0315211D01*
X0426400Y0315325D01*
X0426559Y0315434D01*
X0426721Y0315539D01*
X0426886Y0315641D01*
X0427053Y0315738D01*
X0427222Y0315831D01*
X0427394Y0315920D01*
X0427567Y0316005D01*
X0427743Y0316085D01*
X0427921Y0316162D01*
X0428100Y0316233D01*
X0428281Y0316301D01*
X0428464Y0316364D01*
X0428648Y0316422D01*
X0428834Y0316476D01*
X0429021Y0316525D01*
X0429209Y0316570D01*
X0429398Y0316610D01*
X0429588Y0316645D01*
X0429779Y0316676D01*
X0429970Y0316702D01*
X0430162Y0316723D01*
X0430355Y0316740D01*
X0430548Y0316752D01*
X0430741Y0316759D01*
X0430934Y0316761D01*
X0431127Y0316759D01*
X0431320Y0316752D01*
X0431513Y0316740D01*
X0431706Y0316723D01*
X0431898Y0316702D01*
X0432089Y0316676D01*
X0432280Y0316645D01*
X0432470Y0316610D01*
X0432659Y0316570D01*
X0432847Y0316525D01*
X0433034Y0316476D01*
X0433220Y0316422D01*
X0433404Y0316364D01*
X0433587Y0316301D01*
X0433768Y0316233D01*
X0433947Y0316162D01*
X0434125Y0316085D01*
X0434301Y0316005D01*
X0434474Y0315920D01*
X0434646Y0315831D01*
X0434815Y0315738D01*
X0434982Y0315641D01*
X0435147Y0315539D01*
X0435309Y0315434D01*
X0435468Y0315325D01*
X0435625Y0315211D01*
X0435778Y0315094D01*
X0435929Y0314974D01*
X0436077Y0314849D01*
X0436222Y0314721D01*
X0436363Y0314590D01*
X0436502Y0314455D01*
X0436637Y0314316D01*
X0436768Y0314175D01*
X0436896Y0314030D01*
X0437021Y0313882D01*
X0437141Y0313731D01*
X0437258Y0313578D01*
X0437372Y0313421D01*
X0437481Y0313262D01*
X0437586Y0313100D01*
X0437688Y0312935D01*
X0437785Y0312768D01*
X0437878Y0312599D01*
X0437967Y0312427D01*
X0438052Y0312254D01*
X0438132Y0312078D01*
X0438209Y0311900D01*
X0438280Y0311721D01*
X0438348Y0311540D01*
X0438411Y0311357D01*
X0438469Y0311173D01*
X0438523Y0310987D01*
X0438572Y0310800D01*
X0438617Y0310612D01*
X0438657Y0310423D01*
X0438692Y0310233D01*
X0438723Y0310042D01*
X0438749Y0309851D01*
X0438770Y0309659D01*
X0438787Y0309466D01*
X0438799Y0309273D01*
X0438806Y0309080D01*
X0438808Y0308887D01*
X0438806Y0308694D01*
X0438799Y0308501D01*
X0438787Y0308308D01*
X0438770Y0308115D01*
X0438749Y0307923D01*
X0438723Y0307732D01*
X0438692Y0307541D01*
X0438657Y0307351D01*
X0438617Y0307162D01*
X0438572Y0306974D01*
X0438523Y0306787D01*
X0438469Y0306601D01*
X0438411Y0306417D01*
X0438348Y0306234D01*
X0438280Y0306053D01*
X0438209Y0305874D01*
X0438132Y0305696D01*
X0438052Y0305520D01*
X0437967Y0305347D01*
X0437878Y0305175D01*
X0437785Y0305006D01*
X0437688Y0304839D01*
X0437586Y0304674D01*
X0437481Y0304512D01*
X0437372Y0304353D01*
X0437258Y0304196D01*
X0437141Y0304043D01*
X0437021Y0303892D01*
X0436896Y0303744D01*
X0436768Y0303599D01*
X0436637Y0303458D01*
X0436502Y0303319D01*
X0436363Y0303184D01*
X0436222Y0303053D01*
X0436077Y0302925D01*
X0435929Y0302800D01*
X0435778Y0302680D01*
X0435625Y0302563D01*
X0435468Y0302449D01*
X0435309Y0302340D01*
X0435147Y0302235D01*
X0434982Y0302133D01*
X0434815Y0302036D01*
X0434646Y0301943D01*
X0434474Y0301854D01*
X0434301Y0301769D01*
X0434125Y0301689D01*
X0433947Y0301612D01*
X0433768Y0301541D01*
X0433587Y0301473D01*
X0433404Y0301410D01*
X0433220Y0301352D01*
X0433034Y0301298D01*
X0432847Y0301249D01*
X0432659Y0301204D01*
X0432470Y0301164D01*
X0432280Y0301129D01*
X0432089Y0301098D01*
X0431898Y0301072D01*
X0431706Y0301051D01*
X0431513Y0301034D01*
X0431320Y0301022D01*
X0431127Y0301015D01*
X0430934Y0301013D01*
X0430741Y0301015D01*
X0430548Y0301022D01*
X0430355Y0301034D01*
X0430162Y0301051D01*
X0429970Y0301072D01*
X0429779Y0301098D01*
X0429588Y0301129D01*
X0429398Y0301164D01*
X0429209Y0301204D01*
X0429021Y0301249D01*
X0428834Y0301298D01*
X0428648Y0301352D01*
X0428464Y0301410D01*
X0428281Y0301473D01*
X0428100Y0301541D01*
X0427921Y0301612D01*
X0427743Y0301689D01*
X0427567Y0301769D01*
X0427394Y0301854D01*
X0427222Y0301943D01*
X0427053Y0302036D01*
X0426886Y0302133D01*
X0426721Y0302235D01*
X0426559Y0302340D01*
X0426400Y0302449D01*
X0426243Y0302563D01*
X0426090Y0302680D01*
X0425939Y0302800D01*
X0425791Y0302925D01*
X0425646Y0303053D01*
X0425505Y0303184D01*
X0425366Y0303319D01*
X0425231Y0303458D01*
X0425100Y0303599D01*
X0424972Y0303744D01*
X0424847Y0303892D01*
X0424727Y0304043D01*
X0424610Y0304196D01*
X0424496Y0304353D01*
X0424387Y0304512D01*
X0424282Y0304674D01*
X0424180Y0304839D01*
X0424083Y0305006D01*
X0423990Y0305175D01*
X0423901Y0305347D01*
X0423816Y0305520D01*
X0423736Y0305696D01*
X0423659Y0305874D01*
X0423588Y0306053D01*
X0423520Y0306234D01*
X0423457Y0306417D01*
X0423399Y0306601D01*
X0423345Y0306787D01*
X0423296Y0306974D01*
X0423251Y0307162D01*
X0423211Y0307351D01*
X0423176Y0307541D01*
X0423145Y0307732D01*
X0423119Y0307923D01*
X0423098Y0308115D01*
X0423081Y0308308D01*
X0423069Y0308501D01*
X0423062Y0308694D01*
X0423060Y0308887D01*
X0425028Y0060855D02*
X0425030Y0061008D01*
X0425036Y0061162D01*
X0425046Y0061315D01*
X0425060Y0061467D01*
X0425078Y0061620D01*
X0425100Y0061771D01*
X0425125Y0061922D01*
X0425155Y0062073D01*
X0425189Y0062223D01*
X0425226Y0062371D01*
X0425267Y0062519D01*
X0425312Y0062665D01*
X0425361Y0062811D01*
X0425414Y0062955D01*
X0425470Y0063097D01*
X0425530Y0063238D01*
X0425594Y0063378D01*
X0425661Y0063516D01*
X0425732Y0063652D01*
X0425807Y0063786D01*
X0425884Y0063918D01*
X0425966Y0064048D01*
X0426050Y0064176D01*
X0426138Y0064302D01*
X0426229Y0064425D01*
X0426323Y0064546D01*
X0426421Y0064664D01*
X0426521Y0064780D01*
X0426625Y0064893D01*
X0426731Y0065004D01*
X0426840Y0065112D01*
X0426952Y0065217D01*
X0427066Y0065318D01*
X0427184Y0065417D01*
X0427303Y0065513D01*
X0427425Y0065606D01*
X0427550Y0065695D01*
X0427677Y0065782D01*
X0427806Y0065864D01*
X0427937Y0065944D01*
X0428070Y0066020D01*
X0428205Y0066093D01*
X0428342Y0066162D01*
X0428481Y0066227D01*
X0428621Y0066289D01*
X0428763Y0066347D01*
X0428906Y0066402D01*
X0429051Y0066453D01*
X0429197Y0066500D01*
X0429344Y0066543D01*
X0429492Y0066582D01*
X0429641Y0066618D01*
X0429791Y0066649D01*
X0429942Y0066677D01*
X0430093Y0066701D01*
X0430246Y0066721D01*
X0430398Y0066737D01*
X0430551Y0066749D01*
X0430704Y0066757D01*
X0430857Y0066761D01*
X0431011Y0066761D01*
X0431164Y0066757D01*
X0431317Y0066749D01*
X0431470Y0066737D01*
X0431622Y0066721D01*
X0431775Y0066701D01*
X0431926Y0066677D01*
X0432077Y0066649D01*
X0432227Y0066618D01*
X0432376Y0066582D01*
X0432524Y0066543D01*
X0432671Y0066500D01*
X0432817Y0066453D01*
X0432962Y0066402D01*
X0433105Y0066347D01*
X0433247Y0066289D01*
X0433387Y0066227D01*
X0433526Y0066162D01*
X0433663Y0066093D01*
X0433798Y0066020D01*
X0433931Y0065944D01*
X0434062Y0065864D01*
X0434191Y0065782D01*
X0434318Y0065695D01*
X0434443Y0065606D01*
X0434565Y0065513D01*
X0434684Y0065417D01*
X0434802Y0065318D01*
X0434916Y0065217D01*
X0435028Y0065112D01*
X0435137Y0065004D01*
X0435243Y0064893D01*
X0435347Y0064780D01*
X0435447Y0064664D01*
X0435545Y0064546D01*
X0435639Y0064425D01*
X0435730Y0064302D01*
X0435818Y0064176D01*
X0435902Y0064048D01*
X0435984Y0063918D01*
X0436061Y0063786D01*
X0436136Y0063652D01*
X0436207Y0063516D01*
X0436274Y0063378D01*
X0436338Y0063238D01*
X0436398Y0063097D01*
X0436454Y0062955D01*
X0436507Y0062811D01*
X0436556Y0062665D01*
X0436601Y0062519D01*
X0436642Y0062371D01*
X0436679Y0062223D01*
X0436713Y0062073D01*
X0436743Y0061922D01*
X0436768Y0061771D01*
X0436790Y0061620D01*
X0436808Y0061467D01*
X0436822Y0061315D01*
X0436832Y0061162D01*
X0436838Y0061008D01*
X0436840Y0060855D01*
X0436838Y0060702D01*
X0436832Y0060548D01*
X0436822Y0060395D01*
X0436808Y0060243D01*
X0436790Y0060090D01*
X0436768Y0059939D01*
X0436743Y0059788D01*
X0436713Y0059637D01*
X0436679Y0059487D01*
X0436642Y0059339D01*
X0436601Y0059191D01*
X0436556Y0059045D01*
X0436507Y0058899D01*
X0436454Y0058755D01*
X0436398Y0058613D01*
X0436338Y0058472D01*
X0436274Y0058332D01*
X0436207Y0058194D01*
X0436136Y0058058D01*
X0436061Y0057924D01*
X0435984Y0057792D01*
X0435902Y0057662D01*
X0435818Y0057534D01*
X0435730Y0057408D01*
X0435639Y0057285D01*
X0435545Y0057164D01*
X0435447Y0057046D01*
X0435347Y0056930D01*
X0435243Y0056817D01*
X0435137Y0056706D01*
X0435028Y0056598D01*
X0434916Y0056493D01*
X0434802Y0056392D01*
X0434684Y0056293D01*
X0434565Y0056197D01*
X0434443Y0056104D01*
X0434318Y0056015D01*
X0434191Y0055928D01*
X0434062Y0055846D01*
X0433931Y0055766D01*
X0433798Y0055690D01*
X0433663Y0055617D01*
X0433526Y0055548D01*
X0433387Y0055483D01*
X0433247Y0055421D01*
X0433105Y0055363D01*
X0432962Y0055308D01*
X0432817Y0055257D01*
X0432671Y0055210D01*
X0432524Y0055167D01*
X0432376Y0055128D01*
X0432227Y0055092D01*
X0432077Y0055061D01*
X0431926Y0055033D01*
X0431775Y0055009D01*
X0431622Y0054989D01*
X0431470Y0054973D01*
X0431317Y0054961D01*
X0431164Y0054953D01*
X0431011Y0054949D01*
X0430857Y0054949D01*
X0430704Y0054953D01*
X0430551Y0054961D01*
X0430398Y0054973D01*
X0430246Y0054989D01*
X0430093Y0055009D01*
X0429942Y0055033D01*
X0429791Y0055061D01*
X0429641Y0055092D01*
X0429492Y0055128D01*
X0429344Y0055167D01*
X0429197Y0055210D01*
X0429051Y0055257D01*
X0428906Y0055308D01*
X0428763Y0055363D01*
X0428621Y0055421D01*
X0428481Y0055483D01*
X0428342Y0055548D01*
X0428205Y0055617D01*
X0428070Y0055690D01*
X0427937Y0055766D01*
X0427806Y0055846D01*
X0427677Y0055928D01*
X0427550Y0056015D01*
X0427425Y0056104D01*
X0427303Y0056197D01*
X0427184Y0056293D01*
X0427066Y0056392D01*
X0426952Y0056493D01*
X0426840Y0056598D01*
X0426731Y0056706D01*
X0426625Y0056817D01*
X0426521Y0056930D01*
X0426421Y0057046D01*
X0426323Y0057164D01*
X0426229Y0057285D01*
X0426138Y0057408D01*
X0426050Y0057534D01*
X0425966Y0057662D01*
X0425884Y0057792D01*
X0425807Y0057924D01*
X0425732Y0058058D01*
X0425661Y0058194D01*
X0425594Y0058332D01*
X0425530Y0058472D01*
X0425470Y0058613D01*
X0425414Y0058755D01*
X0425361Y0058899D01*
X0425312Y0059045D01*
X0425267Y0059191D01*
X0425226Y0059339D01*
X0425189Y0059487D01*
X0425155Y0059637D01*
X0425125Y0059788D01*
X0425100Y0059939D01*
X0425078Y0060090D01*
X0425060Y0060243D01*
X0425046Y0060395D01*
X0425036Y0060548D01*
X0425030Y0060702D01*
X0425028Y0060855D01*
X0423060Y0021485D02*
X0423062Y0021678D01*
X0423069Y0021871D01*
X0423081Y0022064D01*
X0423098Y0022257D01*
X0423119Y0022449D01*
X0423145Y0022640D01*
X0423176Y0022831D01*
X0423211Y0023021D01*
X0423251Y0023210D01*
X0423296Y0023398D01*
X0423345Y0023585D01*
X0423399Y0023771D01*
X0423457Y0023955D01*
X0423520Y0024138D01*
X0423588Y0024319D01*
X0423659Y0024498D01*
X0423736Y0024676D01*
X0423816Y0024852D01*
X0423901Y0025025D01*
X0423990Y0025197D01*
X0424083Y0025366D01*
X0424180Y0025533D01*
X0424282Y0025698D01*
X0424387Y0025860D01*
X0424496Y0026019D01*
X0424610Y0026176D01*
X0424727Y0026329D01*
X0424847Y0026480D01*
X0424972Y0026628D01*
X0425100Y0026773D01*
X0425231Y0026914D01*
X0425366Y0027053D01*
X0425505Y0027188D01*
X0425646Y0027319D01*
X0425791Y0027447D01*
X0425939Y0027572D01*
X0426090Y0027692D01*
X0426243Y0027809D01*
X0426400Y0027923D01*
X0426559Y0028032D01*
X0426721Y0028137D01*
X0426886Y0028239D01*
X0427053Y0028336D01*
X0427222Y0028429D01*
X0427394Y0028518D01*
X0427567Y0028603D01*
X0427743Y0028683D01*
X0427921Y0028760D01*
X0428100Y0028831D01*
X0428281Y0028899D01*
X0428464Y0028962D01*
X0428648Y0029020D01*
X0428834Y0029074D01*
X0429021Y0029123D01*
X0429209Y0029168D01*
X0429398Y0029208D01*
X0429588Y0029243D01*
X0429779Y0029274D01*
X0429970Y0029300D01*
X0430162Y0029321D01*
X0430355Y0029338D01*
X0430548Y0029350D01*
X0430741Y0029357D01*
X0430934Y0029359D01*
X0431127Y0029357D01*
X0431320Y0029350D01*
X0431513Y0029338D01*
X0431706Y0029321D01*
X0431898Y0029300D01*
X0432089Y0029274D01*
X0432280Y0029243D01*
X0432470Y0029208D01*
X0432659Y0029168D01*
X0432847Y0029123D01*
X0433034Y0029074D01*
X0433220Y0029020D01*
X0433404Y0028962D01*
X0433587Y0028899D01*
X0433768Y0028831D01*
X0433947Y0028760D01*
X0434125Y0028683D01*
X0434301Y0028603D01*
X0434474Y0028518D01*
X0434646Y0028429D01*
X0434815Y0028336D01*
X0434982Y0028239D01*
X0435147Y0028137D01*
X0435309Y0028032D01*
X0435468Y0027923D01*
X0435625Y0027809D01*
X0435778Y0027692D01*
X0435929Y0027572D01*
X0436077Y0027447D01*
X0436222Y0027319D01*
X0436363Y0027188D01*
X0436502Y0027053D01*
X0436637Y0026914D01*
X0436768Y0026773D01*
X0436896Y0026628D01*
X0437021Y0026480D01*
X0437141Y0026329D01*
X0437258Y0026176D01*
X0437372Y0026019D01*
X0437481Y0025860D01*
X0437586Y0025698D01*
X0437688Y0025533D01*
X0437785Y0025366D01*
X0437878Y0025197D01*
X0437967Y0025025D01*
X0438052Y0024852D01*
X0438132Y0024676D01*
X0438209Y0024498D01*
X0438280Y0024319D01*
X0438348Y0024138D01*
X0438411Y0023955D01*
X0438469Y0023771D01*
X0438523Y0023585D01*
X0438572Y0023398D01*
X0438617Y0023210D01*
X0438657Y0023021D01*
X0438692Y0022831D01*
X0438723Y0022640D01*
X0438749Y0022449D01*
X0438770Y0022257D01*
X0438787Y0022064D01*
X0438799Y0021871D01*
X0438806Y0021678D01*
X0438808Y0021485D01*
X0438806Y0021292D01*
X0438799Y0021099D01*
X0438787Y0020906D01*
X0438770Y0020713D01*
X0438749Y0020521D01*
X0438723Y0020330D01*
X0438692Y0020139D01*
X0438657Y0019949D01*
X0438617Y0019760D01*
X0438572Y0019572D01*
X0438523Y0019385D01*
X0438469Y0019199D01*
X0438411Y0019015D01*
X0438348Y0018832D01*
X0438280Y0018651D01*
X0438209Y0018472D01*
X0438132Y0018294D01*
X0438052Y0018118D01*
X0437967Y0017945D01*
X0437878Y0017773D01*
X0437785Y0017604D01*
X0437688Y0017437D01*
X0437586Y0017272D01*
X0437481Y0017110D01*
X0437372Y0016951D01*
X0437258Y0016794D01*
X0437141Y0016641D01*
X0437021Y0016490D01*
X0436896Y0016342D01*
X0436768Y0016197D01*
X0436637Y0016056D01*
X0436502Y0015917D01*
X0436363Y0015782D01*
X0436222Y0015651D01*
X0436077Y0015523D01*
X0435929Y0015398D01*
X0435778Y0015278D01*
X0435625Y0015161D01*
X0435468Y0015047D01*
X0435309Y0014938D01*
X0435147Y0014833D01*
X0434982Y0014731D01*
X0434815Y0014634D01*
X0434646Y0014541D01*
X0434474Y0014452D01*
X0434301Y0014367D01*
X0434125Y0014287D01*
X0433947Y0014210D01*
X0433768Y0014139D01*
X0433587Y0014071D01*
X0433404Y0014008D01*
X0433220Y0013950D01*
X0433034Y0013896D01*
X0432847Y0013847D01*
X0432659Y0013802D01*
X0432470Y0013762D01*
X0432280Y0013727D01*
X0432089Y0013696D01*
X0431898Y0013670D01*
X0431706Y0013649D01*
X0431513Y0013632D01*
X0431320Y0013620D01*
X0431127Y0013613D01*
X0430934Y0013611D01*
X0430741Y0013613D01*
X0430548Y0013620D01*
X0430355Y0013632D01*
X0430162Y0013649D01*
X0429970Y0013670D01*
X0429779Y0013696D01*
X0429588Y0013727D01*
X0429398Y0013762D01*
X0429209Y0013802D01*
X0429021Y0013847D01*
X0428834Y0013896D01*
X0428648Y0013950D01*
X0428464Y0014008D01*
X0428281Y0014071D01*
X0428100Y0014139D01*
X0427921Y0014210D01*
X0427743Y0014287D01*
X0427567Y0014367D01*
X0427394Y0014452D01*
X0427222Y0014541D01*
X0427053Y0014634D01*
X0426886Y0014731D01*
X0426721Y0014833D01*
X0426559Y0014938D01*
X0426400Y0015047D01*
X0426243Y0015161D01*
X0426090Y0015278D01*
X0425939Y0015398D01*
X0425791Y0015523D01*
X0425646Y0015651D01*
X0425505Y0015782D01*
X0425366Y0015917D01*
X0425231Y0016056D01*
X0425100Y0016197D01*
X0424972Y0016342D01*
X0424847Y0016490D01*
X0424727Y0016641D01*
X0424610Y0016794D01*
X0424496Y0016951D01*
X0424387Y0017110D01*
X0424282Y0017272D01*
X0424180Y0017437D01*
X0424083Y0017604D01*
X0423990Y0017773D01*
X0423901Y0017945D01*
X0423816Y0018118D01*
X0423736Y0018294D01*
X0423659Y0018472D01*
X0423588Y0018651D01*
X0423520Y0018832D01*
X0423457Y0019015D01*
X0423399Y0019199D01*
X0423345Y0019385D01*
X0423296Y0019572D01*
X0423251Y0019760D01*
X0423211Y0019949D01*
X0423176Y0020139D01*
X0423145Y0020330D01*
X0423119Y0020521D01*
X0423098Y0020713D01*
X0423081Y0020906D01*
X0423069Y0021099D01*
X0423062Y0021292D01*
X0423060Y0021485D01*
X0009674Y0308887D02*
X0009676Y0309080D01*
X0009683Y0309273D01*
X0009695Y0309466D01*
X0009712Y0309659D01*
X0009733Y0309851D01*
X0009759Y0310042D01*
X0009790Y0310233D01*
X0009825Y0310423D01*
X0009865Y0310612D01*
X0009910Y0310800D01*
X0009959Y0310987D01*
X0010013Y0311173D01*
X0010071Y0311357D01*
X0010134Y0311540D01*
X0010202Y0311721D01*
X0010273Y0311900D01*
X0010350Y0312078D01*
X0010430Y0312254D01*
X0010515Y0312427D01*
X0010604Y0312599D01*
X0010697Y0312768D01*
X0010794Y0312935D01*
X0010896Y0313100D01*
X0011001Y0313262D01*
X0011110Y0313421D01*
X0011224Y0313578D01*
X0011341Y0313731D01*
X0011461Y0313882D01*
X0011586Y0314030D01*
X0011714Y0314175D01*
X0011845Y0314316D01*
X0011980Y0314455D01*
X0012119Y0314590D01*
X0012260Y0314721D01*
X0012405Y0314849D01*
X0012553Y0314974D01*
X0012704Y0315094D01*
X0012857Y0315211D01*
X0013014Y0315325D01*
X0013173Y0315434D01*
X0013335Y0315539D01*
X0013500Y0315641D01*
X0013667Y0315738D01*
X0013836Y0315831D01*
X0014008Y0315920D01*
X0014181Y0316005D01*
X0014357Y0316085D01*
X0014535Y0316162D01*
X0014714Y0316233D01*
X0014895Y0316301D01*
X0015078Y0316364D01*
X0015262Y0316422D01*
X0015448Y0316476D01*
X0015635Y0316525D01*
X0015823Y0316570D01*
X0016012Y0316610D01*
X0016202Y0316645D01*
X0016393Y0316676D01*
X0016584Y0316702D01*
X0016776Y0316723D01*
X0016969Y0316740D01*
X0017162Y0316752D01*
X0017355Y0316759D01*
X0017548Y0316761D01*
X0017741Y0316759D01*
X0017934Y0316752D01*
X0018127Y0316740D01*
X0018320Y0316723D01*
X0018512Y0316702D01*
X0018703Y0316676D01*
X0018894Y0316645D01*
X0019084Y0316610D01*
X0019273Y0316570D01*
X0019461Y0316525D01*
X0019648Y0316476D01*
X0019834Y0316422D01*
X0020018Y0316364D01*
X0020201Y0316301D01*
X0020382Y0316233D01*
X0020561Y0316162D01*
X0020739Y0316085D01*
X0020915Y0316005D01*
X0021088Y0315920D01*
X0021260Y0315831D01*
X0021429Y0315738D01*
X0021596Y0315641D01*
X0021761Y0315539D01*
X0021923Y0315434D01*
X0022082Y0315325D01*
X0022239Y0315211D01*
X0022392Y0315094D01*
X0022543Y0314974D01*
X0022691Y0314849D01*
X0022836Y0314721D01*
X0022977Y0314590D01*
X0023116Y0314455D01*
X0023251Y0314316D01*
X0023382Y0314175D01*
X0023510Y0314030D01*
X0023635Y0313882D01*
X0023755Y0313731D01*
X0023872Y0313578D01*
X0023986Y0313421D01*
X0024095Y0313262D01*
X0024200Y0313100D01*
X0024302Y0312935D01*
X0024399Y0312768D01*
X0024492Y0312599D01*
X0024581Y0312427D01*
X0024666Y0312254D01*
X0024746Y0312078D01*
X0024823Y0311900D01*
X0024894Y0311721D01*
X0024962Y0311540D01*
X0025025Y0311357D01*
X0025083Y0311173D01*
X0025137Y0310987D01*
X0025186Y0310800D01*
X0025231Y0310612D01*
X0025271Y0310423D01*
X0025306Y0310233D01*
X0025337Y0310042D01*
X0025363Y0309851D01*
X0025384Y0309659D01*
X0025401Y0309466D01*
X0025413Y0309273D01*
X0025420Y0309080D01*
X0025422Y0308887D01*
X0025420Y0308694D01*
X0025413Y0308501D01*
X0025401Y0308308D01*
X0025384Y0308115D01*
X0025363Y0307923D01*
X0025337Y0307732D01*
X0025306Y0307541D01*
X0025271Y0307351D01*
X0025231Y0307162D01*
X0025186Y0306974D01*
X0025137Y0306787D01*
X0025083Y0306601D01*
X0025025Y0306417D01*
X0024962Y0306234D01*
X0024894Y0306053D01*
X0024823Y0305874D01*
X0024746Y0305696D01*
X0024666Y0305520D01*
X0024581Y0305347D01*
X0024492Y0305175D01*
X0024399Y0305006D01*
X0024302Y0304839D01*
X0024200Y0304674D01*
X0024095Y0304512D01*
X0023986Y0304353D01*
X0023872Y0304196D01*
X0023755Y0304043D01*
X0023635Y0303892D01*
X0023510Y0303744D01*
X0023382Y0303599D01*
X0023251Y0303458D01*
X0023116Y0303319D01*
X0022977Y0303184D01*
X0022836Y0303053D01*
X0022691Y0302925D01*
X0022543Y0302800D01*
X0022392Y0302680D01*
X0022239Y0302563D01*
X0022082Y0302449D01*
X0021923Y0302340D01*
X0021761Y0302235D01*
X0021596Y0302133D01*
X0021429Y0302036D01*
X0021260Y0301943D01*
X0021088Y0301854D01*
X0020915Y0301769D01*
X0020739Y0301689D01*
X0020561Y0301612D01*
X0020382Y0301541D01*
X0020201Y0301473D01*
X0020018Y0301410D01*
X0019834Y0301352D01*
X0019648Y0301298D01*
X0019461Y0301249D01*
X0019273Y0301204D01*
X0019084Y0301164D01*
X0018894Y0301129D01*
X0018703Y0301098D01*
X0018512Y0301072D01*
X0018320Y0301051D01*
X0018127Y0301034D01*
X0017934Y0301022D01*
X0017741Y0301015D01*
X0017548Y0301013D01*
X0017355Y0301015D01*
X0017162Y0301022D01*
X0016969Y0301034D01*
X0016776Y0301051D01*
X0016584Y0301072D01*
X0016393Y0301098D01*
X0016202Y0301129D01*
X0016012Y0301164D01*
X0015823Y0301204D01*
X0015635Y0301249D01*
X0015448Y0301298D01*
X0015262Y0301352D01*
X0015078Y0301410D01*
X0014895Y0301473D01*
X0014714Y0301541D01*
X0014535Y0301612D01*
X0014357Y0301689D01*
X0014181Y0301769D01*
X0014008Y0301854D01*
X0013836Y0301943D01*
X0013667Y0302036D01*
X0013500Y0302133D01*
X0013335Y0302235D01*
X0013173Y0302340D01*
X0013014Y0302449D01*
X0012857Y0302563D01*
X0012704Y0302680D01*
X0012553Y0302800D01*
X0012405Y0302925D01*
X0012260Y0303053D01*
X0012119Y0303184D01*
X0011980Y0303319D01*
X0011845Y0303458D01*
X0011714Y0303599D01*
X0011586Y0303744D01*
X0011461Y0303892D01*
X0011341Y0304043D01*
X0011224Y0304196D01*
X0011110Y0304353D01*
X0011001Y0304512D01*
X0010896Y0304674D01*
X0010794Y0304839D01*
X0010697Y0305006D01*
X0010604Y0305175D01*
X0010515Y0305347D01*
X0010430Y0305520D01*
X0010350Y0305696D01*
X0010273Y0305874D01*
X0010202Y0306053D01*
X0010134Y0306234D01*
X0010071Y0306417D01*
X0010013Y0306601D01*
X0009959Y0306787D01*
X0009910Y0306974D01*
X0009865Y0307162D01*
X0009825Y0307351D01*
X0009790Y0307541D01*
X0009759Y0307732D01*
X0009733Y0307923D01*
X0009712Y0308115D01*
X0009695Y0308308D01*
X0009683Y0308501D01*
X0009676Y0308694D01*
X0009674Y0308887D01*
D68*
X0056918Y0307902D02*
X0056918Y0275225D01*
X0057115Y0300028D02*
X0058099Y0300028D01*
X0058099Y0307902D01*
X0056918Y0307902D01*
X0056918Y0325619D01*
X0112036Y0325619D02*
X0112036Y0307902D01*
X0110855Y0307902D01*
X0110855Y0300028D01*
X0112036Y0300028D01*
X0112036Y0307902D01*
X0112036Y0300028D02*
X0112036Y0275422D01*
X0230500Y0250653D02*
X0230500Y0247046D01*
X0231402Y0246144D01*
X0233205Y0246144D01*
X0234107Y0247046D01*
X0230500Y0250653D01*
X0231402Y0251555D01*
X0233205Y0251555D01*
X0234107Y0250653D01*
X0234107Y0247046D01*
X0235924Y0247046D02*
X0235924Y0246144D01*
X0236826Y0246144D01*
X0236826Y0247046D01*
X0235924Y0247046D01*
X0238656Y0246144D02*
X0242263Y0246144D01*
X0240460Y0246144D02*
X0240460Y0251555D01*
X0242263Y0249751D01*
X0249532Y0248850D02*
X0249532Y0246144D01*
X0249532Y0248850D02*
X0250434Y0249751D01*
X0253139Y0249751D01*
X0253139Y0246144D01*
X0254970Y0247046D02*
X0254970Y0248850D01*
X0255871Y0249751D01*
X0257675Y0249751D01*
X0258576Y0248850D01*
X0258576Y0247046D01*
X0257675Y0246144D01*
X0255871Y0246144D01*
X0254970Y0247046D01*
X0260398Y0246144D02*
X0262202Y0246144D01*
X0261300Y0246144D02*
X0261300Y0249751D01*
X0262202Y0249751D01*
X0264032Y0249751D02*
X0266738Y0249751D01*
X0267639Y0248850D01*
X0266738Y0247948D01*
X0264934Y0247948D01*
X0264032Y0247046D01*
X0264934Y0246144D01*
X0267639Y0246144D01*
X0269466Y0249751D02*
X0270367Y0249751D01*
X0272171Y0247948D01*
X0272171Y0249751D02*
X0272171Y0246144D01*
X0274002Y0247948D02*
X0277608Y0247948D01*
X0277608Y0248850D02*
X0276707Y0249751D01*
X0274903Y0249751D01*
X0274002Y0248850D01*
X0274002Y0247948D01*
X0274903Y0246144D02*
X0276707Y0246144D01*
X0277608Y0247046D01*
X0277608Y0248850D01*
X0279439Y0247948D02*
X0279439Y0251555D01*
X0283046Y0251555D02*
X0283046Y0247948D01*
X0281243Y0246144D01*
X0279439Y0247948D01*
X0261300Y0251555D02*
X0261300Y0252456D01*
X0260613Y0033051D02*
X0259711Y0033051D01*
X0259711Y0027641D01*
X0258810Y0027641D02*
X0260613Y0027641D01*
X0262444Y0027641D02*
X0262444Y0031247D01*
X0262444Y0027641D02*
X0265149Y0027641D01*
X0266051Y0028542D01*
X0266051Y0031247D01*
X0267882Y0031247D02*
X0270587Y0031247D01*
X0271488Y0030346D01*
X0271488Y0028542D01*
X0270587Y0027641D01*
X0267882Y0027641D01*
X0267882Y0033051D01*
X0273319Y0030346D02*
X0274221Y0031247D01*
X0276024Y0031247D01*
X0276926Y0030346D01*
X0276926Y0028542D01*
X0276024Y0027641D01*
X0274221Y0027641D01*
X0273319Y0028542D01*
X0273319Y0030346D01*
X0278757Y0033051D02*
X0278757Y0027641D01*
X0282364Y0027641D02*
X0282364Y0033051D01*
X0280561Y0031247D01*
X0278757Y0033051D01*
X0289628Y0031247D02*
X0290530Y0031247D01*
X0292333Y0029444D01*
X0292333Y0027641D02*
X0292333Y0031247D01*
X0294164Y0030346D02*
X0294164Y0029444D01*
X0297771Y0029444D01*
X0297771Y0030346D02*
X0296869Y0031247D01*
X0295066Y0031247D01*
X0294164Y0030346D01*
X0295066Y0027641D02*
X0296869Y0027641D01*
X0297771Y0028542D01*
X0297771Y0030346D01*
X0299592Y0031247D02*
X0301396Y0031247D01*
X0300494Y0032149D02*
X0300494Y0028542D01*
X0299592Y0027641D01*
X0303222Y0031247D02*
X0304124Y0031247D01*
X0305927Y0029444D01*
X0305927Y0027641D02*
X0305927Y0031247D01*
X0307758Y0030346D02*
X0307758Y0029444D01*
X0311365Y0029444D01*
X0311365Y0030346D02*
X0310463Y0031247D01*
X0308660Y0031247D01*
X0307758Y0030346D01*
X0308660Y0027641D02*
X0310463Y0027641D01*
X0311365Y0028542D01*
X0311365Y0030346D01*
X0313196Y0031247D02*
X0314999Y0027641D01*
X0316803Y0031247D01*
X0318634Y0030346D02*
X0318634Y0027641D01*
X0318634Y0030346D02*
X0319535Y0031247D01*
X0322240Y0031247D01*
X0322240Y0027641D01*
X0324071Y0028542D02*
X0324071Y0030346D01*
X0324973Y0031247D01*
X0326776Y0031247D01*
X0327678Y0030346D01*
X0327678Y0028542D01*
X0326776Y0027641D01*
X0324973Y0027641D01*
X0324071Y0028542D01*
X0329509Y0028542D02*
X0330411Y0027641D01*
X0332214Y0027641D01*
X0333116Y0028542D01*
X0333116Y0032149D01*
X0332214Y0033051D01*
X0330411Y0033051D01*
X0329509Y0032149D01*
X0340384Y0030346D02*
X0340384Y0028542D01*
X0341286Y0027641D01*
X0343090Y0027641D01*
X0343991Y0028542D01*
X0343991Y0030346D01*
X0343090Y0031247D01*
X0341286Y0031247D01*
X0340384Y0030346D01*
X0345822Y0030346D02*
X0345822Y0029444D01*
X0349429Y0029444D01*
X0349429Y0030346D02*
X0348527Y0031247D01*
X0346724Y0031247D01*
X0345822Y0030346D01*
X0346724Y0027641D02*
X0348527Y0027641D01*
X0349429Y0028542D01*
X0349429Y0030346D01*
X0351260Y0031247D02*
X0353965Y0031247D01*
X0354867Y0030346D01*
X0354867Y0028542D01*
X0353965Y0027641D01*
X0351260Y0027641D01*
X0351260Y0033051D01*
X0357590Y0033051D02*
X0357590Y0033952D01*
X0357590Y0031247D02*
X0357590Y0027641D01*
X0358492Y0027641D02*
X0356688Y0027641D01*
X0357590Y0031247D02*
X0358492Y0031247D01*
X0360323Y0029444D02*
X0362126Y0027641D01*
X0363930Y0029444D01*
X0363930Y0033051D01*
X0360323Y0033051D02*
X0360323Y0029444D01*
X0256988Y0029444D02*
X0253381Y0029444D01*
X0253381Y0030346D01*
X0254283Y0031247D01*
X0256086Y0031247D01*
X0256988Y0030346D01*
X0256988Y0028542D01*
X0256086Y0027641D01*
X0254283Y0027641D01*
D69*
X0254274Y0021289D02*
X0255061Y0020502D01*
X0255061Y0019715D01*
X0251913Y0016567D01*
X0251913Y0018141D02*
X0253487Y0016567D01*
X0254274Y0016567D01*
X0255061Y0017354D01*
X0255061Y0018141D01*
X0253487Y0019715D01*
X0253487Y0020502D01*
X0254274Y0021289D01*
X0261339Y0020502D02*
X0262126Y0021289D01*
X0263700Y0021289D01*
X0264487Y0020502D01*
X0266051Y0021289D02*
X0269199Y0016567D01*
X0270764Y0017354D02*
X0271551Y0016567D01*
X0273125Y0016567D01*
X0273912Y0017354D01*
X0275477Y0016567D02*
X0275477Y0021289D01*
X0277051Y0019715D01*
X0278625Y0021289D01*
X0278625Y0016567D01*
X0273912Y0019715D02*
X0273125Y0018928D01*
X0271551Y0018928D01*
X0270764Y0018141D01*
X0270764Y0017354D01*
X0270764Y0020502D02*
X0271551Y0021289D01*
X0273125Y0021289D01*
X0273912Y0020502D01*
X0273912Y0019715D01*
X0269199Y0021289D02*
X0266051Y0016567D01*
X0264487Y0016567D02*
X0261339Y0019715D01*
X0261339Y0020502D01*
X0261339Y0016567D02*
X0264487Y0016567D01*
X0245636Y0016567D02*
X0245636Y0021289D01*
X0244062Y0019715D01*
X0242488Y0021289D01*
X0242488Y0016567D01*
X0240923Y0017354D02*
X0240136Y0016567D01*
X0238562Y0016567D01*
X0237775Y0017354D01*
X0237775Y0018141D01*
X0238562Y0018928D01*
X0240136Y0018928D01*
X0240923Y0019715D01*
X0240923Y0020502D01*
X0240136Y0021289D01*
X0238562Y0021289D01*
X0237775Y0020502D01*
X0236211Y0021289D02*
X0233063Y0016567D01*
X0231498Y0016567D02*
X0228350Y0019715D01*
X0228350Y0020502D01*
X0229137Y0021289D01*
X0230711Y0021289D01*
X0231498Y0020502D01*
X0233063Y0021289D02*
X0236211Y0016567D01*
X0231498Y0016567D02*
X0228350Y0016567D01*
X0226785Y0018928D02*
X0223637Y0018928D01*
X0225211Y0020502D02*
X0225211Y0017354D01*
X0284902Y0017354D02*
X0285689Y0016567D01*
X0287263Y0016567D01*
X0288050Y0017354D01*
X0289615Y0017354D02*
X0290402Y0016567D01*
X0291976Y0016567D01*
X0292763Y0017354D01*
X0289615Y0020502D01*
X0289615Y0017354D01*
X0288050Y0018928D02*
X0286476Y0019715D01*
X0285689Y0019715D01*
X0284902Y0018928D01*
X0284902Y0017354D01*
X0288050Y0018928D02*
X0288050Y0021289D01*
X0284902Y0021289D01*
X0289615Y0020502D02*
X0290402Y0021289D01*
X0291976Y0021289D01*
X0292763Y0020502D01*
X0292763Y0017354D01*
X0294327Y0017354D02*
X0295115Y0016567D01*
X0296689Y0016567D01*
X0297476Y0017354D01*
X0297476Y0018141D01*
X0296689Y0018928D01*
X0295115Y0018928D01*
X0294327Y0018141D01*
X0294327Y0017354D01*
X0295115Y0018928D02*
X0294327Y0019715D01*
X0294327Y0020502D01*
X0295115Y0021289D01*
X0296689Y0021289D01*
X0297476Y0020502D01*
X0297476Y0019715D01*
X0296689Y0018928D01*
X0299040Y0018141D02*
X0299827Y0018928D01*
X0301401Y0018928D01*
X0302188Y0019715D01*
X0302188Y0020502D01*
X0301401Y0021289D01*
X0299827Y0021289D01*
X0299040Y0020502D01*
X0299040Y0018141D02*
X0299040Y0017354D01*
X0299827Y0016567D01*
X0301401Y0016567D01*
X0302188Y0017354D01*
X0303756Y0016567D02*
X0305330Y0016567D01*
X0304543Y0016567D02*
X0304543Y0021289D01*
X0305330Y0021289D02*
X0303756Y0021289D01*
X0306895Y0021289D02*
X0306895Y0020502D01*
X0308469Y0018928D01*
X0308469Y0016567D01*
X0308469Y0018928D02*
X0310043Y0020502D01*
X0310043Y0021289D01*
X0316320Y0018928D02*
X0316320Y0016567D01*
X0318681Y0016567D01*
X0319468Y0017354D01*
X0318681Y0018141D01*
X0316320Y0018141D01*
X0316320Y0018928D02*
X0317107Y0019715D01*
X0318681Y0019715D01*
X0321033Y0018928D02*
X0321033Y0016567D01*
X0321033Y0018928D02*
X0321820Y0019715D01*
X0323394Y0019715D01*
X0324181Y0018928D01*
X0325745Y0018928D02*
X0325745Y0016567D01*
X0328106Y0016567D01*
X0328893Y0017354D01*
X0328106Y0018141D01*
X0325745Y0018141D01*
X0325745Y0018928D02*
X0326532Y0019715D01*
X0328106Y0019715D01*
X0330458Y0018928D02*
X0330458Y0016567D01*
X0332032Y0016567D02*
X0332032Y0018928D01*
X0331245Y0019715D01*
X0330458Y0018928D01*
X0332032Y0018928D02*
X0332819Y0019715D01*
X0333606Y0019715D01*
X0333606Y0016567D01*
X0335171Y0016567D02*
X0337532Y0016567D01*
X0338319Y0017354D01*
X0337532Y0018141D01*
X0335171Y0018141D01*
X0335171Y0018928D02*
X0335171Y0016567D01*
X0335171Y0018928D02*
X0335958Y0019715D01*
X0337532Y0019715D01*
X0339883Y0020502D02*
X0339883Y0021289D01*
X0339883Y0020502D02*
X0341457Y0018928D01*
X0341457Y0016567D01*
X0341457Y0018928D02*
X0343032Y0020502D01*
X0343032Y0021289D01*
X0349310Y0019715D02*
X0350097Y0019715D01*
X0351671Y0018141D01*
X0351671Y0016567D02*
X0351671Y0019715D01*
X0353236Y0018928D02*
X0354023Y0019715D01*
X0355597Y0019715D01*
X0356384Y0018928D01*
X0356384Y0017354D01*
X0355597Y0016567D01*
X0354023Y0016567D01*
X0353236Y0017354D01*
X0353236Y0018928D01*
X0357952Y0018928D02*
X0359526Y0018928D01*
X0358739Y0020502D02*
X0358739Y0016567D01*
X0358739Y0020502D02*
X0357952Y0021289D01*
X0365803Y0021289D02*
X0365803Y0016567D01*
X0368164Y0016567D01*
X0368951Y0017354D01*
X0368951Y0018928D01*
X0368164Y0019715D01*
X0365803Y0019715D01*
X0370516Y0018928D02*
X0370516Y0018141D01*
X0373664Y0018141D01*
X0373664Y0017354D02*
X0373664Y0018928D01*
X0372877Y0019715D01*
X0371303Y0019715D01*
X0370516Y0018928D01*
X0371303Y0016567D02*
X0372877Y0016567D01*
X0373664Y0017354D01*
X0375229Y0016567D02*
X0375229Y0018928D01*
X0376016Y0019715D01*
X0378377Y0019715D01*
X0378377Y0016567D01*
X0379941Y0016567D02*
X0382302Y0016567D01*
X0383089Y0017354D01*
X0383089Y0018928D01*
X0382302Y0019715D01*
X0379941Y0019715D01*
X0379941Y0015780D01*
X0380728Y0014993D01*
X0381515Y0014993D01*
X0384657Y0016567D02*
X0386231Y0016567D01*
X0385444Y0016567D02*
X0385444Y0019715D01*
X0386231Y0019715D01*
X0387796Y0019715D02*
X0390157Y0019715D01*
X0390944Y0018928D01*
X0390157Y0018141D01*
X0388583Y0018141D01*
X0387796Y0017354D01*
X0388583Y0016567D01*
X0390944Y0016567D01*
X0392508Y0018141D02*
X0395656Y0018141D01*
X0395656Y0017354D02*
X0395656Y0018928D01*
X0394869Y0019715D01*
X0393295Y0019715D01*
X0392508Y0018928D01*
X0392508Y0018141D01*
X0393295Y0016567D02*
X0394869Y0016567D01*
X0395656Y0017354D01*
X0397221Y0017354D02*
X0397221Y0020502D01*
X0398008Y0021289D01*
X0400369Y0021289D01*
X0400369Y0016567D01*
X0398008Y0016567D01*
X0397221Y0017354D01*
X0385444Y0021289D02*
X0385444Y0022076D01*
X0324181Y0021289D02*
X0324181Y0016567D01*
X0108729Y0114473D02*
X0108729Y0117473D01*
X0103532Y0117473D02*
X0103532Y0114572D01*
X0022115Y0114473D02*
X0022115Y0117473D01*
X0016918Y0117473D02*
X0016918Y0114572D01*
X0047550Y0230346D02*
X0047550Y0231199D01*
X0049215Y0231199D02*
X0050068Y0230346D01*
X0051773Y0230346D01*
X0052626Y0231199D01*
X0054290Y0231199D02*
X0055143Y0230346D01*
X0056848Y0230346D01*
X0057701Y0231199D01*
X0054290Y0234610D01*
X0054290Y0231199D01*
X0057701Y0231199D02*
X0057701Y0234610D01*
X0056848Y0235463D01*
X0055143Y0235463D01*
X0054290Y0234610D01*
X0052626Y0234610D02*
X0051773Y0235463D01*
X0050068Y0235463D01*
X0049215Y0234610D01*
X0049215Y0233757D01*
X0050068Y0232905D01*
X0049215Y0232052D01*
X0049215Y0231199D01*
X0050068Y0232905D02*
X0050920Y0232905D01*
X0047550Y0232905D02*
X0047550Y0236315D01*
X0053444Y0239467D02*
X0053444Y0241172D01*
X0054297Y0242025D01*
X0056002Y0242025D01*
X0056855Y0241172D01*
X0056855Y0239467D01*
X0056002Y0238614D01*
X0054297Y0238614D01*
X0053444Y0239467D01*
X0058533Y0238614D02*
X0059386Y0239467D01*
X0059386Y0242878D01*
X0060238Y0242025D02*
X0058533Y0242025D01*
X0059365Y0235463D02*
X0062776Y0235463D01*
X0062776Y0232905D01*
X0061071Y0233757D01*
X0060218Y0233757D01*
X0059365Y0232905D01*
X0059365Y0231199D01*
X0060218Y0230346D01*
X0061923Y0230346D01*
X0062776Y0231199D01*
X0064440Y0231199D02*
X0065293Y0230346D01*
X0066998Y0230346D01*
X0067851Y0231199D01*
X0069529Y0230346D02*
X0071235Y0230346D01*
X0070382Y0230346D02*
X0070382Y0235463D01*
X0071235Y0235463D02*
X0069529Y0235463D01*
X0067851Y0234610D02*
X0067851Y0233757D01*
X0066998Y0232905D01*
X0065293Y0232905D01*
X0064440Y0232052D01*
X0064440Y0231199D01*
X0064440Y0234610D02*
X0065293Y0235463D01*
X0066998Y0235463D01*
X0067851Y0234610D01*
X0072899Y0234610D02*
X0072899Y0235463D01*
X0072899Y0234610D02*
X0074604Y0232905D01*
X0074604Y0230346D01*
X0074604Y0232905D02*
X0076310Y0234610D01*
X0076310Y0235463D01*
X0076283Y0238614D02*
X0078841Y0238614D01*
X0079693Y0239467D01*
X0078841Y0240320D01*
X0076283Y0240320D01*
X0076283Y0241172D02*
X0076283Y0238614D01*
X0074618Y0238614D02*
X0074618Y0242025D01*
X0072913Y0242025D02*
X0072060Y0242025D01*
X0072913Y0242025D02*
X0074618Y0240320D01*
X0076283Y0241172D02*
X0077135Y0242025D01*
X0078841Y0242025D01*
X0081358Y0241172D02*
X0082210Y0242025D01*
X0083916Y0242025D01*
X0084769Y0241172D01*
X0084769Y0239467D01*
X0083916Y0238614D01*
X0082210Y0238614D01*
X0081358Y0239467D01*
X0081358Y0241172D01*
X0086433Y0241172D02*
X0087286Y0242025D01*
X0089844Y0242025D01*
X0089844Y0243730D02*
X0089844Y0238614D01*
X0087286Y0238614D01*
X0086433Y0239467D01*
X0086433Y0241172D01*
X0091535Y0235463D02*
X0091535Y0230346D01*
X0093200Y0230346D02*
X0095758Y0230346D01*
X0096611Y0231199D01*
X0095758Y0232052D01*
X0093200Y0232052D01*
X0093200Y0232905D02*
X0093200Y0230346D01*
X0093200Y0232905D02*
X0094053Y0233757D01*
X0095758Y0233757D01*
X0098275Y0232905D02*
X0098275Y0230346D01*
X0099980Y0230346D02*
X0099980Y0232905D01*
X0099128Y0233757D01*
X0098275Y0232905D01*
X0099980Y0232905D02*
X0100833Y0233757D01*
X0101686Y0233757D01*
X0101686Y0230346D01*
X0103350Y0230346D02*
X0103350Y0232905D01*
X0104203Y0233757D01*
X0105908Y0233757D01*
X0105908Y0232052D02*
X0103350Y0232052D01*
X0103350Y0230346D02*
X0105908Y0230346D01*
X0106761Y0231199D01*
X0105908Y0232052D01*
X0108425Y0234610D02*
X0108425Y0235463D01*
X0108425Y0234610D02*
X0110131Y0232905D01*
X0110131Y0230346D01*
X0110131Y0232905D02*
X0111836Y0234610D01*
X0111836Y0235463D01*
X0110131Y0238614D02*
X0110984Y0239467D01*
X0110984Y0242878D01*
X0111836Y0242025D02*
X0110131Y0242025D01*
X0108453Y0241172D02*
X0107600Y0242025D01*
X0105895Y0242025D01*
X0105042Y0241172D01*
X0105042Y0238614D01*
X0103378Y0238614D02*
X0101672Y0238614D01*
X0102525Y0238614D02*
X0102525Y0242025D01*
X0103378Y0242025D01*
X0102525Y0243730D02*
X0102525Y0244583D01*
X0104203Y0246882D02*
X0103350Y0247735D01*
X0103350Y0249440D01*
X0104203Y0250293D01*
X0105908Y0250293D01*
X0106761Y0249440D01*
X0106761Y0247735D01*
X0105908Y0246882D01*
X0104203Y0246882D01*
X0108425Y0247735D02*
X0108425Y0251145D01*
X0109278Y0251998D01*
X0111836Y0251998D01*
X0111836Y0246882D01*
X0109278Y0246882D01*
X0108425Y0247735D01*
X0108453Y0243730D02*
X0108453Y0238614D01*
X0099994Y0238614D02*
X0097436Y0238614D01*
X0096583Y0239467D01*
X0097436Y0240320D01*
X0099141Y0240320D01*
X0099994Y0241172D01*
X0099141Y0242025D01*
X0096583Y0242025D01*
X0096611Y0246882D02*
X0096611Y0250293D01*
X0094053Y0250293D01*
X0093200Y0249440D01*
X0093200Y0246882D01*
X0091535Y0247735D02*
X0090683Y0246882D01*
X0088977Y0246882D01*
X0088125Y0247735D01*
X0088125Y0249440D01*
X0088977Y0250293D01*
X0090683Y0250293D01*
X0091535Y0249440D01*
X0091535Y0247735D01*
X0086460Y0250293D02*
X0084755Y0250293D01*
X0085608Y0251145D02*
X0085608Y0247735D01*
X0084755Y0246882D01*
X0078002Y0247735D02*
X0077149Y0246882D01*
X0074591Y0246882D01*
X0072926Y0247735D02*
X0072074Y0246882D01*
X0070368Y0246882D01*
X0069516Y0247735D01*
X0069516Y0249440D01*
X0070368Y0250293D01*
X0072074Y0250293D01*
X0072926Y0249440D01*
X0072926Y0247735D01*
X0074591Y0250293D02*
X0077149Y0250293D01*
X0078002Y0249440D01*
X0078002Y0247735D01*
X0078002Y0255150D02*
X0078002Y0256002D01*
X0079666Y0256002D02*
X0079666Y0257708D01*
X0081371Y0257708D01*
X0079666Y0259413D02*
X0080519Y0260266D01*
X0082224Y0260266D01*
X0083077Y0259413D01*
X0083077Y0256002D01*
X0082224Y0255150D01*
X0080519Y0255150D01*
X0079666Y0256002D01*
X0078002Y0257708D02*
X0078002Y0261118D01*
X0084741Y0260266D02*
X0084741Y0255150D01*
X0088152Y0260266D01*
X0088152Y0255150D01*
X0089830Y0255150D02*
X0091535Y0255150D01*
X0090683Y0255150D02*
X0090683Y0260266D01*
X0091535Y0260266D02*
X0089830Y0260266D01*
X0093200Y0260266D02*
X0093200Y0255150D01*
X0096611Y0260266D01*
X0096611Y0255150D01*
X0098275Y0255150D02*
X0099980Y0256855D01*
X0099128Y0256855D02*
X0101686Y0256855D01*
X0101686Y0255150D02*
X0101686Y0260266D01*
X0099128Y0260266D01*
X0098275Y0259413D01*
X0098275Y0257708D01*
X0099128Y0256855D01*
X0103350Y0257708D02*
X0106761Y0257708D01*
X0106761Y0258560D02*
X0105056Y0260266D01*
X0103350Y0258560D01*
X0103350Y0255150D01*
X0106761Y0255150D02*
X0106761Y0258560D01*
X0108425Y0260266D02*
X0108425Y0255150D01*
X0110131Y0256855D01*
X0111836Y0255150D01*
X0111836Y0260266D01*
X0090683Y0233757D02*
X0088977Y0233757D01*
X0088125Y0232905D01*
X0088125Y0230346D01*
X0086460Y0231199D02*
X0085608Y0230346D01*
X0083049Y0230346D01*
X0083049Y0232905D01*
X0083902Y0233757D01*
X0085608Y0233757D01*
X0085608Y0232052D02*
X0083049Y0232052D01*
X0085608Y0232052D02*
X0086460Y0231199D01*
X0090683Y0233757D02*
X0091535Y0232905D01*
X0070389Y0239467D02*
X0070389Y0241172D01*
X0069536Y0242025D01*
X0066978Y0242025D01*
X0066978Y0243730D02*
X0066978Y0238614D01*
X0069536Y0238614D01*
X0070389Y0239467D01*
X0067851Y0246882D02*
X0067851Y0250293D01*
X0065293Y0250293D01*
X0064440Y0249440D01*
X0064440Y0246882D01*
X0062776Y0246882D02*
X0062776Y0250293D01*
X0060218Y0250293D01*
X0059365Y0249440D01*
X0059365Y0246882D01*
X0057701Y0247735D02*
X0057701Y0249440D01*
X0056848Y0250293D01*
X0055143Y0250293D01*
X0054290Y0249440D01*
X0054290Y0248587D01*
X0057701Y0248587D01*
X0057701Y0247735D02*
X0056848Y0246882D01*
X0055143Y0246882D01*
X0052626Y0247735D02*
X0051773Y0246882D01*
X0049215Y0246882D01*
X0046698Y0247735D02*
X0045845Y0246882D01*
X0046698Y0247735D02*
X0046698Y0251145D01*
X0047550Y0250293D02*
X0045845Y0250293D01*
X0049215Y0250293D02*
X0051773Y0250293D01*
X0052626Y0249440D01*
X0052626Y0247735D01*
D70*
X0019521Y0118850D03*
X0019521Y0113150D03*
X0106135Y0113150D03*
X0106135Y0118850D03*
M02*
